<mxfile host="app.diagrams.net" agent="Mozilla/5.0 (Windows NT 10.0; Win64; x64) AppleWebKit/537.36 (KHTML, like Gecko) Chrome/128.0.0.0 Safari/537.36" version="24.7.13">
  <diagram name="Page-1" id="coxoGg4IFGBQQFw88I2u">
    <mxGraphModel dx="2074" dy="1104" grid="1" gridSize="7" guides="1" tooltips="1" connect="1" arrows="1" fold="1" page="1" pageScale="1" pageWidth="616" pageHeight="135" background="none" math="0" shadow="0">
      <root>
        <mxCell id="0" />
        <mxCell id="1" parent="0" />
        <mxCell id="VEuWIbHsKDLiBim3Iw0m-1" value="&lt;b&gt;&lt;font style=&quot;font-size: 20px;&quot;&gt;Amplifier&lt;/font&gt;&lt;/b&gt;" style="text;strokeColor=none;align=center;fillColor=none;html=1;verticalAlign=middle;whiteSpace=wrap;rounded=0;fontStyle=4;fontColor=#000000;textShadow=1;" parent="1" vertex="1">
          <mxGeometry x="104" y="28" width="60" height="30" as="geometry" />
        </mxCell>
        <mxCell id="VEuWIbHsKDLiBim3Iw0m-2" value="&lt;b&gt;&lt;font style=&quot;font-size: 20px;&quot;&gt;Console&lt;/font&gt;&lt;/b&gt;" style="text;strokeColor=none;align=center;fillColor=none;html=1;verticalAlign=middle;whiteSpace=wrap;rounded=0;fontStyle=4;fontColor=#000000;textShadow=1;" parent="1" vertex="1">
          <mxGeometry x="464" y="28" width="60" height="30" as="geometry" />
        </mxCell>
        <mxCell id="VEuWIbHsKDLiBim3Iw0m-4" value="&lt;b&gt;&lt;font style=&quot;font-size: 20px;&quot;&gt;ESP32&lt;/font&gt;&lt;/b&gt;" style="text;strokeColor=none;align=center;fillColor=none;html=1;verticalAlign=middle;whiteSpace=wrap;rounded=0;fontStyle=4;fontColor=#000000;textShadow=1;" parent="1" vertex="1">
          <mxGeometry x="284" y="28" width="60" height="30" as="geometry" />
        </mxCell>
        <mxCell id="UD_qJiZpUPMoCugGMKoQ-22" value="&lt;font color=&quot;#990000&quot;&gt;1&lt;/font&gt;" style="text;html=1;align=center;verticalAlign=middle;resizable=0;points=[];autosize=1;strokeColor=none;fillColor=none;fontSize=20;fontFamily=Courier New;fontStyle=1;shadow=0;textShadow=1;labelBackgroundColor=default;" parent="1" vertex="1">
          <mxGeometry x="476" y="53" width="28" height="42" as="geometry" />
        </mxCell>
        <mxCell id="UD_qJiZpUPMoCugGMKoQ-24" value="&lt;span style=&quot;color: rgb(255, 28, 3); font-size: 20px; font-weight: 700;&quot;&gt;2&lt;/span&gt;" style="text;html=1;align=center;verticalAlign=middle;resizable=0;points=[];autosize=1;strokeColor=none;fillColor=none;fontFamily=Courier New;textShadow=1;labelBackgroundColor=default;" parent="1" vertex="1">
          <mxGeometry x="476" y="81" width="28" height="42" as="geometry" />
        </mxCell>
        <mxCell id="UD_qJiZpUPMoCugGMKoQ-25" value="&lt;span style=&quot;color: rgb(255, 162, 0); font-size: 20px; font-weight: 700;&quot;&gt;3&lt;/span&gt;" style="text;html=1;align=center;verticalAlign=middle;resizable=0;points=[];autosize=1;strokeColor=none;fillColor=none;fontFamily=Courier New;textShadow=1;labelBackgroundColor=default;" parent="1" vertex="1">
          <mxGeometry x="476" y="109" width="28" height="42" as="geometry" />
        </mxCell>
        <mxCell id="UD_qJiZpUPMoCugGMKoQ-26" value="&lt;span style=&quot;color: rgb(204, 204, 0); font-size: 20px; font-weight: 700;&quot;&gt;4&lt;/span&gt;" style="text;html=1;align=center;verticalAlign=middle;resizable=0;points=[];autosize=1;strokeColor=none;fillColor=none;fontFamily=Courier New;textShadow=1;labelBackgroundColor=default;" parent="1" vertex="1">
          <mxGeometry x="476" y="137" width="28" height="42" as="geometry" />
        </mxCell>
        <mxCell id="UD_qJiZpUPMoCugGMKoQ-27" value="&lt;span style=&quot;color: rgb(0, 153, 0); font-size: 20px; font-weight: 700;&quot;&gt;5&lt;/span&gt;" style="text;html=1;align=center;verticalAlign=middle;resizable=0;points=[];autosize=1;strokeColor=none;fillColor=none;fontFamily=Courier New;textShadow=1;labelBackgroundColor=default;" parent="1" vertex="1">
          <mxGeometry x="476" y="165" width="28" height="42" as="geometry" />
        </mxCell>
        <mxCell id="UD_qJiZpUPMoCugGMKoQ-28" value="&lt;span style=&quot;color: rgb(0, 153, 0); font-size: 20px; font-weight: 700;&quot;&gt;6&lt;/span&gt;" style="text;html=1;align=center;verticalAlign=middle;resizable=0;points=[];autosize=1;strokeColor=none;fillColor=none;fontFamily=Courier New;textShadow=1;labelBackgroundColor=default;" parent="1" vertex="1">
          <mxGeometry x="476" y="193" width="28" height="42" as="geometry" />
        </mxCell>
        <mxCell id="UD_qJiZpUPMoCugGMKoQ-29" value="&lt;span style=&quot;color: rgb(127, 0, 255); font-size: 20px; font-weight: 700;&quot;&gt;7&lt;/span&gt;" style="text;html=1;align=center;verticalAlign=middle;resizable=0;points=[];autosize=1;strokeColor=none;fillColor=none;fontFamily=Courier New;textShadow=1;labelBackgroundColor=default;" parent="1" vertex="1">
          <mxGeometry x="476" y="221" width="28" height="42" as="geometry" />
        </mxCell>
        <mxCell id="UD_qJiZpUPMoCugGMKoQ-30" value="&lt;span style=&quot;color: rgb(179, 179, 179); font-size: 20px; font-weight: 700;&quot;&gt;8&lt;/span&gt;" style="text;html=1;align=center;verticalAlign=middle;resizable=0;points=[];autosize=1;strokeColor=none;fillColor=none;fontFamily=Courier New;textShadow=1;labelBackgroundColor=default;" parent="1" vertex="1">
          <mxGeometry x="476" y="249" width="28" height="42" as="geometry" />
        </mxCell>
        <mxCell id="UD_qJiZpUPMoCugGMKoQ-31" value="&lt;span style=&quot;color: rgb(255, 255, 255); font-size: 20px; font-weight: 700;&quot;&gt;9&lt;/span&gt;" style="text;html=1;align=center;verticalAlign=middle;resizable=0;points=[];autosize=1;strokeColor=none;fillColor=none;fontFamily=Courier New;textShadow=1;labelBackgroundColor=#666666;" parent="1" vertex="1">
          <mxGeometry x="476" y="277" width="28" height="42" as="geometry" />
        </mxCell>
        <mxCell id="UD_qJiZpUPMoCugGMKoQ-32" value="&lt;span style=&quot;font-size: 20px; font-weight: 700;&quot;&gt;10&lt;/span&gt;" style="text;html=1;align=center;verticalAlign=middle;resizable=0;points=[];autosize=1;strokeColor=none;fillColor=none;fontFamily=Courier New;textShadow=1;labelBackgroundColor=default;" parent="1" vertex="1">
          <mxGeometry x="469" y="305" width="42" height="42" as="geometry" />
        </mxCell>
        <mxCell id="UD_qJiZpUPMoCugGMKoQ-33" value="&lt;span style=&quot;color: rgb(0, 102, 51); font-size: 20px; font-weight: 700;&quot;&gt;11&lt;/span&gt;" style="text;html=1;align=center;verticalAlign=middle;resizable=0;points=[];autosize=1;strokeColor=none;fillColor=none;fontFamily=Courier New;textShadow=1;labelBackgroundColor=default;" parent="1" vertex="1">
          <mxGeometry x="469" y="333" width="42" height="42" as="geometry" />
        </mxCell>
        <mxCell id="UD_qJiZpUPMoCugGMKoQ-34" value="&lt;span style=&quot;color: rgb(255, 102, 255); font-size: 20px; font-weight: 700;&quot;&gt;12&lt;/span&gt;" style="text;html=1;align=center;verticalAlign=middle;resizable=0;points=[];autosize=1;strokeColor=none;fillColor=none;fontFamily=Courier New;textShadow=1;labelBackgroundColor=default;" parent="1" vertex="1">
          <mxGeometry x="469" y="361" width="42" height="42" as="geometry" />
        </mxCell>
        <mxCell id="UD_qJiZpUPMoCugGMKoQ-35" value="&lt;span style=&quot;color: rgb(0, 127, 255); font-size: 20px; font-weight: 700;&quot;&gt;13&lt;/span&gt;" style="text;html=1;align=center;verticalAlign=middle;resizable=0;points=[];autosize=1;strokeColor=none;fillColor=none;fontFamily=Courier New;textShadow=1;labelBackgroundColor=default;" parent="1" vertex="1">
          <mxGeometry x="469" y="389" width="42" height="42" as="geometry" />
        </mxCell>
        <mxCell id="UD_qJiZpUPMoCugGMKoQ-36" value="&lt;span style=&quot;color: rgb(0, 255, 0); font-size: 20px; font-weight: 700;&quot;&gt;14&lt;/span&gt;" style="text;html=1;align=center;verticalAlign=middle;resizable=0;points=[];autosize=1;strokeColor=none;fillColor=none;fontFamily=Courier New;textShadow=1;labelBackgroundColor=default;" parent="1" vertex="1">
          <mxGeometry x="469" y="417" width="42" height="42" as="geometry" />
        </mxCell>
        <mxCell id="UD_qJiZpUPMoCugGMKoQ-37" value="&lt;span style=&quot;color: rgb(0, 102, 204); font-size: 20px; font-weight: 700;&quot;&gt;15&lt;/span&gt;" style="text;html=1;align=center;verticalAlign=middle;resizable=0;points=[];autosize=1;strokeColor=none;fillColor=none;fontFamily=Courier New;textShadow=1;labelBackgroundColor=default;" parent="1" vertex="1">
          <mxGeometry x="469" y="445" width="42" height="42" as="geometry" />
        </mxCell>
        <mxCell id="UD_qJiZpUPMoCugGMKoQ-38" value="&lt;span style=&quot;font-size: 20px; font-weight: 700; background-color: rgb(255, 255, 255);&quot;&gt;GND&lt;/span&gt;" style="text;html=1;align=center;verticalAlign=middle;resizable=0;points=[];autosize=1;strokeColor=none;fillColor=none;fontFamily=Courier New;textShadow=1;" parent="1" vertex="1">
          <mxGeometry x="462" y="473" width="56" height="42" as="geometry" />
        </mxCell>
        <mxCell id="UD_qJiZpUPMoCugGMKoQ-55" style="edgeStyle=orthogonalEdgeStyle;rounded=0;orthogonalLoop=1;jettySize=auto;html=1;startArrow=classic;startFill=1;strokeWidth=2;curved=0;strokeColor=#990000;shadow=1;textShadow=1;" parent="1" source="UD_qJiZpUPMoCugGMKoQ-39" target="UD_qJiZpUPMoCugGMKoQ-22" edge="1">
          <mxGeometry relative="1" as="geometry" />
        </mxCell>
        <mxCell id="UD_qJiZpUPMoCugGMKoQ-39" value="&lt;font color=&quot;#990000&quot;&gt;1&lt;/font&gt;" style="text;html=1;align=center;verticalAlign=middle;resizable=0;points=[];autosize=1;strokeColor=none;fillColor=none;fontSize=20;fontFamily=Courier New;fontStyle=1;textShadow=1;labelBackgroundColor=default;" parent="1" vertex="1">
          <mxGeometry x="112" y="53" width="28" height="42" as="geometry" />
        </mxCell>
        <mxCell id="UD_qJiZpUPMoCugGMKoQ-56" style="edgeStyle=orthogonalEdgeStyle;rounded=0;orthogonalLoop=1;jettySize=auto;html=1;startArrow=classic;startFill=1;strokeWidth=2;curved=0;strokeColor=#FF1C03;shadow=1;textShadow=1;" parent="1" source="UD_qJiZpUPMoCugGMKoQ-40" target="UD_qJiZpUPMoCugGMKoQ-24" edge="1">
          <mxGeometry relative="1" as="geometry" />
        </mxCell>
        <mxCell id="UD_qJiZpUPMoCugGMKoQ-40" value="&lt;span style=&quot;color: rgb(255, 28, 3); font-size: 20px; font-weight: 700;&quot;&gt;2&lt;/span&gt;" style="text;html=1;align=center;verticalAlign=middle;resizable=0;points=[];autosize=1;strokeColor=none;fillColor=none;fontFamily=Courier New;textShadow=1;labelBackgroundColor=default;" parent="1" vertex="1">
          <mxGeometry x="112" y="81" width="28" height="42" as="geometry" />
        </mxCell>
        <mxCell id="UD_qJiZpUPMoCugGMKoQ-57" style="edgeStyle=orthogonalEdgeStyle;rounded=0;orthogonalLoop=1;jettySize=auto;html=1;startArrow=classic;startFill=1;strokeWidth=2;curved=0;strokeColor=#FFA200;shadow=1;textShadow=1;" parent="1" source="UD_qJiZpUPMoCugGMKoQ-41" target="UD_qJiZpUPMoCugGMKoQ-25" edge="1">
          <mxGeometry relative="1" as="geometry" />
        </mxCell>
        <mxCell id="UD_qJiZpUPMoCugGMKoQ-41" value="&lt;span style=&quot;color: rgb(255, 162, 0); font-size: 20px; font-weight: 700;&quot;&gt;3&lt;/span&gt;" style="text;html=1;align=center;verticalAlign=middle;resizable=0;points=[];autosize=1;strokeColor=none;fillColor=none;fontFamily=Courier New;textShadow=1;labelBackgroundColor=default;" parent="1" vertex="1">
          <mxGeometry x="112" y="109" width="28" height="42" as="geometry" />
        </mxCell>
        <mxCell id="UD_qJiZpUPMoCugGMKoQ-58" style="edgeStyle=orthogonalEdgeStyle;rounded=0;orthogonalLoop=1;jettySize=auto;html=1;startArrow=classic;startFill=1;strokeWidth=2;curved=0;strokeColor=#CCCC00;shadow=1;textShadow=1;" parent="1" source="UD_qJiZpUPMoCugGMKoQ-42" target="UD_qJiZpUPMoCugGMKoQ-26" edge="1">
          <mxGeometry relative="1" as="geometry" />
        </mxCell>
        <mxCell id="UD_qJiZpUPMoCugGMKoQ-42" value="&lt;span style=&quot;color: rgb(204, 204, 0); font-size: 20px; font-weight: 700;&quot;&gt;4&lt;/span&gt;" style="text;html=1;align=center;verticalAlign=middle;resizable=0;points=[];autosize=1;strokeColor=none;fillColor=none;fontFamily=Courier New;textShadow=1;labelBackgroundColor=default;" parent="1" vertex="1">
          <mxGeometry x="112" y="137" width="28" height="42" as="geometry" />
        </mxCell>
        <mxCell id="UD_qJiZpUPMoCugGMKoQ-59" style="edgeStyle=orthogonalEdgeStyle;rounded=0;orthogonalLoop=1;jettySize=auto;html=1;startArrow=classic;startFill=1;strokeWidth=2;curved=0;strokeColor=#009900;shadow=1;textShadow=1;" parent="1" source="UD_qJiZpUPMoCugGMKoQ-43" target="UD_qJiZpUPMoCugGMKoQ-27" edge="1">
          <mxGeometry relative="1" as="geometry" />
        </mxCell>
        <mxCell id="UD_qJiZpUPMoCugGMKoQ-43" value="&lt;span style=&quot;color: rgb(0, 153, 0); font-size: 20px; font-weight: 700;&quot;&gt;5&lt;/span&gt;" style="text;html=1;align=center;verticalAlign=middle;resizable=0;points=[];autosize=1;strokeColor=none;fillColor=none;fontFamily=Courier New;textShadow=1;labelBackgroundColor=default;" parent="1" vertex="1">
          <mxGeometry x="112" y="165" width="28" height="42" as="geometry" />
        </mxCell>
        <mxCell id="UD_qJiZpUPMoCugGMKoQ-60" value="&lt;font style=&quot;font-size: 20px;&quot;&gt;&lt;b style=&quot;font-size: 20px;&quot;&gt;GND&lt;/b&gt;&lt;/font&gt;" style="edgeStyle=orthogonalEdgeStyle;rounded=0;orthogonalLoop=1;jettySize=auto;html=1;startArrow=classic;startFill=1;strokeWidth=2;curved=0;strokeColor=default;shadow=1;textShadow=1;fontFamily=Courier New;fontSize=20;" parent="1" source="UD_qJiZpUPMoCugGMKoQ-44" target="UD_qJiZpUPMoCugGMKoQ-28" edge="1">
          <mxGeometry relative="1" as="geometry" />
        </mxCell>
        <mxCell id="UD_qJiZpUPMoCugGMKoQ-44" value="&lt;span style=&quot;color: rgb(0, 153, 0); font-size: 20px; font-weight: 700;&quot;&gt;6&lt;/span&gt;" style="text;html=1;align=center;verticalAlign=middle;resizable=0;points=[];autosize=1;strokeColor=none;fillColor=none;fontFamily=Courier New;textShadow=1;labelBackgroundColor=default;" parent="1" vertex="1">
          <mxGeometry x="112" y="193" width="28" height="42" as="geometry" />
        </mxCell>
        <mxCell id="UD_qJiZpUPMoCugGMKoQ-66" style="edgeStyle=orthogonalEdgeStyle;rounded=0;orthogonalLoop=1;jettySize=auto;html=1;strokeWidth=2;startArrow=classic;startFill=1;strokeColor=#7F00FF;shadow=1;" parent="1" source="UD_qJiZpUPMoCugGMKoQ-45" target="UD_qJiZpUPMoCugGMKoQ-29" edge="1">
          <mxGeometry relative="1" as="geometry" />
        </mxCell>
        <mxCell id="UD_qJiZpUPMoCugGMKoQ-45" value="&lt;span style=&quot;color: rgb(127, 0, 255); font-size: 20px; font-weight: 700;&quot;&gt;7&lt;/span&gt;" style="text;html=1;align=center;verticalAlign=middle;resizable=0;points=[];autosize=1;strokeColor=none;fillColor=none;fontFamily=Courier New;textShadow=1;labelBackgroundColor=default;" parent="1" vertex="1">
          <mxGeometry x="112" y="221" width="28" height="42" as="geometry" />
        </mxCell>
        <mxCell id="UD_qJiZpUPMoCugGMKoQ-67" value="&lt;font face=&quot;Courier New&quot; style=&quot;font-size: 20px;&quot;&gt;&lt;b&gt;32&lt;/b&gt;&lt;/font&gt;" style="edgeStyle=orthogonalEdgeStyle;rounded=0;orthogonalLoop=1;jettySize=auto;html=1;strokeWidth=2;startArrow=classic;startFill=1;shadow=1;textShadow=1;strokeColor=#B3B3B3;" parent="1" source="UD_qJiZpUPMoCugGMKoQ-46" target="UD_qJiZpUPMoCugGMKoQ-30" edge="1">
          <mxGeometry relative="1" as="geometry" />
        </mxCell>
        <mxCell id="UD_qJiZpUPMoCugGMKoQ-46" value="&lt;span style=&quot;color: rgb(179, 179, 179); font-size: 20px; font-weight: 700;&quot;&gt;8&lt;/span&gt;" style="text;html=1;align=center;verticalAlign=middle;resizable=0;points=[];autosize=1;strokeColor=none;fillColor=none;fontFamily=Courier New;textShadow=1;labelBackgroundColor=default;" parent="1" vertex="1">
          <mxGeometry x="112" y="249" width="28" height="42" as="geometry" />
        </mxCell>
        <mxCell id="UD_qJiZpUPMoCugGMKoQ-68" value="&lt;font face=&quot;Courier New&quot; style=&quot;font-size: 20px;&quot;&gt;34&lt;/font&gt;" style="edgeStyle=orthogonalEdgeStyle;rounded=0;orthogonalLoop=1;jettySize=auto;html=1;strokeWidth=2;startArrow=classic;startFill=1;fontStyle=1;textShadow=1;shadow=1;" parent="1" source="UD_qJiZpUPMoCugGMKoQ-47" target="UD_qJiZpUPMoCugGMKoQ-31" edge="1">
          <mxGeometry x="0.0006" relative="1" as="geometry">
            <mxPoint as="offset" />
          </mxGeometry>
        </mxCell>
        <mxCell id="UD_qJiZpUPMoCugGMKoQ-47" value="&lt;span style=&quot;color: rgb(255, 255, 255); font-size: 20px; font-weight: 700;&quot;&gt;9&lt;/span&gt;" style="text;html=1;align=center;verticalAlign=middle;resizable=0;points=[];autosize=1;strokeColor=none;fillColor=none;fontFamily=Courier New;textShadow=1;labelBackgroundColor=#666666;" parent="1" vertex="1">
          <mxGeometry x="112" y="277" width="28" height="42" as="geometry" />
        </mxCell>
        <mxCell id="UD_qJiZpUPMoCugGMKoQ-69" style="edgeStyle=orthogonalEdgeStyle;rounded=0;orthogonalLoop=1;jettySize=auto;html=1;strokeWidth=2;startArrow=classic;startFill=1;shadow=1;" parent="1" source="UD_qJiZpUPMoCugGMKoQ-48" target="UD_qJiZpUPMoCugGMKoQ-32" edge="1">
          <mxGeometry relative="1" as="geometry" />
        </mxCell>
        <mxCell id="UD_qJiZpUPMoCugGMKoQ-48" value="&lt;span style=&quot;font-size: 20px; font-weight: 700;&quot;&gt;10&lt;/span&gt;" style="text;html=1;align=center;verticalAlign=middle;resizable=0;points=[];autosize=1;strokeColor=none;fillColor=none;fontFamily=Courier New;textShadow=1;labelBackgroundColor=default;" parent="1" vertex="1">
          <mxGeometry x="105" y="305" width="42" height="42" as="geometry" />
        </mxCell>
        <mxCell id="UD_qJiZpUPMoCugGMKoQ-70" style="edgeStyle=orthogonalEdgeStyle;rounded=0;orthogonalLoop=1;jettySize=auto;html=1;strokeWidth=2;startArrow=classic;startFill=1;strokeColor=#006633;shadow=1;" parent="1" source="UD_qJiZpUPMoCugGMKoQ-49" target="UD_qJiZpUPMoCugGMKoQ-33" edge="1">
          <mxGeometry relative="1" as="geometry" />
        </mxCell>
        <mxCell id="UD_qJiZpUPMoCugGMKoQ-49" value="&lt;span style=&quot;color: rgb(0, 102, 51); font-size: 20px; font-weight: 700;&quot;&gt;11&lt;/span&gt;" style="text;html=1;align=center;verticalAlign=middle;resizable=0;points=[];autosize=1;strokeColor=none;fillColor=none;fontFamily=Courier New;textShadow=1;labelBackgroundColor=default;" parent="1" vertex="1">
          <mxGeometry x="105" y="333" width="42" height="42" as="geometry" />
        </mxCell>
        <mxCell id="UD_qJiZpUPMoCugGMKoQ-73" style="edgeStyle=orthogonalEdgeStyle;rounded=0;orthogonalLoop=1;jettySize=auto;html=1;strokeWidth=2;startArrow=classic;startFill=1;strokeColor=#FF66FF;shadow=1;" parent="1" source="UD_qJiZpUPMoCugGMKoQ-50" target="UD_qJiZpUPMoCugGMKoQ-71" edge="1">
          <mxGeometry relative="1" as="geometry" />
        </mxCell>
        <mxCell id="UD_qJiZpUPMoCugGMKoQ-50" value="&lt;span style=&quot;color: rgb(255, 102, 255); font-size: 20px; font-weight: 700;&quot;&gt;12&lt;/span&gt;" style="text;html=1;align=center;verticalAlign=middle;resizable=0;points=[];autosize=1;strokeColor=none;fillColor=none;fontFamily=Courier New;textShadow=1;labelBackgroundColor=default;" parent="1" vertex="1">
          <mxGeometry x="105" y="361" width="42" height="42" as="geometry" />
        </mxCell>
        <mxCell id="UD_qJiZpUPMoCugGMKoQ-78" style="edgeStyle=orthogonalEdgeStyle;rounded=0;orthogonalLoop=1;jettySize=auto;html=1;strokeWidth=2;startArrow=classic;startFill=1;strokeColor=#007FFF;shadow=1;" parent="1" source="UD_qJiZpUPMoCugGMKoQ-51" target="UD_qJiZpUPMoCugGMKoQ-76" edge="1">
          <mxGeometry relative="1" as="geometry" />
        </mxCell>
        <mxCell id="UD_qJiZpUPMoCugGMKoQ-51" value="&lt;span style=&quot;color: rgb(0, 127, 255); font-size: 20px; font-weight: 700;&quot;&gt;13&lt;/span&gt;" style="text;html=1;align=center;verticalAlign=middle;resizable=0;points=[];autosize=1;strokeColor=none;fillColor=none;fontFamily=Courier New;textShadow=1;labelBackgroundColor=default;" parent="1" vertex="1">
          <mxGeometry x="105" y="389" width="42" height="42" as="geometry" />
        </mxCell>
        <mxCell id="UD_qJiZpUPMoCugGMKoQ-81" style="edgeStyle=orthogonalEdgeStyle;rounded=0;orthogonalLoop=1;jettySize=auto;html=1;strokeWidth=2;startArrow=classic;startFill=1;strokeColor=#00FF00;shadow=1;" parent="1" source="UD_qJiZpUPMoCugGMKoQ-52" target="UD_qJiZpUPMoCugGMKoQ-36" edge="1">
          <mxGeometry relative="1" as="geometry" />
        </mxCell>
        <mxCell id="UD_qJiZpUPMoCugGMKoQ-52" value="&lt;span style=&quot;color: rgb(0, 255, 0); font-size: 20px; font-weight: 700;&quot;&gt;14&lt;/span&gt;" style="text;html=1;align=center;verticalAlign=middle;resizable=0;points=[];autosize=1;strokeColor=none;fillColor=none;fontFamily=Courier New;textShadow=1;labelBackgroundColor=default;" parent="1" vertex="1">
          <mxGeometry x="105" y="417" width="42" height="42" as="geometry" />
        </mxCell>
        <mxCell id="UD_qJiZpUPMoCugGMKoQ-82" value="&lt;font face=&quot;Courier New&quot; style=&quot;font-size: 20px;&quot;&gt;&lt;b&gt;35&lt;/b&gt;&lt;/font&gt;" style="edgeStyle=orthogonalEdgeStyle;rounded=0;orthogonalLoop=1;jettySize=auto;html=1;strokeWidth=2;startArrow=classic;startFill=1;strokeColor=#0066CC;textShadow=1;shadow=1;" parent="1" source="UD_qJiZpUPMoCugGMKoQ-53" target="UD_qJiZpUPMoCugGMKoQ-37" edge="1">
          <mxGeometry relative="1" as="geometry" />
        </mxCell>
        <mxCell id="UD_qJiZpUPMoCugGMKoQ-53" value="&lt;span style=&quot;color: rgb(0, 102, 204); font-size: 20px; font-weight: 700;&quot;&gt;15&lt;/span&gt;" style="text;html=1;align=center;verticalAlign=middle;resizable=0;points=[];autosize=1;strokeColor=none;fillColor=none;fontFamily=Courier New;textShadow=1;labelBackgroundColor=default;" parent="1" vertex="1">
          <mxGeometry x="105" y="445" width="42" height="42" as="geometry" />
        </mxCell>
        <mxCell id="UD_qJiZpUPMoCugGMKoQ-63" style="edgeStyle=orthogonalEdgeStyle;rounded=0;orthogonalLoop=1;jettySize=auto;html=1;strokeWidth=2;startArrow=classic;startFill=1;shadow=1;" parent="1" source="UD_qJiZpUPMoCugGMKoQ-54" target="UD_qJiZpUPMoCugGMKoQ-44" edge="1">
          <mxGeometry relative="1" as="geometry">
            <mxPoint x="91" y="487" as="targetPoint" />
            <Array as="points">
              <mxPoint x="70" y="494" />
              <mxPoint x="70" y="214" />
            </Array>
          </mxGeometry>
        </mxCell>
        <mxCell id="UD_qJiZpUPMoCugGMKoQ-65" value="&lt;font style=&quot;font-size: 20px;&quot; face=&quot;Courier New&quot;&gt;&lt;b&gt;GND&lt;/b&gt;&lt;/font&gt;" style="edgeStyle=orthogonalEdgeStyle;rounded=0;orthogonalLoop=1;jettySize=auto;html=1;strokeWidth=2;startArrow=classic;startFill=1;textShadow=1;shadow=1;" parent="1" source="UD_qJiZpUPMoCugGMKoQ-54" target="UD_qJiZpUPMoCugGMKoQ-38" edge="1">
          <mxGeometry relative="1" as="geometry" />
        </mxCell>
        <mxCell id="UD_qJiZpUPMoCugGMKoQ-54" value="&lt;span style=&quot;font-size: 20px; font-weight: 700; background-color: rgb(255, 255, 255);&quot;&gt;GND&lt;/span&gt;" style="text;html=1;align=center;verticalAlign=middle;resizable=0;points=[];autosize=1;strokeColor=none;fillColor=none;fontFamily=Courier New;textShadow=1;" parent="1" vertex="1">
          <mxGeometry x="98" y="473" width="56" height="42" as="geometry" />
        </mxCell>
        <mxCell id="UD_qJiZpUPMoCugGMKoQ-71" value="&lt;span style=&quot;color: rgb(255, 102, 255); font-size: 20px; font-weight: 700;&quot;&gt;22&lt;/span&gt;" style="text;html=1;align=center;verticalAlign=middle;resizable=0;points=[];autosize=1;strokeColor=none;fillColor=none;fontFamily=Courier New;textShadow=1;labelBackgroundColor=default;" parent="1" vertex="1">
          <mxGeometry x="217" y="361" width="42" height="42" as="geometry" />
        </mxCell>
        <mxCell id="UD_qJiZpUPMoCugGMKoQ-75" style="edgeStyle=orthogonalEdgeStyle;rounded=0;orthogonalLoop=1;jettySize=auto;html=1;strokeWidth=2;startArrow=classic;startFill=1;strokeColor=#FF66FF;shadow=1;" parent="1" source="UD_qJiZpUPMoCugGMKoQ-72" target="UD_qJiZpUPMoCugGMKoQ-34" edge="1">
          <mxGeometry relative="1" as="geometry" />
        </mxCell>
        <mxCell id="UD_qJiZpUPMoCugGMKoQ-72" value="&lt;span style=&quot;color: rgb(255, 102, 255); font-size: 20px; font-weight: 700;&quot;&gt;17&lt;/span&gt;" style="text;html=1;align=center;verticalAlign=middle;resizable=0;points=[];autosize=1;strokeColor=none;fillColor=none;fontFamily=Courier New;textShadow=1;glass=0;shadow=0;labelBackgroundColor=default;" parent="1" vertex="1">
          <mxGeometry x="357" y="361" width="42" height="42" as="geometry" />
        </mxCell>
        <mxCell id="UD_qJiZpUPMoCugGMKoQ-76" value="&lt;span style=&quot;color: rgb(0, 127, 255); font-size: 20px; font-weight: 700;&quot;&gt;23&lt;/span&gt;" style="text;html=1;align=center;verticalAlign=middle;resizable=0;points=[];autosize=1;strokeColor=none;fillColor=none;fontFamily=Courier New;textShadow=1;labelBackgroundColor=default;" parent="1" vertex="1">
          <mxGeometry x="217" y="389" width="42" height="42" as="geometry" />
        </mxCell>
        <mxCell id="UD_qJiZpUPMoCugGMKoQ-80" style="edgeStyle=orthogonalEdgeStyle;rounded=0;orthogonalLoop=1;jettySize=auto;html=1;strokeWidth=2;startArrow=classic;startFill=1;strokeColor=#007FFF;shadow=1;" parent="1" source="UD_qJiZpUPMoCugGMKoQ-77" target="UD_qJiZpUPMoCugGMKoQ-35" edge="1">
          <mxGeometry relative="1" as="geometry" />
        </mxCell>
        <mxCell id="UD_qJiZpUPMoCugGMKoQ-77" value="&lt;span style=&quot;color: rgb(0, 127, 255); font-size: 20px; font-weight: 700;&quot;&gt;16&lt;/span&gt;" style="text;html=1;align=center;verticalAlign=middle;resizable=0;points=[];autosize=1;strokeColor=none;fillColor=none;fontFamily=Courier New;textShadow=1;labelBackgroundColor=default;" parent="1" vertex="1">
          <mxGeometry x="357" y="389" width="42" height="42" as="geometry" />
        </mxCell>
        <mxCell id="UD_qJiZpUPMoCugGMKoQ-83" value="" style="shape=image;verticalLabelPosition=bottom;labelBackgroundColor=default;verticalAlign=top;aspect=fixed;imageAspect=0;image=data:image/png,iVBORw0KGgoAAAANSUhEUgAABFoAAAO5CAIAAACmK9ZmAAAgAElEQVR4Aeyd32tU1/r/zz+Qi1yEXOQyd7kzkAuFEsFCvWiP4IdapOTCFsH2ILWETyP2YIpftJzQfFCaQk4NJU1AexR/clIlEqtlUOykqBllSMSgQxonhJhhYOZqLr7svfbav+dHMnvP2jP7BUHizp691nqtNc/zvPda61l/e+fdD/iBAAQgAAEIQAACEIAABCAQQwJ/e+fdD9raO1v1p7Vb16q9RrsgAIG4EcBWx63HaS8EIACBiBB4590PkEMtKwUjMsioBgQgAIGqBJBDVRFxAwQgAAEIhEEAOYQWggAEIAAB9QSQQ2H4eJ4JAQhAAAJVCSCH1AcBVTuJGyAAAQi0PAHkUMt3MQ2EAAQgEE0CyCHkEAQgAAEIqCeAHIpmlECtIAABCLQ8AeSQ+iCg5QcZDYQABCBQlQByqCoiboAABCAAgTAIIIeQQxCAAAQgoJ4AcigMH88zIQABCECgKgHkkPogoGoncQMEIACBlieAHGr5LqaBEIAABKJJADmEHIIABCAAAfUEkEPRjBKoFQQgAIGWJ4AcUh8EtPwgo4EQgAAEqhJADlVFxA0QgAAEIBAGAeQQcggCEIAABNQTQA6F4eN5JgQgAAEIVCWAHFIfBFTtJG6AAAQg0PIEkEMt38U0EAIQgEA0CSCHkEMQgAAEIKCeAHIomlECtYIABCDQ8gSQQ+qDgJYfZDQQAhCAQFUCyKGqiLgBAhCAAATCIIAcQg5BAAIQgIB6AsihMHw8z4QABCAAgaoEkEPqg4CqncQNEIAABFqeAHKo5buYBkIAAhCIJgHkEHIIAhCAAATUE0AORTNKoFYQgAAEWp4Ackh9ENDyg4wGQgACEKhKADlUFRE3QAACEIBAGASQQ8ghCEAAAhBQTwA5FIaP55kQgAAEIFCVQGPl0FezS/lSrlhI/nSwas2CugEXGxRJntOyBH5K54qlXLGUuTPcsm1sVx/uw7YyAWx1ZT78FQK1ERieyWr2PFdMj0u7t3cindWubMyc6HM+pO/o1JMl4/5S5vZQW/v+8ccF7eMr9wd7MZsQiAuBQOTQdFKPpUREZfybL2RX0jMTQzvlt7GtvXPwzobx14Vp5xcyRNy42Iahjm9Bu4fOzjxKrRSymtrXf/KFbHY1eWN0r238R5cPcqgpuqnVK4mtjq6JaPWxVzf5M3Pr0vgnJ3oU4/KRQ+MLRvWc77z6rKhM91z6X82IbmPmqxBjs7qZUzcIBEkgNDkkBVL25az1guGrm6nNUi7P7FCQXYhNUUpgz9Ery/pbN+kL5cjXdFH2/qBiv1jbSEMONUU3tXolkUNKTVlttqLVB+E2u+D0I5sXWJ7cpxamjxzae+5RJl/K5Vcds0OHZ5eEw9pcnRkbGjh8aK82HbR/JKG/uX7N7JDafqT0hhIIVA5lH40cPjIwODo+dfnqw1XTOmSTYwpfluBit2nfcXvVCRw8m5QTnsVSLr+xtPBk5tLlyanLV++lk4sb2dfIoYaaM4Z6UxPAVjd198W48n1nk47XYakL+5XS8JFD/vXhRVh1L48LiwuBYOWQI/jrOXE/Y7wpV/myBBfrbwexAnUTOHxj1VgaVyykrjjWhTYZc5xi3YOhyXo8ku3FVjOKmpJA70RCLJN+uWpMtizeVLpMestyKPlTXELephxgkTTXrUcyRDnU1r7/4qLxyiRxTtmXDRfbeqM2Ei3adzllqP2GLv4Mpe3IIfxNBAhgq0P5dkegZ1u7XXsvLIv3YqkLw1dfi5hn9epnymKetnbkkEL4FN2sBEKVQ53m7j3j3YNP1CU37Wm7LPY4Mpws3h855EqBsh3KuNjWdkWqWnd4Rk4N1b5xdvfQ+J30UlZP2qMtritkXqavnjviXEq6lW9E75FTV57YH5hdWb54yv416Rs4fXNuccPK8bC5kbp3+ehu+z2dbT5fTHGD+ErKCm9uLD30fJZgCwIBEcBWq7JmlFsHgf2Tz3UJlH9ytrfTlEZLM8dczzSTFiR/6uz54nLipbHQOruSnhzco93ce2RkJp3ZFE8rZBZufm031HYr3Xtk5M6ythdI+BF3sOQjh+ylO/Ja2Te7FkXuBJ+Pi7b0HBq7umB5k+yKy3/ZP3hw5M6y8DvJcae7CchcuPDyXwjUSSBUOWTODhXmTuvfB/v32fhKWMHfpJl3zvx+bqbH696SiIutc4jwcT8CR+RbQDm2q5n4nhOzS8LPmcNb/pJ9PL3P+njN34h9YwmZHVWu2dO8o23Zg3NrkyxO96DODbU+X8zOtt7hqy+lELJ/djM9fgD3BoHgCWCr/UxN8JwpJUgCZjYC8V7MXDi3/uhry6prnWgKktQdcx+Brmc067ox89XB8QWPvV2xbUCwrPTlmRXzg/IXR44Euywxxo9ZunAQ5n/tvkOvRme5yaV9Y0/k9gdZqO4Xlm4Pyzd6ZrnLcwmrLTaXxGCGQHQJhCmHPpNJS/S3JpoBsr7P5vEmMvjTLULyyujRw0cGTuoJ6MQ3zfOKZauGDBe7VWLcXwOBMWOxeHF5spaTGQ5MJ6UWyjy+eWrwyMDhI19PPNISLYpxfsN8lVjrN+Lre4a/ySQmDr+vzaPuPHBm/N7y3IQwN7YMqpvLcxNnBvQ0Jxcfy9wPm09GzJr7fDHl0RPFwtKdicO7O9t69w+aOfQWppWujI+uPa1h5FD5sgSw1YyfpiMglwkU5uS0/IiRVsG6IhplVyDZ57OaFzg5nTCFzWYhVyykZrQQ6OsJS3hYGw2klc7lS7nNVcOkn5yeM19avZ49bAgwU5ZY5w6ZpQtx0vP+Ic0jXJLL/C5pLklmlvP5eNtXUsJl05Mn9ve0d+78bGLOqLyZj9v8oHa8ZOrKsJ6nruz3ven6mgq3NoFw5FDv/sNj98134Vaee/l9tq60W8Ffaso6m7Vn9ImRmK7uLYm42NYewYpaZ45by99UqIklXe6YL9J0J3HgprEBKf9kxPBk5pNLlb8RciWq6YqcXsfc2uSezOk7Jd/bLd04YtTZ+8U8ZeSNzSZG5Zu/zrZ2M4HS8sW6p20r4OJP8SSArY5nvzdzq6UAsJ+pII1nLjlmb5opSBwHMJhvjfVTsE1jK1WW7WhsaaVzxeWL9vn5XlkHY6mb//SOWbpjrkY+03HRZ+uRXBDoKlpWPpsY1Vtq1qTkdBxO3+ScNLMj4ncIKCQQqBzS33M7515LjnOH5HfPRw5Z4aD45sig0G5ltvUtwsUqHF6tW7Qcn7Zjv8s3dshY22BOk1oj2RQYGzMnnCO/2jfC9Je5bPriv47ZzzvWajKRNuadvPOr0oflnl82vK/ni3n0tphEMmtl+LOeKeNtYtKYg8LPQSAwAtjq8jYkMMgUESQBqXycO4WOGUupnQbfFCTWeyjNEZgSYvXqYVsvy4OMrGBJWumcZ7fqgMxxKlWN+UzrbZ1ZurxHL0s+03HRqpL5cenvTJdhuDBZ0Mr9o462uB1HkMwt72nDxUUI1E0gTDmU30jOjNk2RVRcLOeWPfLr576+5S8ALhZLFAIB6QasF3IVRmalwezxUuVu9lzvHZ4xshjpK+7yhdS9aTNHguex9up5HiWdoul65dSTY424/U2H033aH87vENgmAWx1CJZqm31BTWohYM60222j/ffEmJUOqoxNNl2JqT30LjMXpy1MGzXxWGmrhu4/+TzTv3T5Qac993zcrIzfK2+tvUac5vlg3RGq1UYeBYGQCQQqh8QxrNoK1CMDA9rqUvdQlt89M+pqMxfLuWWPJ2LzPq22K7hYdy/Uxo1PVSTQZwoG22D2DHgDdaXB7PFS5W72vb7n6MT9pLn6vKitKb96QnPAnsfa6+Z5lOeLabbO7trtvzvdp/3h/A6BbRLAVle0OdukyjPDImBmTSgnEoql3PPL5jbLMja5jIQwFchW5FDqkjj+1eeZ/qVLy++0556Pm5Up11LkEGFV8xMIVg7ZsqD4opHfPVsE6YnMaoggt2TdcLFbwsXNNRLoGXsi5cHGjK5Ayn9Qehfn2glxv9x3uzEzKMKd7Xwjdh44M2nmSHg9O9Deaa5qc67i0IswUyE9LvveUfrOMhuTfL/dXIRAfQSw1eVtCFoocgRMF7B0W09UI14EG/+ekVP31hn00qjak3/aF8ttf3bInKSSeRekx7Gt5fYvXYZkVeRQrzxkz9Rm/t90n3IZ0hBoFgLIocgZ2WYZOrGvp1wgrs/JzLiPD+rsOTQ28/DmoO42pOYpLc0MOWZNzVQKVlbW7cghvS+crsjUPJtPztoPr2i3UimkLohXiT6rWE1Pz47Y2I/zxllI5BCDrXkImNkF/N8ZmXs7zZ1C/oLEZ6OO/o0zJ2RMBSKlS2790SkzKWh7Z9uByylxAFExPW5cd/oC3Qf5ly6fWUUOtZvOzpnFwS2KfMptng5tnKGDSTQJIIf4DkBguwRs6bP19dOryXuzk1OXJ2ceJcURe+YSUDN7QbGw9NCbaLuQnJDKpOblo+OJ1cSV0aMHxPl9+w+PPTIOhdBnh9ra+0aS8uSH7PKMN9G2/4kWZgZ807GVRGbwfbs7tdysJyeuPlxNzZi3bRed24/yHAh0IoeiGSVQKx8CZupO08i7bJqpZ2T+a39Bsg05pO3VSU+e1HYlHP3XzaQ8fc626Ma03taMk3/ptcqhzr3yzpw4tkHbDbFn3+GhU1P3kytPxo22+5Trg84Fiv9CIBoEkENEIRCog8CBsTl7PgPX0mqbp9w3+mjJeIfnyk9QWLphz75d6+xQme09tpV7vUMXn0tF5K7Yk7P2VK3S1dkcameFc2Ptt+HtIBAUAeRQUCR5TtgEzGRuMse014mY2sCYPvIXJFuXQ5nkEx9X8vr+oDVlZBYdmBxqay9/qLe1JM+n3LA7gudDICgCyCGvFeMKBLZEYM/hf92cW9zIyjNVc/lCNruavDM9qJ+Oan5Xew6NXny4mjFv2yxkFu6PD+rTO9bbkVrl0OGfHqVWCllTYm1uaPNOh6xERnq5IteCdVs2q80pDViOU2+pnxzSPr57aPLeslVh2S4zf53ZNH6BQP0EkEP1M+QJDSFgLh4rzJ0u6yxM/ZO9d6Z8epsyEsKcXPIslsvcGe754nJCLEDQlmprKXydJt3nmWZlHOvipOV3XCyn0Nr7Bs7NJl9u2JxOIbP46OLpI3IFuE+5DemOsl1A6RConUAgcijSYxEXW/to4E4IQAACqghgq1WRp9wmICClC5PzTdBZ1vvNSIfHkLQTQA4xWCEAAQhAQD0B5JDdN/M7BBwEkENoDAiESQA5pD4IcJi8MDubgiAAAQhElgByKLJdQ8XUE0AOER1BIEwCyCHkEAQgAAEIqCeAHFIfc4cZbdC6uggghxicEAiTAHJIfRBQl4kMc3BQMQhAAAINI4AcahhqCmo+Asghoh0IhEkAOYQcggAEIAAB9QSQQ80Xo4cZnUDDQQA5xGCDQJgEkEPqgwCHyQuzsykIAhCAQGQJIIci2zVUDAIQgEBrE0AOIYcgAAEIQEA9AeRQa0cbtA4CEIBAZAkgh9QHAZEdHFQMAhCAQMMIIIcahpqCIAABCEDATgA5hByCAAQgAAH1BJBDdt/M7xCAAAQg0DACyCH1QUDDOpuCIAABCESWAHIosl1DxSAAAQi0NgHkEHIIAhCAAATUE0AOtXa0QesgAAEIRJYAckh9EBDZwUHFIAABCDSMAHKoYagpCAIQgAAE7ASQQ8ghCEAAAhBQTwA5ZPfN/A4BCEAAAg0jgBxSHwQ0rLMpCAIQgEBkCSCHIts1VAwCEIBAaxNADiGHIAABCEBAPQHkUGtHG7QOAhCAQGQJIIfUBwGRHRxUDAIQgEDDCCCHGoaagiAAAQhAwE7AkEPvvPsBPxCAAAQgAAEIQAACEIAABOJG4G+t/U6utVtnl7b8DgEIQKB5CWCrm7fvqDkEIACBpibAYjkWy0EAAhCAgHoCyKGmDiaoPAQgAIHmJYAcUh8ENO/ooeYQgAAEgiKAHAqKJM+BAAQgAIEtEUAOIYcgAAEIQEA9AeTQlpw3N0MAAhCAQFAEkEPqg4Cg+pLnQAACEGheAsih5u07ag4BCECgqQkgh5BDEIAABCCgngByqKmDCSoPAQhAoHkJIIfUBwHNO3qoOQQgAIGgCCCHgiLJcyAAAQhAYEsEkEPIIQhAAAIQUE8AObQl583NEIAABCAQFAHkkPogIKi+5DkQgAAEmpcAcqh5+46aQwACEGhqAsgh5BAEIAABCKgngBxq6mCCykMAAhBoXgLIIfVBQPOOHmoOAQhAICgCyKGgSPIcCEAAAhDYEgHkEHIIAhCAAATUE0AObcl5czMEIAABCARFADmkPggIqi95DgQgAIHmJYAcat6+o+YQgAAEmpoAcgg5BAEIQAAC6gkgh5o6mKDyEIAABJqXAHJIfRDQvKOHmkMAAhAIigByKCiSPAcCEIAABLZEADmEHIIABCAAAfUEkENbct7cDAEIQAACQRFADqkPAoLqS54DAQhAoHkJIIeat++oOQQgAIGmJoAcQg5BAAIQgIB6Asihpg4mqDwEIACB5iWAHFIfBDTv6KHmEIAABIIigBwKiiTPgQAEIACBLRFADiGHIAABCEBAPYGWlUM/pXPFUm5heku+2bj5q/uZbX+2XX2fbqfJAVV78M5GrlhK/hRrCAr5UzQEmotACHJo95mrLwuZO8MRAdGyLjYgnxGRbqIaEIBAzAkEYaunk8VSrpgeL2ce61Em5Z5Z9Xo9hbaiHBJCRZOItp/sSvrquSM9Dpj7xx8XcsXS0sx2wgnkUMztCc2HwJYIBCuH+gbO3U9tajYOObSlbuBmCEAAAjEngBzyGQAtLIfyhey6/Mkb0ihzZ9imiBolh/YNj99JZ17fH3SIMaaVIACBGBEISg717T1xOfFae5EjfpBDPo4NUwsBCEAAAmUIIId8vEbryiFnkLDn8MQTbVlgsTB3KpgIbAuzQwJyFjkUDHmfYVzmK8+dEIgOgYDkkFgMUCzlsk9mHmoLdp2WTuV3LAgXq7L+0Rkr1AQCEIBAeASCsNUslmsCbyWEijdI+Pqe9kbVe317Qw45tD1ufAoC8SQQmBzSFv6OHdvZ3lnO0qniG4SLbQIHowov5UIAAhAIhEAQtho51ATeqmyQUM8mK8/8A3IokG8lD4FATAgEJIdslqispbPd00i4QbjYJnAwjURKWRCAAAQCJxCErd6mHOo5NHZ1YSMrdrDkC5mF2ZFDfY4G9u4fnLifXCkY9xRLmZdPJgf3OO7RfNyeo1NPlrJy3Xh2NTE11OOJ8q1IfffQ5MPVTIVyrcVyB0dm0hl9a642hbJ4311DUbpeSXPVenYlPTMxtNPpfMcXSrnixsxXnTsHLydeaqs5tB9RVeedWuvsNfRvdd/AudnkimxyvpB5+WhkXyWnWS5I6JlazhVL2cSoSdUC5aiYC/LyzLkjlSAfsHfuRurO2ECvrJ7AKxf5SxSsmpN8HNi5CIFWJoAcauXeNZ0Kv0AAAhCIOAFVcmjfmNi1UsquLCcfp1MrujzIr179yvIOIi7P5QuZxbR1jy4qbFQPikxomlx5qd22lNUelXq+qsXZtkTbRpR/ZTq5WcrlN5YW0snHy1LqbMycsCkxQw7dHF8o5PIF7c6FVUOSbabH7aqjd/jqS0OTiNKTUupkH0/vs8W1hhya0lN425tcLKUuHLQ1p7PnxOySEGDZ1eTjdNJ4fiE5sV/e1meSsbVC01ryBp9fxEc8i+L26xUrJcas5hugHMmyD2oodAFjg1xILlSEvG6vfyn7eHqvAHJ4eu5xOvlc14T5jdRjrdeS96YHbLgqNIQ/QQACLUMAOeRjrFumd2kIBCAAgWYhEJwcMjL6GC/7Xe/+ncqk7bPZJe2GjZlT5lRP38BUOlss5V7PHpZh8eBMOjlln2bpG7iiTWXkkmMm3sM39Ih85dHIAdOt9A2MG1rLK4eym4VMcsKaqWg/OJLQ43JbuW3m9MXK/a93y8fuPjOnC62lG0dk6X0jSU0kZF/OWre1d/YcmkgYdx6Td3YK1ZErFpJTZmJr2Zz1R6dkk9t6xxKaFrLf1rnzlC6iNp+MiAmWfTdTxVIunz5r1q29c+fg2KnDsqrm02y/+Mih3iMj93R69rbLtff2s4P8IYv+cvasodO0zUhnzPmxnace6QkbVq/aayggk0rB1kfmaOEXCMSEAHKoktWOySCgmRCAAASUEwhQDlkZnM1UzuIXMddhm6gZSeoTOJccsyJt7ceuvi7lis6g2RUsCiVgxdBjCW3N2+rVz1w+pe9UQp/NsBVqROrWZ82PnJlbd2ZXM+SQ+7F7L+lizHzmYV3U5Z+cNZeBmbU99UiTduuPvpZXhBzKJkZtKa0729pH9aI3ZgaNygzo6s5zW99ZnVjinH6bqN7r2S1NpxjNtyXaFsI1u3DzqLP+4k6bHNo6ZKe+amvff3FR63HbMzsNzenTHWa/8AsEINDiBJBDLd7BykMcKgABCECgFgLByaHaj2EVGiA97ozC29o7hYZxBM29+wfHLl+88yS5sJpZl5uIzBj6hD5tsnjTWIUltYfW8DJ7hzK3h7xYhABIXZKr0crpDVHc88tC0gh1ZN91Y3vy8Iw2QWTpHGNNmtAzVj37Jp9rOsHQOYZs8Fn2JsoylrrJGaSlOxOHbRNEttJ9PKwhhxyzdoXkT8ec8kz7oFsObR2ybQLNqIlBeMpakoccqtxf/BUCcSCAHPIx1nHoeNoIAQhAIFIEVMghkXqh7OI6Uw5p+4vkUaG5zYK+y2hVm3Ux5ZCuefwFSRk5ZD7c3gsiWLf21Qg5ZM4CmepFXJelGyG+KaLM2/RfdP1TmDttODv9vz46R8gkWSshosqSMWu4b/TRkiSTWbg/7pNewu1knW3cc3jsvr5DqZD8yTVH55FDQUB2lq7XzQnT3h38DgEIxIQAcshtqWPS8TQTAhCAQKQIKJND5h56sZPe9u9FcSSoCJc3V+cmhvda80i6lJKCREwBmSLBAXYbcsicONqSHLLPeNgUkaF/TmxDDhWWbDS0NAPyZ27C3LbU2dZ75NSVJ0vaMj/tJ5OcsGducKDQa+UVJD1i2qe4fNHadqXVVtwpFZoxz1YnZG/pzA55+4grEIgbAeQQcggCEIAABNQTUCGHxF6U8ovr9PD96G0tw4F72ZXYrmPKoYm0Jgbk6jV7JCHyR3tTKVgr4izp0mdM0UzI7qhNDpn7fOzlyt/FPI+1D6q22aEj+u4pa4mdfJqsmFVn80rf3hM3U/rurKUrNrHkudNHkLTLDHWLN+1Syi2Htg7ZklKyGj6lMzsk4dTQy2Z38wsEWooAcqiluhNbBgEIQKBJCaiQQ/uNDTO25M5ees5VZIbL2CeSGZhySGRW8MxvtLUfFHv3vXIo5wz9tXIP6InaisuTZgbt2uSQkR/PN5WCeIIto0Btcqjz63taBoilGSslnZeM94pX+3nv8REk7Z1tvWIfVyk1ZS2Zc8shIUHtfIw4vixk5JCXP1cgAAEvAeQQcggCEIAABNQTUCGHOnvOPdG2AG0uX3RseukbOHc/lZgWLlPMDuWeXzYnLrR802LDjCmH2o1jc5yprvd8fUeec2rb/yOi/FyxsDRj5YBu231mRj/yyJHMrUY51L5fHHnkLN1MtG0/KUgk2q66d6jTTEE+d87Mx60Nkp2Dl5MLs4NCh5yanjyx354CYd8VLV929t4Zb7RhXvGXQ+1mX1jnKbnl0NYh1ySH2sUWMpsKZbYEAhCIGQHkkPogwHQS/AIBCEAgtgSUyKE2c5mWlhdBP6xzYdU4EfWxIYfaDujnpWqqSTupM7WiTZtk7tzXjtyx5FCndZtxWqt+smp+deaOMym23BKTuiPO8NFP/1zcMA5XfX1/0NqeJHNA26SUMTy867t6h2e05OD67h39EFhRT22G5/awXbHUODvU1t657yf9/CXZcOus2JX7R0WoJLZFbYqTZI1jZ3Ob6XHnFiDXkC4nh9raD4rJOvOYVI8c8kBeWNV0aXnItckhY5Iwp+8iW1qUYi9m4aCrm/gvBGJFADmEHIIABCAAAfUEFMmhzrb2voFzs0ld5BgH4GRXE1dGbQekdvZ8cTnxUs7zZFcTU0M9YkrBLofaO9t2D00+1AN07XDSQmZhduRQX7lE28mf9JkWs9zNjeTMmL1QLRapdXZI7z6R0iCrH3MkKrD4aNIx66XdVrscEnNBiZdSqhVL2fWN5J3po2ZO7c8mZhY2suI0J6Ga7l22/lpGTpSXQ+ZywULinJYI20cObR2yK6TzL/3A2MyiwS37/OaWjlFyPZ//QgACzUggeDkUNQpBuFj1gULUqFIfCEAAAsESiI+t9o/yy4iHYCG37NPEPJU5oQdMCEAAAlshgBxC6kAAAhCAgHoCyKGW1SpbCUq2B0Ecm+vO/hd+udurLZ+CAASiRgA5pD4IiNqYoD4QgAAEGk8AOdR45i1SYu9EQsts4ZMfokUaiK6DAARCJoAcQg5BAAIQgIB6AsghYveqBAZn0skp+2G4nT3vj159qW/7saX+q/ocboAABCBgJ4AcUh8E2PuD3yEAAQjEkwByKJ79vqVWi21XWpoKZ/a83MqjkYrp7LZUCjdDAAJxI4AcQg5BAAIQgIB6AsihuMUf22hvz/vDk/eWM+sye16xlPWkAdzGY/kIBCAQcwLIIfVBQMyHIM2HAAQg0NbeGR85RHdDAAIQgECkCCCHkEMQgAAEIKCeAHIoUsEBlYEABCAQHwLIIfVBQHxGGy2FAAQgUI4AcqgcGa5DAAIQgECoBJBDyCEIQAACEFBPADkUqrPn4RCAAAQgUI4Ackh9EFCub7gOAQhAID4EkEPx6WtaCgEIQCBSBJBDyCEIQAACEFBPADkUqeCAykAAAhCIDwHkkPogID6jjZZCAAIQKEcAOVSODNchAAEIQCBUAsgh5BAEIAABCKgngBwK1dnzcAhAAP2erv8AACAASURBVAIQKEcAOaQ+CCjXN1yHAAQgEB8CyKH49DUthQAEIBApAsgh5BAEIAABCKgngByKVHBAZSAAAQjEhwBySH0QEJ/RRkshAAEIlCOAHCpHhusQgAAEIBAqAUMOvfPuB/xAAAIQgAAEIAABCEAAAhCIG4G/vfPuBx1d3a3609qta9Veo10QgEDcCGCr49bjtBcCEIBARAgYs0MRqU0Y1cDFhkGVZ0IAAhAIlgC2OliePA0CEIAABGokgBxq2WmxGkcAt0EAAhCIAgHkUBR6gTpAAAIQiCEB5BByCAIQgAAE1BNADsUwBKHJEIAABKJAADmkPgiIwjigDhCAAATUEkAOqeVP6RCAAARiSwA5hByCAAQgAAH1BJBDsQ1EaDgEIAABtQSQQ+qDALUjgNIhAAEIRIEAcigKvUAdIAABCMSQAHIIOQQBCEAAAuoJIIdiGILQZAhAAAJRIIAcUh8ERGEcUAcIQAACagkgh9Typ3QIQAACsSWAHEIOQQACEICAegLIodgGIjQcAhCAgFoCyCH1QYDaEUDpEIAABKJAADkUhV6gDhCAAARiSAA5hByCAAQgAAH1BJBDMQxBaDIEIACBKBBADqkPAqIwDqgDBCAAAbUEkENq+VM6BCAAgdgSQA4hhyAAAQhAQD0B5FBsAxEaDgEIQEAtAeSQ+iBA7QigdAhAAAJRIIAcikIvUAcIQAACMSSAHEIOQQACEICAegLIoRiGIDQZAhCAQBQIIIfUBwFRGAfUAQIQgIBaAsghtfwpHQIQgEBsCSCHkEMQgAAEIKCeAHIotoEIDYcABCCglgBySH0QoHYEUDoEIACBKBBADkWhF6gDBCAAgRgSQA4hhyAAAQhAQD2BlpVDU4u5YimX+mU7EcY/E5ltf7ZLfZ9up8lbq/Yno7cXM/mSRjgz9+XWPhsHPrQRAhCoiUBQcuj9Ly+kXqwVNJNULOU2377449qX79VUg7DNZcu6WOw+BCAAgRYiEISt/mVe80GL58thqUeZlHtm1ev1FNqKcuj43be5Yilz93Td3r9fPCqXf/vs6eKLpbnjVfuCGyAAAQj4EQhEDp2+tKwLoXwhs7Q4n3pjvKrZXDw/oF4RBeFi1beibrdBEyAAAQhEmkAQtho5FOkuFo4sMDn00a/PiqVcfnHM8e516Mzt1Iv18pLYLxLCw0IAAjEnEIgc0jzQi99//HSXNMS7Tl5KawJp7c8fd6g2PUG4WNku1W2J+WCl+RCAQAsTCMJWI4eawFsFJocmfVchVhsD+HEIQAACHgKByKEfz1845pY9X8y9KJZy6/NnPEU22J0H4WKbwME0mCrFQQACEAiWQBC2ulooXM+6tW37snoKZbFcBez+YKuNgQoP5E8QgEBcCQQih3zVQlRMUhAu1reBXIQABCAAgcAIBGGrq/kd/wA6sCb468N6CkUOVQjO/MFWGwMVHsifIACBuBIIWQ7lU6OqyQbhYkN2lqoR+btwagUBCECggQSCsNXVQmH/ALp7x5Efr6ferokEZflCJjU3eqTfYRh3fXx8MjH/V8G4p1jKLKemjr/vuEdj5cwqtPbmwYWTOzyFitVi81PdHe+dnPpD7rb1LdeSQ3oKtU09WVGxlFlKuGsoStcraeQ0KpbW/lq8NXmy39mJ51OlXPHtrX929x+/9mBZy2qg/YiqOu/UWmevoX+r+z/9YW7+L5lIKV/ILM+PflTJada2WM752M2387dtC/IFUlFz+e/8lOh9A5GEwCaiSn3hGcDcDIGYEghLDu34d0ozRulrf/ea18ZeCcLFxnRwYCghAAEINIxAELZ6O3Low3+ntGTWmnh4Nf908dlfejydf3P9n5blFxF8TqQLMu/RRYWNzyfnnxqqILO8OP908cWa9qhn6TeaN7Ql2jbk0I1f5jdLufzbF6nF+aevMobUeXvrG5sSM+TQr+dThVy+oN2ZemNIss3F83bVsev0dZHTSBMtWunzUuqsPf3lQ5vbNeTQBT2Ft73JxdKz/3xia073jm/mXoharb3RHyhaV5if/FjeZuZ20+tmtELTWvIGn19qkEOfjP2p6zQD+CszlbaRO+7bX636rOt1e7p46dvvLj1dnH/6Zk3rzcIL7ffF+ae/DtvaXqFW/AkCEIgzgXDk0K7TtzQ3UHjwg82sKzJJQbhYH4Me50FD2yEAAQgETiAIW+07P+CaLnAokw6xzbX49ta35lRP/6cXFrWQOjP3uXRbx28vzl+wT7P0f3rjlSZy/vzR5PD5f3XZ89f8qJVStf/TCUNreeXQ2mYh8+fPVgqirk9GH+gawFZuh5BDxVLur8SwmT/tve9+04XWi/8ek6X3j/6ppy9anrNu6+receTnB8adQ/LObl0OaQ563tr0K5tj3+6768cHmhay39bd/60uojZToyJzkl9ut/7jP575RyWnWVUOSZK2Ju86NpXSGvjiv1ZDOjzTbnobq0li2acmEH6BAAQgEIIcku+oMndPu/MrqDBDQbjYSpadMQQBCEAAAvUTCMJWG3Jobb3g/yPmOmwTNaN/6hM4VxyzIh1dQ9czpVzxzfUKYb1QAmsJedbNjw+0tXZvrn/h8hf9Zx7okyq2Qo25Juuz5ke++21dUyC/fSuvGHLI/di/X9HFmPnMf+i5i/KpMTO/q+ltv53XpN36vDlJIuTQ2oPvnQ76e73ot7eOG0V/qqs7z239YzqxBz/ot4nqZeY+NYur4ZdqckiQfHXJUpV6WUK42stCDtVAu/4vJk+AQBwIBCyHdvzvtXnxLur3H+2z8wpRBuFipWfC9EAAAhCAQDgEgrDV1WYG3AG00ACL5z0qQmgYbXuP2dhdHx//97VLd1Pa2XrrchORKWm+0adNln71WR/uLrTb0AOzJ62Hy1LEn55dkavRyukNUVz6mpA0Qh2tPfje+8COLrFYw9I5Qg4ZekaW29HVP5XWlKG8/vGlJWOLkeuZoizjEFU5g/Ti7s+fm5NX1jNt9GwXq8ihEV2/pX5xqrXuji7ZWeajPGD1qlYbA+bH+QUCEICAJBCgHJKrAvJvH0x48m7L8lyGtQH/DcLF+tv0BlSeIiAAAQjEhEAQtrpaKOwOoI3ZJLnt3r2szpRD2v4ikWihWMptFvRdRvoeFVMO6U/2FyTuQg05ZD7c3r9uqSDkkDkLZHpScV2W7hZR5m36L7r+Kfw2Yjgy/b8+23uETJK1EiLKDcQEZcihru4Pz82/kGQyqcR5n/QSbgfqbqOztsYSOJkgwSxR/mJLjeABq5OsNgZcxfFfCEAAAl3dQcmhT0Z/15dNZ+zLpt1G0G70G/Z7EC42Eg1pGDEKggAEINB4AkHY6mqhsDuA1u/Pv31mbLsXm++tfy+JRWtCe2y++W3y9N+teST9s1KQiCDeFAkOeu5Ca5BD5sTRluTQBf/Nuob++WYbcshMSGAx0fMTLP42aW5b6u7YdezMjdQLbZmf9pP58+fKa0NqkkN6jgdRlvNfW2oED1gde7UxQOQHAQhAwEMgEDlk5JapagQdHsJTlZD+GoSLRQ5BAAIQgEC4BIKw1dVCYXcALbap2CYc/BzTl7NahgNb3gKdg9iuY8qhyUVNDMjVa3Z3tuOCc59PlyGHrBVxVqH9xhTNpERdmxwy9/nYy5W/i3keax9UbbNDx/TdU9YSO/k0WTGrzuaV/r9/8+szfXfWixs2seS5s4oc+kFPS/v0l+oluntT1KTaGPDUp3pBfAQCEGh1AkHIIbHBcenXyi+EVFmcIFysae75BQIQgAAEQiEQhK2uFgq7A+iPjQ0z//afVxFuy7mKzGj7hyKZgSmHRGaFoicBQNcn+iYcRzo7oQdyXqc58OszbYLl1ZSZQbs2OWTkx/NNpSCeYMtWV5sc6h7+Xc/kdtuWya2GeMir/byuv4oc+uiaBsG3La4KuHtTdE21MeB6CP+FAAQgEMhiOWHanpWZpveawgZfCcLFhuL7G8yB4iAAAQhEmUAQtrpaKOwJoHf8kNISr22+uuTY9NL/6Q+JZw+MCQoxO5RLXzNf+Wn5psWGGVMOdX0sVNOaI9X1+8N35Tmntv0/hhwqFl7c/s46I/W9727pRx45krnVKIe6PhZHHjlLNxNt208KEom2q+4d6jZTkP/2g2MzcP/xa/OpOXn+zy9T33xsz3nw4Q1t2fza799VGGlV5FCXTBqe/vVLe3qGXcdG7776zZw36+ouk2jbOOfDys5HqAcBCECgGoEAZoeED9B2l/rmNv3j5wpmsQF/CsLFIocgAAEIQCBcAkHY6i3LoY4ueZBosZQTh42m3hgnoprrtQb081I11aTtMnr2lzZtkrmb0CYxLDnU3WHeZh4eqp2y+ubW3TKL5e6KM3z0nUtLb43DVTOJ49b2pG7j3CGblDKcppBJ9tJ3nb6lJQfXd+/ox7CKemrL/GYdh17UODvU0dX94ZR+/pJsuHVW7F+JL0VsIeTlpjhJ1jh2Nre5eN6VI9sZiBhqMO8TMzyY0MfYrtNCGWqc5ZGygs98dTlkzGuJU2uf/ZU67yy9AVEHRUAAAk1HIDg5VC4PjNeON9Y2BeFiww0Cmm7QUGEIQAACgRMIwlZvQw51d3T1f/rD3LwucoScWFt78+DG97YDUrt3/O+1B8tynmftzYMLJ3d06WXZBUlXd8d7J6f+eGNMHOULmdTc6JF+7ySG0APzU93aTItZ7ubb+ds/2gvVCNc6OyRUhJ7SYE0/5khbb1bILM1POWa9tNtql0MdXVoNHyxLqVYsra2/nb/7izVp88XPt1Jv18RpTkI1/X7N+msZXy8nxwzxJpiLf2VeOy09w+jtRUOXirYspy6NOOapvGCNMbnr5NRTs7PmR8tUI/ABzAMhAIHmJRCAHIp444NwscghCEAAAhAIl0B8bLUphyLuPakeBCAAgZgQQA6F6+BjMoxoJgQgAIE6CSCH6gTIxyEAAQhAYHsEkEPIIQhAAAIQUE8AObQ9L86nIAABCECgTgLIIfVBQJ1dyMchAAEItAAB5FALdCJNgAAEINCMBJBDyCEIQAACEFBPADnUjDEEdYYABCDQAgSQQ+qDgBYYRjQBAhCAQJ0EkEN1AuTjEIAABCCwPQLIIeQQBCAAAQioJxAfObQ9b82nIAABCEAgJALIIfVBQEhdy2MhAAEINBEB5FATdRZVhQAEINBKBJBDyCEIQAACEFBPADnUSrEFbYEABCDQRASQQ+qDgCYaLlQVAhCAQEgEkEMhgeWxEIAABCBQmQByCDkEAQhAAALqCSCHKntr/goBCEAAAiERQA6pDwJC6loeCwEIQKCJCCCHmqizqCoEIACBViKAHEIOQQACEICAegLIoVaKLWgLBCAAgSYigBxSHwQ00XChqhCAAARCIoAcCgksj4UABCAAgcoEkEPIIQhAAAIQUE8AOVTZW/NXCEAAAhAIiQBySH0QEFLX8lgIQAACTUQAOdREnUVVIQABCLQSAeQQcggCEIAABNQTQA61UmxBWyAAAQg0EQFDDr3z7gf8QAACEIAABCAAAQhAAAIQiBuBv73z7gdt7Z2t+tParWvVXqNdEIBA3Ahgq+PW47QXAhCAQEQIGLNDEalNGNXAxYZBlWdCAAIQCJYAtjpYnjwNAhCAAARqJIAcatlpsRpHALdBAAIQiAIB5FAUeoE6QAACEIghAeQQcggCEIAABNQTQA7FMAShyRCAAASiQAA5pD4IiMI4oA4QgAAE1BJADqnlT+kQgAAEYksAOYQcggAEIAAB9QSQQ7ENRGg4BCAAAbUEkEPqgwC1I4DSIQABCESBAHIoCr1AHSAAAQjEkAByCDkEAQhAAALqCSCHYhiC0GQIQAACUSCAHFIfBERhHFAHCEAAAmoJIIfU8qd0CEAAArElgBxCDkEAAhCAgHoCyKHYBiI0HAIQgIBaAsgh9UGA2hFA6RCAAASiQAA5FIVeoA4QgAAEYkgAOYQcggAEIAAB9QSQQzEMQWgyBCAAgSgQQA6pDwKiMA6oAwQgAAG1BJBDavlTOgQgAIHYEkAOIYcgAAEIQEA9AeRQbAMRGg4BCEBALQHkkPogQO0IoHQIQAACUSCAHIpCL1AHCEAAAjEkgBxCDkEAAhCAgHoCyKEYhiA0GQIQgEAUCCCH1AcBURgH1AECEICAWgLIIbX8KR0CEIBAbAkgh5BDEIAABCCgngByKLaBCA2HAAQgoJYAckh9EKB2BFA6BCAAgSgQQA5FoReoAwQgAIEYEkAORU8O/ZTOFUu5hekYDscgmjw8ky3lihszX0WvZ9upEgQgUJZAE8qh6WSxlCumx/lqb4vA4J2NXLGUuTMchOUvO654OAQgAIGqBIKRQzsHp2cWNrL5khbHF0vZ7Gpiamjntuxj1Rpv9YaAXexns0t6GxNjfVutSa33u+XQ/vHHhVyxtDQTgs/YfezUlUeplYLZd7l8IbuyPDczcXR3k3oX5FCTdhzVjjuBgG11e9/ZpO6SXs8eDssZueXQ3ol0tljKvZ4dDL7EPYf/dXNucSO7afhZzdWub6TuzZ4d3FOrcwm+VnUNWuRQk3Yc1YZA6xEIRA4Jl1DKriwnH6dTK1rsrlnqhel9ETC+wbrYr+8ZrcstTPeE1LoGyaG+gfEnGalgc5uF7Lr2I/ouVywlf6rLz6n7qiCHmrTjqHbcCQRrq9v2XU7pnijMueIGyaGeQxMJbdJb/8kbttp6h9W0SwmQQ+ocZdytDeQh4CIQjByae37TPpnQc+hyUn+DlTin/isXqIs9M7deyq2vLmmeaXlyXzitc8uhMErpG7y9qjvXjeSV0cOOiaC+vf8YvfhwdW4ijHIb8EzkUAMgUwQEgicQqK3u3HthWZtUf6kZuuy9My7PF9B/3XIooMc62PacuL+kv7fKPL556jPHRFDP+8dOXXmylGjWldXIoTAGDM+EAAS2QSAQOeSw3aIS0TFzAbrYnrEnmoRITowkxOq1Y9sgXv0j4cshY0XHZnryUGhL/kKaOqv+WOSQz/ex+qirDpbHQiBcAgHa6rb2Y1dfl3LF1asnbmpzRPknZ3vDqHz4cmjftP5usZCcOhLWegR13/3oxAlYSAhAIOYEwpVDSzeOKOcbnIvtG1/Q1ipoU16nHokF4qEsSQ9bDvWOJbS5u42ZE62nhTrb2pFDYYR9PBMCoRMIzlZ3tn11P6Pv4Rlo3z/5XLfboez2DFsO9Y0ktVdvmTvDraeF2to7kUPKAyQqAAEICAIhyaGDFxf1N3Ofhe5Bq3ZkYC5WrERff3RKe5cmYu7C3Cl3A8vZ9zLX9xyderKUlTt29BQUPR45JD7r2cyz5+jE/aTcqaUtCFlJz0xUz2Ah1pDkkhO1+1ezAtoS9hV9/frr2aPynWLPIW1xXcbc4Lu5sfTw5innvFOZ5vu4Q1tZY1fN/BybG8mZMe9WtJ5DtnvyhczC7MgB5JB7TFb9jnADBKJAIDBb3d4pNnmmLu1va+80LOrzy3ulyZKNLSdm/K/vHLyceCkzBuU3lh5ePtrruVPIMM9mnlqMpKyV7fsrnM6WprbMCvQeOftQy9umTZENms+sxWt4GmVw81y3lTUykzZcgGGHzRLlL71HrHt0b3V19GA5v+CDwt138rFchwAEIBAEgaDlUO/+Ayen5xYLuWJh6UYkXmgF5WIHbjjWoB+e0f+bGHUZ7nL23e/6QZEyTnv59zKdfJzWtySVUs/1XT02h2oqBKus3uGrLw0RJT6bfCk8Xyn7uEoGi/HHco6r5gFkVGBKTCvpcih7X6RO2jf2RHsLWyzlNjdSj9PJx8vSKa7aZ5/8mq/5M+91o6wr+hKR9dXk43TSbOm9UbuEM5fUG0Uv6pFKdjlFou2ae9YaUXwEAqoJBGWr29rHEtpmG7m9s3dC/Peie7enJ743CPhc3/eTnjKuWMplhVHS7e3zZT3RqC3RtqkQbDBrNJI+X8YJ/dCF5JjPn2zPd/zVqMBlMa0kNogapw7U6jV8mq8X4blulHVzfKGQyxeWFtLJhVUjwUP20Sn76sTe4Rlt7WIply9kFk03sZFaJNE2ug4CEIgEgaDkkHglr9u7Yin78tFkZFJ/BuRixUp023TQYT3jtue9nTe+F77Ke/2wrq9yK49GDphDQc/2JtRFJTlkrKDIvpz92pYFwcw+tHSjwqYmOXlivS80Sy/7i6j80uvV7Mv7I/ZpHyPt+EZi3L6ufc/XM6vaYsLNJyPSI3qbXw6LuFNfH3LGzNW+c/SJ9sDishXQGEv+CqlLQ5ZG2n1GqkTOHSrbm47gqVxQxXUINJxAQLa609jkaZsOGtEzbi/NuAyjJ743muy5Lg3d3OhB8+tj2lvHuUNeOSQ/W9VImk82fzHM5u0h80r1X0QFXq8uba7OnLOb5dq9hqf55bCIsoql3Mp9yxPtHkusa5GAmJrTKyyLfn7zqPQIbe3STXDuUMO/aNVHEVWCQPwIBCWHjozf0+Y3kgty0VR+Izlli1PVkQ3GxYrNQnJKRLcmxpL01AVtPYb5U3PcL95frl51ryfsO6XnabAfwyqeaS2WK6PEtDqIeq4/+tpWJbNu+i9CDtleZxp3ChdoCFrtNZ5Hj9nljXhmmSCjs02u1zfh1IzFmC/KLd50Lo3bry+/LCVlvjsxWeez5O+AvnOaY1jLDgBrrDoHBtchoJhAMLZaGp/kT7a9kf6Gsda4v5yh6zmtbyK1H8PqkUPlPus1kt7vo9vyyy+12MWqz/wIi22z54ZEKSTO2Zrf3tm2Ba9RKxZjg1Zx+aL1Rk8bQnsvaTn9co9lvruyRYtF9RzDqvh75x14XIFADAkEJYcc3+edn02LQxJSF6x3aargBuJixUp018tFYxOO7R2k7+ov0XC3Hjih7/RdvOlZzt7ZVm3vkHA2Wc86Pb2gqpM/4obVq4cdXdbWPpHQzx3STh8Su4A8cshT4qiWdtw+YyO9tbVeX3pEd/Plnd7r4oo3CYfzep++Pbowd9rVCnNbF7NDXjJcgUCkCQRiq43jhtzz9voZCUXb9L5mgmqM+4XNtE1NS/Pl8wS3HNqCkfS6SKfRs/ru7EN59JBxUpxHDhl7XK2PbMVr1IjFnq/CKkhrhfBur2cHdFA9U5o68rgP7SNe+++FwBUIQAACDSAQihzS6i1WCOSfjFiew2kxG3U9ABdrLD23zZyI9WzGv44ZnnL23X1d1zy+HqKqHBKPsi1FcIDVXxz66gRxm5hmqXCDdHIeOZSacr5uFMGEx+8ao1aEBVLvuZsve997XVyxpsL876wQoEhB+JUDSwO+SxQBAQjUQyAAW93eKXZ12mZOnHbbkUKmxrhfv83f0Hme4JZDFT4rLa00kl50FTWMsG/C3Hnk0PPL1hJi3YRuxWt4GmUYYc91d2OlyRXX5WKKCkV77b8XAlcgAAEINIBAaHLIzHe8lT0qYTS4fhdrrEQ3zwI3Z1HWC2LbqH3WqJx9d1/X5VDmzrBPk6vNDhnexS1ODFeky6GNmRPSM0k5YRYkPl7pXEKPkxMf8UgU3TtKn2c+3/hFPER6ZXfzZa2818uU5XqPaMihSWslutle5JCJgl8g0EwE6rfV8rihkjbL7fnRNJJj1sgT3/vH/RUMnecJbuNZ4bNSDkkj6Tah7fKGLS1+dlfAGADCrnpeaRl/dXoNT6P8scjq2V6cOYy/dA0Vivbafx8I0lnwJwhAAALhEQhbDnkXZTXaPdftYv33CIkuMZSSzV2Vs+/u6yJlkJ8jFEsLvFt3TDVi5LirtFiuInZj4m550rng2xpkHocqKm9WQN5ppG+y0hvY/JaR3FbmRHI3X97pvV6mLJccGprR8n37qj7kUKO/YnI8UC4E6iJQt62uvHlSpMMpmRsafZa6+cf9Qh4s+7x86b2snfFaae/QFoyk3/dI1nmq3LLzMrNDHomyFa8RsBw6erts+jiv/feDUNeg4oEQgAAEaiEQmhwSMbdNJ9RSmzDuqdfFim2gZs5WGcfLqoql4dbaM1PMONcqGF7Nmg7aJ3b8uzehtrUbu0sryCFzIaLPOetCybyerXg+rJHnJ7dyf9BndsXnnV8ZidJ31j9fk5ZKQWz2TcijD2vFIleTe6SXSw51ioQT2YQj9ba2Z8nY3MzeIWIICDQZgXptdXunyFtQburb2OJvLU7zf3VivOSyRI6RxyV1ya1J9omcAdadXuO5BSMpfYqj13rOiaSa5U7NrlUObcVr1IjF21hZc+GG5OxQm7DJ687U2+2dbb3Ce5JKQXJzRxdchwAEGkcgADl09NKjmbFjZk5kLSQ9NDanH9bp9R++Fj/Ui3W6WGMl+sK0U95YPSSyLFgpzgz5tDF3ao9s156v7xiHAllySAoGZ7Js685Kcqh9vziwyPnZTpn4tZCccCS7k9Ww6tzWO6zPrpRym8uuvmvbffDrK3peINv7xTJySLrDYplE2yvG2URaBWrFYsieqnJIJjVyFN1z6HLSOA0WOWTrbrwsBJqBQJ22us3Y5Fn+uy9ONS1auz2FfMo9vzwgXwzZbIi1IWevWMC8uXrVsuqdO0/dz2inG1WeHdqKkfTvoz5hfnPFQurOxGHbyQpt7Xv2nbyZ0upgVdUwjDbrLe3/FrxGjVjKluWSQ8bK+VImOWFybus9Mrkgj87zXTTuTwOzBgEIQCAUAgHIIcNYG8erpZeyho1bujfmzJUcSgOkrS/78PpcrMhHVDJnOXyKE6bfmj6Scy/a+Uv64arrmuqYS3oWDBzQTxp1nUyXX525U4Ma6ZWn2skjXFMrEvvt2k6/3X3mqnZarrHP2Fhnb2gJ7WI2YZ39V1YOtXdapxOKY1gXVo0QYTM97liMVyuWcmWJ6zY92Td4Wz+v1nkwYvbxfT2rYfmQCC8LAQhEkkB9trrTSPVZaW68T8xaW9NHxqFApVxeP0VanAp675F7CVy7dWR2dmU5+Tgt7O3S7fvuO4U7cKqRmo1kOS+25+uZZf3gNd1cbxrbPfT+UAAAIABJREFUokzrndt8ZKUs8quA4bZq9xo1YilXlrhuzg61d1pHZuc3xGmtmpvYTM889LjFSI5MH79PPSEAgdYiEIAc6jk0evGhPG7ICO4fTZ7YX246pcGWpS4XK06rcOy+9XosubzbOoDo4MhMOiOlReblo7OHjDd8tmhef87uocmHUj/kC5mFWe2Q02qpFKRvO3LqyhNTfOqnfW/19Nu+gdM35xY3jMzaet9ls6vJO5dPfWZObWn1LCdRRE12Dk7PLGwYh5EXS9oTZsast4DWF6YmLOXK8sihzrb2voFzs0mpA3PZ1cTU0E4zhweZ5Szy3kHLFQhEjkBdtloeN2RPbOP1Nd7dnj1fXE68NGbvc5sbyStndvon4N5zdOrJUla+P1pJX9UOOfVssymjEGo2kmU7RfOz95YzRmZt/Y3V+sbS4/uT/3IszSg7YyOsQW+tXqMmLGUaa9TBJofEmpGrppvIbyw9vHx0t3sJtLe/uAIBCECgMQQCkEONqei2S6nPxZZ1TtuuDx+EAAQgAAEvAWy1lwlXIAABCECgAQSQQwgeCEAAAhBQTwA51ACXTxEQgAAEIOAlgBxSHwR4e4UrEIAABOJGADkUtx6nvRCAAAQiQgA5hByCAAQgAAH1BJBDEQkLqAYEIACBuBFADqkPAuI25mgvBCAAAS8B5JCXCVcgAAEIQKABBJBDyCEIQAACEFBPADnUAJdPERCAAAQg4CWAHFIfBHh7hSsQgAAE4kYAORS3Hqe9EIAABCJCADmEHIIABCAAAfUEkEMRCQuoBgQgAIG4EUAOqQ8C4jbmaC8EIAABLwHkkJcJVyAAAQhAoAEEkEPIIQhAAAIQUE8AOdQAl08REIAABCDgJYAcUh8EeHuFKxCAAATiRgA5FLcep70QgAAEIkIAOYQcggAEIAAB9QSQQxEJC6gGBCAAgbgRQA6pDwLiNuZoLwQgAAEvAeSQlwlXIAABCECgAQSQQ8ghCEAAAhBQTwA51ACXTxEQgAAEIOAlgBxSHwR4e4UrEIAABOJGADkUtx6nvRCAAAQiQgA5hByCAAQgAAH1BJBDEQkLqAYEIACBuBFADqkPAuI25mgvBCAAAS8B5JCXCVcgAAEIQKABBAw59M67H/ADAQhAAAIQgAAEIAABCEAgbgT+9s67H3R0dbfqT2u3rlV7jXZBAAJxI4CtjluP014IQAACESFgzA5FpDZhVAMXGwZVngkBCEAgWALY6mB58jQIQAACEKiRAHKoZafFahwB3AYBCEAgCgSQQ1HoBeoAAQhAIIYEkEPIIQhAAAIQUE8AORTDEIQmQwACEIgCAeSQ+iAgCuOAOkAAAhBQSwA5pJY/pUMAAhCILQHkEHIIAhCAAATUE0AOxTYQoeEQgAAE1BJADqkPAtSOAEqHAAQgEAUCyKEo9AJ1gAAEIBBDAsgh5BAEIAABCKgngByKYQhCkyEAAQhEgQBySH0QEIVxQB0gAAEIqCWAHFLLn9IhAAEIxJYAcgg5BAEIQAAC6gkgh2IbiNBwCEAAAmoJIIfUBwFqRwClQwACEIgCAeRQFHqBOkAAAhCIIQHkEHIIAhCAAATUE0AOxTAEockQgAAEokAAOaQ+CIjCOKAOEIAABNQSQA6p5U/pEIAABGJLADmEHIIABCAAAfUEkEOxDURoOAQgAAG1BJBD6oMAtSOA0iEAAQhEgQByKAq9QB0gAAEIxJAAcgg5BAEIQAAC6gkgh2IYgtBkCEAAAlEggBxSHwREYRxQBwhAAAJqCSCH1PKndAhAAAKxJYAcQg5BAAIQgIB6Asih2AYiNBwCEICAWgLIIfVBgNoRQOkQgAAEokAAORSFXqAOEIAABGJIADmEHPIhcD5VyhXf3vqnz59i+CWhyRCAQAMIIIcaAJkiIAABCEDASyAUObTj36lcsZQrLp7vUh9PB+xiv5h7oTWt9ODf/V6a4V85fWtNK93xky9kUnOjR1z1OX09U8oVC/OTH2+jVsihbUDjIxCAQD0EArbVEfA+9dDgsxCAAAQg0DACYcghM2RvQTk0/HvBkCKpX3YocLeS7WZhbd34kdLo7a1v7IqoQXLo8/+be7BcmJ9Sr3sb9p2hIAhAIAwCyKEwqPJMCEAAAhCoSiB4OfThlVcyQG89OfTdb+ul3PqbF9oUzaupjxqvAYQcci5je2/o/J9vNebr88MBKbTaZ4f0O0vIoarfNG6AAAQqE0AOVebDXyEAAQhAICQCQcuhgWvP8qVc+pW+oqzV5JCxCPDPn0cfaHNEL24PhdQr5R/rJ4c0CaTrtOLbW98Eo9CQQ+W7IBjCPB8CEHARQA65gPBfCEAAAhBoDIFg5dAn51OFXPHN9S9+mW/BvUP9YibkwQ/dHd/OrxVLuczc5wHNxtTc2eXkUHewszTIoZp7BHUEAQgEQwA5hNmBAAQgAAElBIKUQx9OLa4VS5nZ0x1drSiHPrr2TF+QdkaTQEKWFH771h0HHL+rrVvL3D3t6k7n9U+m0lo6BNdtO0Z0lbWWOL7L/Vj5tHJyqF9/YOG3EeuD/pJm17HR24uZTSMZw9pfi1PH33fWTXuC+dkd/3vtwbK+Eq9Yym2+nb9wsl8qQCHA5MJI44GsmpM9ZXUEVyAAgVoIIIdqocQ9EIAABCAQOIHg5NDAr5pa+CtxXAuXW1AOffrfN7liae3370QffH5b/++D711d4pUW4gb3dYGr+OrSgBk3n771l57e2pERwfyr+KWMHProl/l8KZdPjdl0lClprBruEkWUcvlCZmlx/ukrXRe9nU+7JZzx2QuJjNanr+afLj7T6qZLOE3uapUZvrE4/3Txxbp2cW1Z+33+6eIljz60Spc6iisQgAAEvASQQ14mXIEABCAAgQYQCEgOGXH2m+tfiKi99eTQkMhbbU0H/UPPuO1UIB1d3W7ZIzWA9/rnQl/9+aPIUCdSUGTunq6YsM5HDu048uNvWk7t0ov/OvYyeeRQ/+if2pantfSvX1qq6f1hfTrLNVUlZ34K8xeOyfr0f3pBT5KRT43KRsl5JFIpuFQr/4UABLZMADnUAJdPERCAAAQg4CUQiBwSW4YK81OfyAJaTg6JzUJrYu5LuPmPxYK3Z/9xHOzjlT2Cid91IbH0NHFieqfSMjlRqJBDpZyZaFsse8sX5q+clLrFiELccqiMfuvo+uTSkj7tY1vgZ8ihP392PvN7LbGe83hWcSdr5OTI33IIyAchAAFBADnESIAABCAAASUE6pdD/WagbwudW00OieOGXKnk/v4ffbYkfe3vttkSk4arO/2v/1NfjZaZm9JS1bkODvINrKUcsp/Eur54/kv7iUP+cmiHPrez5lnd5zujJUSOljTC1rSOLrFDyZG/DjnkROQixn8hAIFaCSCHMCYQgAAEIKCEQL1ySKRPkFuGTLfXWnJo188P8tr8SZkfc4mg1nx/2VP2uiEmxVo1m540Sbp+cS6We29o7O4bLcfd5uJ5aw+S8RFdqFgnFImKPbvimMsSY85bZ9dnzaHpFT/eK+bN/AIBCECgdgLIodpZcScEIAABCARIoE455DdZ4ZYNVkQeYL1rf1T9LtY4bihfWFv3/OgyyT5r5JUWoqrlrn8oNuQYGflc4sf7X6cc0qZupKBa+vVDx0yOlR3OXgHfVW3euiGHah9g3AkBCARCoH5bHUg1eAgEIAABCMSNQJ1y6OT1JY9C0DWDmEjR9cOr68e9YX3jrtTtYv33CImBYiil9flhKUW80kLc6X9d5JfLpB6suffklBmIXjnU3bHLEKXPrph7tzS8Lknz5aw7fZxZhLdurs+ad3rngrxXzJv5BQIQgEDtBOq21Y1zK7U3ijshAAEIQCD6BOqUQ+XcTwstlhMZCIqvpj7ybazILmAd+CO26ORSvzhXvomsCa6DhmQqhW/6jROHjDTlvgWJi35yqKvb+Hj+1ZRtyZxb0vyQ0jSqTbkZo3OXaIKjbu7PSrHnFT/eK9Ef9NQQAhCIIAHkUAQ7hSpBAAIQiAMB5FAF7aH9SZwv5JE31qdEloWcmYTNkE9vf/v2fTmA/JNZH9ena9YefK8LJyMLtn6IrfVw+QTzir8c6uiSSbSf/mLmdfBIGmMSKfPnz5+aibZ3HZtKadm3/RJt+6xy9IofMbNkHsfkqbBZc36BAAQgUIkAcgj7CQEIQAACSggghyq5546u7/TU0qUH//ZJ3WZ0mMgOZ00fGcrEPJxUO6h089VvfzrWqu34Rs8pt5kaNZXJwLVn2k4kHxFiGxnl5FB3h/HxwvykkSzBI4e6d3yTeCFyQuTfvkgtzi+9XctraRhu/eGom3ehnVkBrxzqECnIxUmsS28fTFbmyV8hAAEI+BNADpmWll8gAAEIQKCRBJBD/o7Z6AMR63vOWnX2kLEQznYA0Sejtxcz4kSgYimzPD92xEpHrn3WOLXWki7igeIkVk+aPnsNy8uhrm7j41JieeVQR1f3jiM/Xk/pKqhYyuXfvvjj2pfv+WTD8/2slEmuQ1f7v7ywmJEq67dz9tryOwQgAIFaCSCHnJ6lVm58CgIQgAAE6iQQkhyKkB3HxVYdIkYqhdmTVe/kBghAAAIhEcBWhwSWx0IAAhCAQGUCyKEIKbfKXRXaXz++tKTtHfIcugoZCEAAAo0jgBwKzcg3rhNpAgQgAIFmJIAcir2f+GLuhZZKYfG8uYtJ5pFrxgFNnSEAgSYlgBxq0o6j2hCAAASanQByKEZy6PyDV7f+PdRvUzv9X/yiH3mkZdl2ZgaPEZZm/w5Tfwi0BgHkUGv0I62AAAQg0HQEkEMxivtFXrhcvpBZWpx/uvhizUixvZb+9Uumhmwqsem+xlQYAi1AADnUAp1IEyAAAQg0IwHkUIzkUP8XP19/+sZMeZfLF9b+Wrw1edI+X9SMg5g6QwACLUAAOdQCnUgTIAABCDQjAeRQjORQMw5Q6gwBCMSEAHIoJh1NMyEAAQhEjQByCDkEAQhAAALqCSCHohYfUB8IQAACMSGAHFIfBMRkqNFMCEAAAhUIIIcqwOFPEIAABCAQHgHkEHIIAhCAAATUE0AOhefpeTIEIAABCFQggBxSHwRU6B7+BAEIQCAmBJBDMelomgkBCEAgagSQQ8ghCEAAAhBQTwA5FLX4gPpAAAIQiAkB5JD6ICAmQ41mQgACEKhAADlUAQ5/ggAEIACB8Aggh5BDEIAABCCgngByKDxPz5MhAAEIQKACAeSQ+iCgQvfwJwhAAAIxIYAciklH00wIQAACUSOAHEIOQQACEICAegLIoajFB9QHAhCAQEwIIIfUBwExGWo0EwIQgEAFAsihCnD4EwQgAAEIhEfAkEPvvPsBPxCAAAQgAAEIQAACEIAABOJG4G/vvPtBW3tnq/60dutatddoFwQgEDcC2Oq49TjthQAEIBARAsbsUERqE0Y1cLFhUOWZEIAABIIlgK0OlidPgwAEIACBGgkgh1p2WqzGEcBtEIAABKJAADkUhV6gDhCAAARiSAA5hByCAAQgAAH1BJBDMQxBaDIEIACBKBBADqkPAqIwDqgDBCAAAbUEkENq+VM6BCAAgdgSQA4hhyAAAQhAQD0B5FBsAxEaDgEIQEAtAeSQ+iBA7QigdAhAAAJRIIAcikIvUAcIQAACMSSAHEIOQQACEICAegLIoRiGIDQZAhCAQBQIIIfUBwFRGAfUAQIQgIBaAsghtfwpHQIQgEBsCSCHkEMQgAAEIKCeAHIotoEIDYcABCCglgBySH0QoHYEUDoEIACBKBBADkWhF6gDBCAAgRgSQA4hhyAAAQhAQD0B5FAMQxCaDAEIQCAKBJBD6oOAKIwD6gABCEBALQHkkFr+lA4BCEAgtgSQQ8ghCEAAAhBQTwA5FNtAhIZDAAIQUEsAOaQ+CFA7AigdAhCAQBQIIIei0AvUAQIQgEAMCSCHkEMQgAAEIKCeAHIohiEITYYABCAQBQLIIfVBQBTGAXWAAAQgoJYAckgtf0qHAAQgEFsCyCHkEAQgAAEIqCeAHIptIELDIQABCKglgBxSHwSoHQGUDgEIQCAKBJBDUegF6gABCEAghgSQQzGWQ71Dkw9Xs/lSrljKPZ6I4einyRCAQHQIIIei0xfUBAIQgECsCAQkh766nynqUbXz38ydYeU0A3axn80u6W1MjPWpaNrwTLaUK27MfFW/ijs4vlDQhND6avLxciY5raI59beCJ0AAAi1CIGBb3d4iWLDMEIAABCAQNoGA5NBEWgus84XsuuMndWMo7AZUfX6wLvbre7qEKJZyC9M9CtxtcHLo9KNssZR7ff9ory1o2Dc8fiedeX1/UEHTbNWgdAhAIH4EgrXVVV0DN0AAAhCAAAQEgYDk0E+aHIrCXJC3XwN1sWfm1rXplCVtimZ5cl/jI/jA5NDR2xs+XSZm+bLIocb3LCVCIO4EArXVcYfpdYVcgQAEIACBcgSCkUM9U8u5Yil1aX+5YhReD9DF9ow90SbBkhMjCW2OaGnmWMPbFZgcGryDHCJgggAEIkQgQFvdcMscIYy0HQIQgAAEtkogGDkkYuvkT1F0CcG52L7xBW1/VOJcZ9spsdJs9nCjF7Qgh6I4xrb6reN+CEDASyA4W42VgAAEIAABCGyBAHKoZlj7Lqe0xAOPTmkSSMiSwtwp98f9Z13aO53XD04+15SVa3lhj9jPk70/aN/P41BcNcqhPUennugr+vT8FtnVxNTQTvkcURNtmsv62Zi55pcMg1VzEpo3dOMKBCAQLAHkULA8eRoEIAABCNRIIBg5NP44qHRnbnVRYzMq3BaUix24sZorlrL3zoiyDs/o/02Muop2yh6rOe7rB25q4qq4fPGAec/wzIqO8USFnHU1yKHe4asv9XwP+Y2lhXRywUilnX08vVcP7gcmHiUfp1NaWaXcynLycTr5+NH4j9Nzj9PJ59oKulx+I6VdTCfvTQ+gByAAAQg0hEBQttplk/kvBCAAAQhAoDKBgOSQvorMnG3Irm8k70wf3W0G+ip/CcjFHrv6upQr2qaDDusZt/NPzjpnctyyR4YR3uuHhb5KjokMdfsuafuvMneGKyasqyqH+kaSmhbKLlweMCu2+4wutAqJc5bQ8tZHGyikUpD9Vflrw18hAIHACQRkq1W6m8CZ8EAIQAACEGgAgWDk0NmHhayYZ1hYzazLVNSbyxe/sOLvBjTGt4hgXKzYLORYPLZfLHhLXXAkkPCXGe7FcsJhC4mlHyK0bzqZL+UqLZMTH6kmh4RIW390ytRCenwvk0CMmYj864kcQg5BAAKKCARjqxVV3jSt/AIBCEAAAk1HIBg55Gp2z/ujxnqt141PNuB+NRiIixXHDblSye29oM3n5J5fFovQBAR/meEvh+RszOvZSS1V3cZMpWVyNcmhvXKKydUjbfv0tXk2OedfT+QQsRQEIKCIQCC22m36FLWFakAAAhCAQBMRCEUOae3vnUjk9Z0wg2590mA6AbhYoy323AP231evfma10V9mlJND7X3i/hqWydUkh8ynmQsXHb8gh4iNIACBqBIIwFZHtWkN9noUBwEIQAACWyIQmhxq7xRpqZVn367fxRorzfKF7LrnR5N8jgOItiiHOvfpRzZpcuj2cA09V2WxnCg9+1JPhCDSIdj/taVG8K8ns0OEUxCAgCIC9dvqGkyo9eqKmyEAAQhAAAKCQHhyqE9srdFO6VHkXM0W1lcB/z1C4pmGUlp/9LVso7/MKDc7JPLLvX6SyNaYmq+KHBLp7zK3h6o22b+eyCHZj1UBcgMEIBAsAeRQsDx5GgQgAAEI1EggNDkkcgMUlyf3NbkcEskJyjZkdG5dzzh32mhmj5jtWZh2JogTWRNcBw3JVAon+owTh1buD1YJx6vIodrPh0UO1fgN4TYIQKAxBJBDjeFMKRCAAAQg4CIQiByamHl82Z5W20ylkJVZpF2lNvK/dbpYcb5Qzi1vLI0nsizkkhOG/jHk08bcqT2ymXu+vqOf5+M8d3XwtnYxmxjVP2gkyK62ZK6aHGqXuisxZiXabu9s2z00+Th99Sur2v5yqH06qZ+GpFzESnRWhbkCAQi0NoE6bXVrw6F1EIAABCAQHoFA5JCIoUsi13ZqxUi0nX05O+hM9xxeMyo8uT4Xe0af/CklxspnDBcLzKzpI0PYaFJH38OztF7KbS7PJTXxk7ljbBDqOXE/UyzlNp+MmIgOXE6J5BM20eJpl5BDpdymZxfT+pOzYmbpwHRyU8/0kC9kFrVNRLJHNmZsaS3KyCFjZaA4iXVpcbbabBVyBQIQgEAwBOqz1cHUwWNyeSwEIAABCLQ+gUDk0LGzd9IZEYIXS7l8IbuSnpkY2lll3VeD4NblYsVxQ56zVp0u05iQsR1AdHBkxgKSefno7CEjg5whh3qHxbmoyQnHmUXiJNZcpSVzUg5pcziun/S4CXz30OTDVatHNguZhfvjg+ZslUa+jBzqbDswNrMoBe3zmwPmM/kFAhCAQJgE6rLVYVbMafAb5LkoFAIQgAAEGkYgEDkUafeAi23YYKIgCEAAAtsmgK3eNjo+CAEIQAAC9RBADkVay9XTtXwWAhCAQBMRQA41UWdRVQhAAAKtRAA5hByCAAQgAAH1BJBDrRRb0BYIQAACTUQAOaQ+CGii4UJVIQABCIREADkUElgeCwEIQAAClQkgh5BDEIAABCCgngByqLK35q8QgAAEIBASAeSQ+iAgpK7lsRCAAASaiAByqIk6i6pCAAIQaCUCyCHkEAQgAAEIqCeAHGql2IK2QAACEGgiAsgh9UFAEw0XqgoBCEAgJALIoZDA8lgIQAACEKhMADmEHIIABCAAAfUEkEOVvTV/hQAEIACBkAggh9QHASF1LY+FAAQg0EQEkENN1FlUFQIQgEArEUAOIYcgAAEIQEA9AeRQK8UWtAUCEIBAExFADqkPAppouFBVCEAAAiERQA6FBJbHQgACEIBAZQLIIeQQBCAAAQioJ4Acquyt+SsEIAABCIREADmkPggIqWt5LAQgAIEmIoAcaqLOoqoQgAAEWokAcgg5BAEIQAAC6gkgh1optqAtEIAABJqIAHJIfRDQRMOFqkIAAhAIiQByKCSwPBYCEIAABCoTQA4hhyAAAQhAQD0B5FBlb81fIQABCEAgJAKGHHrn3Q/4gQAEIAABCEAAAhCAAAQgEDcCf3vn3Q86urpb9ae1W9eqvUa7IACBuBHAVsetx2kvBCAAgYgQMGaHIlKbMKqBiw2DKs+EAAQgECwBbHWwPHkaBCAAAQjUSAA51LLTYjWOAG6DAAQgEAUCyKEo9AJ1gAAEIBBDAsgh5BAEIAABCKgngByKYQhCkyEAAQhEgQBySH0QEIVxQB0gAAEIqCWAHFLLn9IhAAEIxJYAcgg5BAEIQAAC6gkgh2IbiNBwCEAAAmoJIIfUBwFqRwClQwACEIgCAeRQFHqBOkAAAhCIIQHkEHIIAhCAAATUE0AOxTAEockQgAAEokAAOaQ+CIjCOKAOEIAABNQSQA6p5U/pEIAABGJLADmEHIIABCAAAfUEkEOxDURoOAQgAAG1BJBD6oMAtSOA0iEAAQhEgQByKAq9QB0gAAEIxJAAcgg5BAEIQAAC6gkgh2IYgtBkCEAAAlEggBxSHwREYRxQBwhAAAJqCSCH1PKndAhAAAKxJYAcQg5BAAIQgIB6Asih2AYiNBwCEICAWgLIIfVBgNoRQOkQgAAEokAAORSFXqAOEIAABGJIADmEHIIABCAAAfUEkEMxDEFoMgQgAIEoEEAOqQ8CojAOqAMEIAABtQSQQ2r5UzoEIACB2BJADiGHIAABCEBAPQHkUGwDERoOAQhAQC0B5JD6IEDtCKB0CEAAAlEggByKQi9QBwhAAAIxJIAcirscOn73ba5Yytw9HcPRT5MhAIHoEEAOVeuLX+aLpVxx8XxX3N1WNVDwgQAEILA1AsHKofe/vJB6sVbIaSa7lMsXMqlrn6o23IG62Pc//79ff1t6u7apN1Bv5tr622e/z40df79JDTRyqEk7jmpDoMUIBGqru3f8z+nzdxctf1Qs5TYLmeXFWxe+/3TX1txkZDgjh5q046g2BCAQdQLByaH3vruVkSpoaXH+6eL88tu1TOJ4q8ihHUd+frAmVVC+sLau/+TlldQvkXGZWxtzyKEm7TiqDYEWIxCcHHp/+ParNfFWrlgybPW6fE9XfHvrn1szkpHhjBxq0o6j2hCAQNQJBCWHhq5rWqjw4u6PUXvxFoiL3fFN4oWufDJPfz3zhWMiaMf/DJ25kXrxADkU9bEemZgGUBCAgA+BQGx1R9cn55/qymfzzW+Tp//umAh6/8P/98ut1OJ15JDq15RYYwhAAAKRIhCMHPrwyiux/2RH9IxsAC72o1/mtdVxhfkLxyLYwDrHE7NDdQLk4xCAQCAEArDVXd3HZ7XNkLm/EsPv+SiuQOqp7iHMDrVen9IiCEAgEgQCkUPf/bZeyuVTY473cJFoXkdXd90utn/0T+1dY+bu6dbTQh1d3cghdcFNVL4jEIBAFAjUbau7O76Ye6FtW301NdCSXy7kUEt2K42CAATUEwhCDv0zkSmWcn/+GAWH6q1DvS72o2vPNP+6FbEngKR+6dh1bOwP/VVl8c3147Kz3zt5/u5ixkzGoCWcSJx3Z2Io5/Y8121ljd6Wj9WeOTfqDQh2HbPuKZbW/lq8fu4T5JB3zHAFAhBoPIF6bXVX9/Dv2qurF7eHaq/8+VQpp+8m6v927tm6vhf06c/y4/2fjvz6YPntmtwjurb25sENVyaG07e0PaXe/Ug+162yjl97sCxcQym39ubBhZPed239+j1G0fm3L/649uUuj/2P3nIMiU76O2oIAQhAoBkIBCCH/q6vlHt2of/Dc3Pzf8ntqrqJ748Agnpd7OSitvRiS2LPkCjXxLSSnmfPcJY7vpl7IYRQ/u2LlJZw4oWRnqEwP/WJzZGUc3sqMtgJAAAgAElEQVSe60ZZv55PFXL5gvbM1BvDg67Nn7HP1+067cx18UqXZG+fLZFoG88NAQioJ1Cvre46eeuvUq745vo/ttAWQ6L8W59WEtkXjLw4n4z9aSiWtb9eacmBlqQuyiSOW6bVR/boltznulHWBf0Fov7MZ1qFtZ9n/7Hb/+4PpxaNVBBrb0ReIu229Ctt7otE2xGIK2zOeguDjU9BAAKRJRCAHDrzQJNAz57q5nvz7TM9p5ww8WupXz5UbbnqdLHG5MnsyS10oZAomTcvNt/c+sG23WjXjw/0PUgvbn9nE4r9n06ktOm14pvrX5iG1SN7DIye66Is11r59358oL/mfHblY1ltY8nfWvrXLy1H/v7w7TfC6XLukARldgG/QAACDSVQp63u6PKYxxq8j5AoLzKFzNNrX9q2G33+3zeaF1tLjR3pt4zDe99dX9b83dqfP8r5HB/Zo9/vc10vy7UNtf/TG9rO29z6/BmztmLJX/Htb+csjWRLbcq5Qw0dllbvmx3ELxCAQMsRCEAOSRNfyty1ovwdR67p6QdK81NmRK7GhNXpYoUcmp9yV95stRB+jjd2hkQpPPjB5ke7uj8V/vXPn6UftZ4p1nis/f6dtLzl/LrnulHWq0vOpXFiyi73VOa7+4dYUu9d8vfJpSXt3SRySJK3OoUrEIBAIwnUaasNObTmOd3BfGckJn+c5s6w5Jm5zx3e/ccH2gI5+ysqaRnE8uniq6mPxBUf2aND87kuylp78L3TBXyvbb4tvr0lF1SP/qnZZO+Svx0j8/rbK+SQ7AtHl3ERAhCAwPYJBCeHln51TQT9/T/6S6+lX/+u1GbV6WKFHHrx32OusGDsD3n0kHGchc1FCe9rf9unEfhYFx6F30b8ekt85K/ElwYrj+wpd118MDPnPu72G309hry+44LWF2sPvne1glQKXiBcgQAElBCo01YbciifGnV5nONzz8QxcesFcYK2/e2PkCi2iXTdPgvh4e+8+sVH5ieFJfeRPTo9n+vigw9+cLmA/qm0pn/kdfHBV5cMuWW/uZxfsN/D7xCAAAQgsGUCgckhtzvp6u746FctCYH3XZ3LV4X83zpdrJhm8RUSMmIQ3ssjh9LXnK8AKzi5bsORWwqqnNvzXBdyyHsIrLgu4QtR59NHZJYLefjJQbLlbyYfhEDcCNRpqzu6xDSLr5CQX8ApbS+oRw69vfWNvEEYBP22cmbfaU59ZI/ecT7XdTnkTbrQbegrYw2CbuQtX2CvmMf+Y74gAAEIQCAIAgHIoXLLyba3kjvwCKBeFyt0xfr8cFncZeSQW6IYcmjK2rrj8XNSvZRH53GHW5JDFxyL9wRq0X32+CDwLuCBEIAABKoSqNdWdxnzNs/+U36Fdjk55DqY1XObvfKGHDLMqY/s0W/2ub4FOWT5Ao+bIJVCWV9sZ8XvEIAABLZAIAA5VHYhltivYi0A20K17L6nzt/rdrFD1zN65p8L1q5WZ5VqlEPH9OdUXCwn17YFLoe+1I8m9NU8yCFnb6oZpdQBAhCo21Z37/h3Ss9/YM/85vxGe3SOv0T5QX9OxcVyzrVt3jmf+uRQ8ZXPi7Nd+qkPyCHkEAQgAIGgCQQghzrE1tJ1Z1rnru4P9QTctvQATrcUdEvKBRMBuNgfUvoG1re3vvGZXenoqlEOdX9+W09V5JdKQWgS295ZH1fa0SWdvd0d1jY71CGWwnv6qGOXWF7iWD1SjiTXIQABCIRHoH5b3dFlvL0qm9S0Rjm06+fyqRR+mc/bT6Izdv7MTzm9g8wOd8s27+Qvvbpci+XELtPSsyvuF3DCpTrS9jTKjYbX6TwZAhCAQBQIBCGHumQS59S1T+VKsP5vEy/KZeZprAUPwsX2C7mSKxae3f35c1sy1o6u9z/8f78+01rq2TvkXizX3fHRL3q2vYJ/ou3NxfO2vbMiuVAubSE1k/XVVJZz75DUbKXMnz+bfdSx69hUyjgnynfiKAoDlDpAAAIxIRCEre7uGBBmtpRbW5z65mP7Bs4d/zMkzsW2m7tyEuW4PqNeLtF2Zva02SlGytC1+WHTNbz3nX4Ckvt41nJl6ddLZv7Sv+uaLbf55vq375ul9H+byBinwdp8TWOdqVkZfoEABCDQYgQCkUPdHbtOG9ZfP130mXEYq+to0WadHdK7/P3h26+Mc/GKpdymkVZOZtku5TbnrXRG5WZsurp3fCNUYilnHMMqzkIt5fJv3FNPxstF7U7tKCdxWOrv81p2ilqkl1sOeYpOvdGc6+birT84hlXNyGwxU0JzIFAngWDkUFe37YieUi4vU4CK86/1XNvPrliZQstJlI6uT84/Nd4WGcewLstTWZ86z9MzDpTTyjIPwl5bmn+gHbHtWERXriyXHPIWLVzqi9mE2/4jhyAAAQhAIAgCAcmhru6OXcdG75rBfSGznJo6br3ZqtNN1vPxoFystlbtyPeXfn+VMTJraxuK1tbfvniamPq/Iduxqt0d5eWQ8ZA/3mRM37z59tnvjuP/zMbu+N9rD6QDzm2+nb/xXb/3nMFyZXnkkF70j9dT8mD1/NsXf2jlsnfIBM4vEICAQgIB2uqOrve/nEzML0tzV9R10V+vfrv98/H/caxqKydRdA76Q4y3e9oTMsuL1+0na5s+eMBpWn//+dNdPguey5XlkUPdWv0vpF5ogkp3NH+Jcj2pdMwK8AsEIAABCNRBIDg5VEclQnXAgbpYphEgAAEIQCAUAtjqUF0hD4cABCAAgXIEkEOh+PVyuLkOAQhAAAK+BJBDvli4CAEIQAACYRNADiGHIAABCEBAPQHkUNj+nudDAAIQgIAvAeSQ+iDAt2O4CAEIQCBWBJBDsepuGgsBCEAgOgSQQ8ghCEAAAhBQTwA5FJ3IgJpAAAIQiBUB5JD6ICBWA47GQgACEPAlgBzyxcJFCEAAAhAImwByCDkEAQhAAALqCSCHwvb3PB8CEIAABHwJIIfUBwG+HcNFCEAAArEigByKVXfTWAhAAALRIYAcQg5BAAIQgIB6Asih6EQG1AQCEIBArAggh9QHAbEacDQWAhCAgC8B5JAvFi5CAAIQgEDYBJBDyCEIQAACEFBPADkUtr/n+RCAAAQg4EsAOaQ+CPDtGC5CAAIQiBUB5FCsupvGQgACEIgOAeQQcggCEIAABNQTQA5FJzKgJhCAAARiRQA5pD4IiNWAo7EQgAAEfAkgh3yxcBECEIAABMImgBxCDkEAAhCAgHoCyKGw/T3PhwAEIAABXwLIIfVBgG/HcBECEIBArAggh2LV3TQWAhCAQHQIIIeQQxCAAAQgoJ4Acig6kQE1gQAEIBArAoYceufdD/iBAAQgAAEIQAACEIAABCAQNwJ/e+fdD9raO1v1p7Vb16q9RrsgAIG4EcBWx63HaS8EIACBiBAwZociUpswqoGLDYMqz4QABCAQLAFsdbA8eRoEIAABCNRIADnUstNiNY4AboMABCAQBQLIoSj0AnWAAAQgEEMCyCHkEAQgAAEIqCeAHIphCEKTIQABCESBAHJIfRAQhXFAHSAAAQioJYAcUsuf0iEAAQjElgByCDkEAQhAAALqCSCHYhuI0HAIQAACagkgh9QHAWpHAKVDAAIQiAIB5FAUeoE6QAACEIghAeQQcggCEIAABNQTQA7FMAShyRCAAASiQAA5pD4IiMI4oA4QgAAE1BJADqnlT+kQgAAEYksAOYQcggAEIAAB9QSQQ7ENRGg4BCAAAbUEkEPqgwC1I4DSIQABCESBAHIoCr1AHSAAAQjEkAByCDkEAQhAAALqCSCHYhiC0GQIQAACUSCAHFIfBERhHFAHCEAAAmoJIIfU8qd0CEAAArElgBxCDkEAAhCAgHoCyKHYBiI0HAIQgIBaAsgh9UGA2hFA6RCAAASiQAA5FIVeoA4QgAAEYkgAOYQcggAEIAAB9QSQQzEMQWgyBCAAgSgQQA6pDwKiMA6oAwQgAAG1BJBDavlTOgQgAIHYEkAOIYcgAAEIQEA9AeRQbAMRGg4BCEBALQHkkPogQO0IoHQIQAACUSCAHIpCL1AHCEAAAjEkgBxSKYcG72zkiqXkTyrrEMNBH/Mmi1GXuTMccw40P2oEIi2HvrqfKZZyC9NRg0Z9WprAdLJYyhXT4+0ECRCAQLgE6pdDwzPZUk77xpb5yd4fVPpNrt/Fji9oTSsrWoSb3FYzYyaH+vT2bsyc6GtpB7bNb+zeiXS2WMq9ng37++KQQ73DMyul3GZ6fN82q01XQiAoAvXb6rZq1riKMa/gqmImh3pOaPIvc2e4pwKT2P7pq9mlfGPMpl0OCQdaSE7sD+obx3MgAAGTQP1yaOjqYiG77veT1wXSwvRepUazfhdbxYNWc8Ama+8vsZJDItzP3A5zUmLf8PiddOa1YgXu7eharqiRQ+2dbZ/NLhVL2ceKv6e1IOKe1iZQv61GDgUzQvZNJzdLuZVwDenhf80mXhbKvmdUGjZUwahGDnW2tR+7+roxMoy3YxCIHYH65VA5ZPr3trh69bNyNzToev0uFjlUxTfU4rd6R+fWS7ns/cHeMPu9DmkaQBtr4RCBexyzQ3p99CuFudPM2oU5OCPQ9REf5PXbauRQEF3cdypRyBVDn8av4lj5vmgE7LNDunXSfVw2McqsXRBDHYMPAYtAWHJo70/pXLEUhS9t/S62itWuIwSPz+zQvkvLuWIpdSHkWf46+iI+ttUrh9r2XU4VS7nFm/sIQSCgjkD9tho5FIAdO3BTswbPL4e9rKOKY1U3DgNgGFjlPXKoff/k81KuuHzxgBXGRanC1AoCzUogJDl0RpsKKC5PRmBDQv0utorVriMEj40c0jeY5Z+MBOYkynzf6uiL+HgUHznU3jmSLOUiMJcbn16gpV4C9dtq5JCX6lavCPuQOFfGxgZnw6s41uAK2iqBKN3vlUOdbeee5IqlpZljUapn6KOFxkIgbAKhyKG9F7SpgOy9M2HXvpbn1+9iq1htbwgurixMt/UeGZlJZzb1PVT5QmZhdsT5RsdHDh3QF23b9rDqpW/MfNW5c/By4qWWiU77ya4mpoZ8pst3D2mbZ0SJxVJOK/T++OAeE9TX9wqaJb1xxLyi/XJY2z2Sc8sVfXlb/slZfXnb1qrh8mQ6kGxi1FFozZT0T+05OnE/uaJVXvxkV9IzE0M7zYLE0+RfJaUKa991N6MlwNjz9cxyVt/nlhw3bXrfwLlZq7jNjeTM2IBnmV/PobGrCxviszrq2ZEDIrOI1l9GY/VpUp+EVN7rJhDZKHN49ByaSKzoDX89e1T+1af0Q57VbvYRWCxlV9JXRw/6yiHhYkk35xiiEjUXG0Ogflu9DTlUq2XzfD3b2g+OL+gWaUWuATbvsX/v/Cy/zrOaTTv1SORWGXCMwyPa7pFiySVX9OVtpcSYbgG2Vg1pqYxSdAu2/uiUo1DLWh6derIkkydlXj6Z/MJjc9o7ew6NXny4armhzY2lhzdP2ayTcKmmMRe/VNhE1ChL6LHediZFm1UXa9js+ZNszM8+FG569eqgyXaPnZtw35bzkqiFi5cOZWPp4eWjvX5yqH0skddXnssPNubrSSkQaG0CYcghsWsoKpO59btYYbvLGmthB30s403NWeYLSwvp5MKqYeOyj07ZomrTyhuD7MDYnB71Zu6cMW2l4a2n9DSvK8vJx+mUiIy1tWcH7aOz58TskiG9NrRCH6el3yokf5J3ntZd7OJN+0KIvfpKtlyxMHfaNN+dRmCxMC1EV+3VsFdJ/D5wY1VLzTdhe3i7+fzqlNp6h6++NIRQ5qXWrqSUhdnH08b6rsPTc4/Tyee6H8pv/H/2vu81qmvt//0HcuFF8CKXufMughcNvKTQA54Lj8L50pYiXpxKwbeHUqWc19AeVPpFy1eaQ6URrMohpmA9ilVLo2KJ1jKktBmxOilhEhrsUE2GYDIEZq7m4staz/q91t6zJ7Mne5L5gMjOnr33WuuznvU8z2etZz2r8Jg/9v2XtidhVkAY+M943Wx7/NZn0/Sdaqk4O/14oURJQeycbzs+fMiSC9XqleUXrEpFzotWX3DMDcPp0x6yYf59ZVClkRPiMT6aU/xWitm+0V9Y2l/GcAyRWHvxtaJh27b37Dw+wT0nRtWoIew7LwtF1jqX+ZDdtQXD70rcAQLtQ6B1Xb1+OtRQwbrD863TOa4l/nj40atSsYhnUtJp2/iEVG3hKzPIYh+PZOOB6EZHkB8/e46MS/JqSFWjP0VTY4+dfOJCW47xkyEsrbi2MGbP8SnVVFklPbwgJwRfqJyiH13n5omFkNSXSKU/nv3qYwmjV6sUNSG3jFSl6tzvjiZsnQ5dOz2t5uykFVD2a43bZekMONlr9v2bZxblc53axv26wGYq3UTbu7g5tgXDA033KX4CAkAgAQLp06Edo2wltzJ9MbB2kaBCqY/h1k3sOulQjWXm0Zby1dEc1/6Fq3r/jEWHKOVxrV7KjZpbOKj0Sq06PX5IQrrrwHW2/lYx5/B2ktNcnZvQVKpn264D58hvVjkt+MRSTRpO1iM8Fpl79qaLTBxG1TZpNUJdfO4xD8R6x7Z2ZLMbo7SLDMzSb/c0mGwC8mKOT1LO3TJiBuibkjPEyhIZ+Bdzqy+nx41Vpm3b3yGCZPbdzkNjfBpYlyXRLlw11uhePcWSVjPrJQ3htu09Pu0hiPz7wonRjgiJx9zvL5Z+e3jamFulXHCslI/Vut+uA+MiT/c7ogskbr9+855m4K99NPGCTTn7dGjbUVZ5d4XQ7rJQ58aCjNeBQBMItK6r10uH6o0VrDU8KeVxvfLHT9aCf9o6jYew1qf/rVdgKPKi4iwOEIdRcxlJqxHqmots068bPiA29LOcZmNKEe089FWR8xlz2Z+nqazUXubOKWu1vYetwHO1s/rLaa2LtjcwrIa2aYsm5NTO1oQt06HfX8ytvpg4Y7Zd6uGn13R8gbAU1dwZ2bMSt8kROXFp2DiPDm1/7y4jcs4KIVQxEAACrSCQOh2ifX7VyeiZnlaqu453WzexDbQ22R7TBRfWyF0fE4swxsSbpkM7j371K5tVKk1fNLlQzzZhM7ykFDRx+HJCLscTewmyUAqQU7GLZGK1JuXLAkvfP2Tr77/fk8spf+WmTs8/EQgNqxHqIIru8A6SS4iSDOSjmD3r+xRMsvzTR8pw+n2hfnIvKAihrhmOeIDoott3goFIfCLRpl3IqdKhiu1D9Ih9PvXCVW04OSwylyPRzkjc3iInxqS+hCrvYt3jFtQueiFHCs8AgdYQaF1Xr5sONdZspFvYMay73ru6wOYUln75zF4YEaV729xdzR85Nrf3ODqN7xKpTI/KwciXBZZ/mqCdfnKCib6vpq6SViPUWWIl3z0ZnLSll3ySYg3+eKgieMm4hLa1kGNgZdNpYFiN6pGhbL8mbJkO1QyGQ/Wnvl62okJ6tm2Xs8aiZ6Nw20EIu6tDYpZN97iBlRQVqGggAASaQyBtOkSTHL/fk1PUzdWmHSO5dRPbQGv7Ljjdka6zbhQ/2M6gHNslHRIx6Dr0y9BuVLpmL+KnXTy9jJofIvZiR7upj1B9pNHawdcl1E4e/iezc58xEyu9YQqdMpqQrBrB7uY2xqSLVLFkKJGlV7XVYLKPSOslOWFDZ8h4nQy8bK/CisyPDBE0nif+SaSOwA+iLaukgtb8VSAqy79PgBjH3pN4eG2XNTHmWametH+Aojp3jPP9e+bErWwjfdanQ/y+sa4lnzdACPYvbgKBdBBoXVc31AC+Mk+q2eTwFEFNq7PnHC6kAoANtSnGjq35m9BppIdVFABNXeVGyJmW3jCFTr34WrIjAUKjagTHdYQS4NrSXzreyTNS6vuh6D6pRsjuVIzZQL8vglXq2SYMZfs1oae9ReX9+xwQ06iReKiekq2mvvaVbQ8FPYov0Pc9Y8Q+QnbKm0yUh+RGIYb7QAAINItAynSIPK2251OWuiZJa1s3sQ20NulBXzMafq2op/ckwbW0xGPQf73mrAvRW7z0gJNq1ypGn0qVqjQ1mVhRYc6C+E9krkRghpe7Jlk1gl4Rr5uJD3WfdC/cTrRREhJlRBiaz/NaGbTEftd80rv27BnVilgKDyfjYW8U/Kb+J7MUgzb9ZPSXT3vMgkwh8QARbR+XARVC7MlAqiq5F0SHYnCjn3wLze8bNRfFBfsUN4FA+gi0rqvXS4cCYm8rWLnXcfkl27PnbZgR6sUbwtZ9qQNjxqYMB1A6jaiOqB5nQfwn0uFi1oYvaJtTkMmq4alE1qERSiBCW7rOOn9MGRpHgVCtVESfDHyI3JRrvC4Qa7sm9LS3qIN/3wOEWvfrNRnQLkYH1TxkSrjeFiIRgxv/yV8d4sX5OjzYp7gJBIBAEgTSpUMdlF9bNb51E8u3vtQLri6W3oCvB+mO6emSVqX70ihK21Ofe8p3fay++PpDx/FlRSTjIcJBH/NWDDgOju6mpSSaTeSmlIIxaL6KX4tj+NQSR9JqSEwMSybWcIxWi65JhlKEIRQFCXA+lOV6CCsx8C4cTOQXiL3w/ARsP6v77xsemEdoezN2rNWe4WyZDnnuAq+5Shfh1lDsSI7BjX7yTSm/H/ALPegkVlYv4yYQaBWB1nV1zwc85YyvbaSsuhojuWYj3fLb7DTLR1Kdu3XccXzZMGmDTqPlBdrMw0KqxFIM1+F0zRe0reGcrBrBcR2hBCK0ZZAORYFPtTIIg0s4ZR/5FSOV1Yom9N5lsuppQk97iyr59z1AIjCnIlS6CNegiGQ/3tc0FPwn0CENSKtKxpcu3AEChECqdEjqOzNrWeZAt25iKZzaW6kXwzIQ+RChGf2ZS6nld31wi3aaLnzl5S1NRodof46aU7RVBtXHiJ2gOrNYC25KZSQe/wib2xMXek9OcqchoLb4Hv0IhR7IQE21lTY1FnyyUl6UiHw3VvYiLBAF6xsRHaGPUIteTigaplvtGc706ZBMhqELtbub36e9tpaTJJ/3nADxOpc0A0z5fAiBQIl4DAi0iEDrurqHchCroF9XhgPRXMkUrKY6MoFn1UqjQgUl0/zN6TSapWKLKrzych8R/whT+OLC3KybrBrBziK94WYBJdoT0KuOsy43Xpqp8GQXiGA5WX8501cPEhWnbtJQOmondU3oaW9Ref++Zz4iMKe+Lt096rTI/pNgXAjMZlI4om89uVnxMl44+OBPIAAEmkAgTTpEOksGNDdRCVs1pPxiCiaWtrcGAyR2kqJUe3h45SM0YzQd2t6zTaYqMlP3cF2c0Fq/M8GSWQdTKVC/WNtbaX/n0y9P56oVebKQnC17OXGS5XJ16F/CagS7kr/rBUYnRIl2oxmV1EXQF/wokYDZ9oXKs2dk+faJaPhA5gZp13u2baddOio7haqS3PlqrLHQtgG3SrRTq26xQQ+QCCdAbEoWZ4wYtVLVYBe0CcrbwtuzkzxCL9E2cWDf7kZ9H/eBQNoIpKCrKU+mcW6bOSj28Q115u5N6ZQbA1Y2imstw1k3hucOGtRWts9mNH9TOk0NzBF2RoIe9bw+pe9GWGYUJz7NqKrZfN8AWb9Sw7mf7RnxCG3prg4JtWbZGoHnXwlPXX8xxWYgLJH3a5WKJjRn91gRAU0oduSaqfzYkzLtmz5NzueHUZjLw6Nid1NTvIafHWf7PnEGhhuJQCzLY62+mcMdIAAEkiKQIh2iBQqd68xXapncScPEimRclaXZMeNI0x17jlM6uIrpkScOmZD0Q9kDeZCFvUk3KQ/ZR+e3RiTaXp09Z83Y8Sxkay/m/mAeuY764Dq98CvbhS+XjIQkJa1GyKSFs4JG2Q+6r/nDX889Zjn3IhJtV6cv6sTlcuPpwpjV2OBgiDLwMi/qr9+8p44TYbbz0OnvFibV0UlUydrLSSOn6o6/XeOBNHaibTFdXS+YedIpKXZtfXRo+44zv7DEVqsLXxnSyJKqn3lYyKk83YKol6Yv6gSvMmO4nV6W8OGAGEuImYxWFNrNCKShq7fLKYnq3Hfm0cmvvTP6Ez+qy839lVSz2fpq34j4mj7SrQnN35RO205TXXPssDXzgAQ+wIsLBTYLplLP8bFsV1VLlKtaQ4qRog2dD/rev9DzXGmYcyhSMYYTbf9hnYtNJMefVNIVltYkgg41qQlzhjxEaEKiGZWln/ShDsHjE3xAojDfRgk/2fkZWg9v297z6tGxx7PqmLg/UxDB6ouv9dkJ21/5+KE48s5EmGMSPrtCwuUDiDtAAAg0RCBFOsQ1o04yE1K1WQzXVExszxvilBu2ArNaXVpm/8T+yKh0q4n3DhnRAvKYc4MRJbXW27brg0HpuLfHgfPvlECQgWGnoxqHWvSIg/9YhLqzPJK8GqoIfcFXKpzlpoRx9uwjO+VxorU6HcNa+EOAP3fXieAXKycVvrVmrnjvg0iRi6JDvDh50K069ZVO0TVm43Z9cJcvx8lT86hKS08f8tOQrMlmcZARO2FJHZn6cjLHT44yhcQzqFFOgF5LlKVPP5VnwBthfq48PH3BjOvq7AQ/NN2No/N3IERC1ylDWwsYqrolEEhHV2+Tscc8IQrpanEKdmjPT1LN5g1PeW6mcci194wQUbqvp3ia0mkyTo/PnuipK7lGzaauRu1Np8mrERAbvnrsLDf53r940aND27ZLWOriGFZSO8xuern4aOWETmItvsypySavVilrQnFkdkgTigPl6ub56UvFnzyt7pmPKMy3be95g2Yq2Tf5Cbaz0n6Zc8dv0ayfcbI2s3Fzdx8yuuvSId5Hpjh5iEE3AgEg0CwC6dEhUgedN7uckonl6wMTs3NLkgXV6ktLL3LXR6wpH9JKUZqR7htaLKDl1ayVNB5JrTUvesffRr76UXrGzAK9LHx/zVrlUHpTmCJ3IYUOQLCWjPgrTVXDk0KeY8M8IKiJmVTufO889PH1XzT4zK78ZK7U6RLfGJ0oij5a+ho8tiIAACAASURBVPUbeYyS78F79kwhQ2tBE7PiMHWWSKpa+u2Xr06ah+ux+MYDZ+5NS2JWEce5+lHm7Mn3xn+Z44fGcms3+9XHrwWOZ/XEJiAeupJ26RHSuONvo18/fSl8wbWXcz8yYaDPOnSIh/910HFhukN1k/1OxJ0thUBqunrb9lc+uDZJXi9liVytlp4+PGetpgrokmo2b3gyDSCWeSUjCjzDS/E0PxPv5DptG+Uosg7tYV+gjY7WkpFRnDnVQoMoWA1vfPFz6hxVEKUtA3Soh4H/5YRSO1w1TU/YayOi0F3vjc+KBZC1l5MjkcKctiaslh5HasKeN2yd+f3FAyIk3pzk8gCJ6npq6atHxyy7HJTG1xwz8TULPQghTNOL35+CkgQCQCBFBNKjQ55WTbGWrXwqRRPbSjW6/F2K93BnMTtVZlrorCAdijTzLRSU6jd3XqRDeGMD3FMtcQt2PfBpFQHo6o5QCLRVZvqiuRLVERVLW2kEJ4Y6vqW0QevF1//T6nDr+JaigUBgQxEAHdpQuLtXAVEQgrPJKm3z1gHwbko6xN0Cd09FB4CJsdldCIAOdcago/2TW9/h3pR0iC9DLU2Pbnmy2hljobs0cJdjDjoEcd8gBCitU+HqW1t6yG1COsQng5eefhk8BXhLd9YGST4wTIgA6FBCoNr+2BvXCmv1SvGbra0TNiEd4okZZCB928VgC85XQucDgUgEQIcioYGuSRsBShTxciJ02mzaZWXVrZuNDu08PvFHaJczDCEQ2HAEQIc6Rw1SRoTSd06umqz0alvK3Wx0iE7jkBvVNnx4do5woiZAoB0IgA61Rc+2o6vwzc2AwGajQ7CpQKBjEAAd2gwqbutYzM1Gh7YO8pBzINCBCIAOQcUAgRQRAB1KEUx8qrsQAB3qQBdhC1cJdGgLdy6aBgSaRQB0qLscjmblA88DASAABDYGAdChjcEZpQABIAAEgICDAOgQ6BAQAAJAAAhkjwDokGOe8ScQAAJAAAhsDAKgQ9k7ARvT0ygFCAABINDJCIAOdXLvoG5AAAgAgS2MAOgQ6BAQAAJAAAhkjwDo0BZ2NdA0IAAEgEAnIwA6lL0T0MnygboBASAABDYGAdChjcEZpQABIAAEgICDAOgQ6BAQAAJAAAhkjwDokGOe8ScQAAJAAAhsDAKgQ9k7ARvT0ygFCAABINDJCIAOdXLvoG5AAAgAgS2MAOgQ6BAQAAJAAAhkjwDo0BZ2NdA0IAAEgEAnIwA6lL0T0MnygboBASAABDYGAdChjcEZpQABIAAEgICDAOgQ6BAQAAJAAAhkjwDokGOe8ScQAAJAAAhsDAKgQ9k7ARvT0ygFCAABINDJCIAOdXLvoG5AAAgAgS2MgKBD//2nv+AfEAACQAAIAAEgAASAABAAAkCg2xD4r//+0196+/q36r+t3bqt2mtoFxAAAt2GAHR1t/U42gsEgAAQ6BAExOpQh9SmHdWAiW0HqvgmEAACQCBdBKCr08UTXwMCQAAIAIGECIAObdllsYQSgMeAABAAAp2AAOhQJ/QC6gAEgAAQ6EIEQIdAh4AAEAACQCB7BECHutAFQZOBABAAAp2AAOhQ9k5AJ8gB6gAEgAAQyBYB0KFs8UfpQAAIAIGuRQB0CHQICAABIAAEskcAdKhrHRE0HAgAASCQLQKgQ9k7AdlKAEoHAkAACHQCAqBDndALqAMQAAJAoAsRAB0CHQICQAAIAIHsEQAd6kIXBE0GAkAACHQCAqBD2TsBnSAHqAMQAAJAIFsEQIeyxR+lAwEgAAS6FgHQIdAhIAAEgAAQyB4B0KGudUTQcCAABIBAtgiADmXvBGQrASgdCAABINAJCIAOdUIvoA5AAAgAgS5EAHQIdAgIAAEgAASyRwB0qAtdEDQZCAABINAJCIAOZe8EdIIcoA5AAAgAgWwRAB3KFn+UDgSAABDoWgRAh0CHgAAQAAJAIHsEQIe61hFBw4EAEAAC2SIAOpS9E5CtBKB0IAAEgEAnIAA61Am9gDoAASAABLoQAdAh0CEgAASAABDIHgHQoS50QdBkIAAEgEAnIAA6lL0T0AlygDoAASAABLJFAHQoW/xROhAAAkCgaxEAHQIdAgJAAAgAgewRAB3qWkcEDQcCQAAIZIsA6FD2TkC2EoDSgQAQAAKdgADoUCf0AuoABIAAEOhCBECHMqBDFwr1Sm3lzj910f6d9cjieLFSq1cKV9bzbp+uDF4HAkAACGw8AqBDG4/5hpU48I8bUwtVZqFq9fxFmBsgAASAQGchkBodGjh0/mZhpbzGlF1lrVoqTI4cGtowVRtTUOsmdvj+Cilx/T9rYO7C8J6YcmN+8smPfyfm9cifNiUdevtCoVpZLV44oAbG0MGzk/nnwnBWVlfytz59XbG1N2/PMIO6ePPv6nnv4s0b/JlnVz+5kl+tV57nhtXrmV2cvFmqV2rV/Nj+yO7LrG4egKgJEMgCgdZ1tTG49rz7r9tTC9Ik1eqV1WppLn/19OGBLJpmVKwtw21o+ModZX9r9XJ5cerysaFGLW341qkprocfnY+p//Ef2DPlqc9jnuk9wFVxrV5eKObnVqbG2gKCqMA/cyVOurS95n+W7p90aug6LU9uH9dmSNcw4WPOx/Fn1yAwNPqIGfcHn2iZ6Zq2b6kmp0OHBk5IBfT8Wf5Jcb5MpGjxzonsGVHrJlbQobVqeVn8k3q2mh9/ex1y75Mf/846Ptu7CenQ8L0VmyQMDd9bJHhLc8xwEsEuF65IRrR/fJZJ1/zdo1EQ7b3+jH1h9sbevv6Bs4VyrV665xrCqHfbdr95OvTmyQv3i6VSJ3C5LaXy2tbFQKlVBFrX1aJzD1yaIhvE5+ZIb0ulXS/P3j4yuN6qbuSobKKsK3nu8Ze5/Z2Rc0mG2gy2N8Fbn+TLDMPCaCRinz9YbuwLEq2av3dsI7joGI+SMOw1CcDMt8fMsT9wIjdPs7cMtGelVe60WBNzDLSEj5lf7pjro6fuFuaXixcaseKOqXBQSjv+Jk2/libfBc5xCLRHGptQko0FKRU6dPIOtz0zt5SyGxIUopy9M9e6iaW2WHNLg/uHbz1jdqK2ePP9xig76sYnP/4d55VEf246OnSAL/XM3pBUp7+XJvZWi+NqaVFOK+bHxbrK3v9wthOpfQ7zdZh6fpyo+H6O7bOroWm/RKjGjfCmu76JEgmKDhhBTdQ5K6xQ7pZAoHVdzWRVaoxKuTh+Yr/hf+9591+TM+T1lnLDkf597KDeyFHZRFlXHszePrJb13zg0A22MF6rT53VN72BnOStTznbqU99ETGzebbAeGYDNXXsznM3PtyrTEw9m/yJ20HLXgdGBzkt1fxltVrI4xR4tPle/XzCx5qsof5+W18kugs61FaQ+9+9yyZwZ/6DuI94nNsjjU0oyfjqsV/ToEPDfGloOX/KGuQ0abRyZ7hxJdqoGXkLW/x+gA6xlg6N/MyCBEr3rDmnJGX55Me/k+Q77jObjA4N8SlDc4lZrPw4pnfgC25xS5MHScAGaVxFENH3J+ed6Uw+wVme+txwjDKWSbfjrIEj65bqOE9UYrAauAkENgqBNOjQ21fnGA0oF24cDBKewZPcNV/vivFGjsrWyoowW1K9RPSp/xbdqTy6FNKfFCYUt1bPNQ+RCmu7bPs00sBlNl82cz3OPRVzak6jBi9NsfUiHYmd8LH2taW1L7fHAY2QnNaq2kAsO/jjR9n0a9zy6eZtWro1b480tqYkHblKgw6FK7ShGtBplfln6ybWtxDi+7Qo33zqAp/8+HfMJiS93lx0iFiNIjl9/b10Z60w4irc89xKPbv6Jo1PYYOD8380VVOxgt35etGmU1jhYZWuhsLXgEAHIdC6rqbg2Mpy/lSQC5Fi8WdMXIUTjclGjsrWyiKzNf/t4aTmg4MQeIvgqhUv+JB6/CGirA11BqgJ+fHoTuwb4gY3sHQ2wjaBKCqV8LGYgrL9qT0OaPLB0g1PysnWCMnPVgA6qvT2SGNrStLptTToUN/5KbYub8cjURzUqu/abnQPtW5iI+kQ7ZiSdCjqMf++T378O04/eX/uOXK5MF+W+Qb4xtmBCDo0cOjzqz8vithotqV4Zf7n26dUNFqfXJNxwiooCsKkK339vZTJQASqcflmYRJUGR57XauXFgrj/4iIrDD0I9XWmsM7zePUZ29405D7+Yxv9cFpITxivSgQocGnamr6ScLt4LdsOVuGz0VKoOqFoU8mZ1hAfL3y5JJE3kvwcPe8O/28+9i4jXP+P3rPkvq4/GB/b9TzNMKd3cBWY/ccGcvpbBO1evl58c6Yu3NauQUDhy5NsWCVeqU0ecToAl0T3AQCHYBA67radmejRrrQeEoh+CqahoZ1P3ZUqrEmBnVkSqEoYmDfjy0r2bClVbKIJfTIvg6+RUo1oD+FHp67bUSXOZhTu4RpENu3TFW2+xjbIUkRjCIJk5+jSBua43ef0W7SmNx0ui8im0mhK8/GPYJH+05lWoiEj8kY78KV3kFuAqj3l5/dOUuReHuO35JtZEmYbh83whp5b9rGZa1aWsiPiLk/B0/55+D+YW4CRPIqMrs6txO5njbstZioOYWwXZPIhByNDBBtOXOchz4Rx+4EcNK+MiMkxK7D6kreM7XKmIYstYSIej/CKQpstKZBx9w5y58pPy/eFP1of5l9PyKJwuDhU7cM94ynFjtldWgjAHnlVTNfP6OTS5We3KCw2IFDlx4syCxf5cUHF1XYJ9VT9enbI3eV+K3kRYaVoYMX82KTPxOe/Kh2COl1uxeSyKTATTqlrNU3eBarBtI49L7roHo9rtqyR2uAnExYYHpKpm6JHP5+P4o7qdCh/tfHi2wjzfP86Pt7evuG9h659IC5X+vMNJBM3Uc2yXm9dRNrGUUDYlt19kc95t9XUq6q6t9RP4Uu3r7wRMhcaaGoclfMzPIkBJKe0Yuvf1EQaXZWV2aeFPWe0TWd6MJpCL0ocgrV1JoMA5w4jFyWETI6zjPvscwHT56VhB/wbLzRXh3uuFixlBTkID9u9S95OcaEH60XmYF2/HnSaMv540Y3sebw+9LIWV824RW98AUPt6MxJsB8e/QR1ztrVauZpUmds07tWOC7mfOU0sroC7eLY57/+5UHT4r5WSqReq2Y/+GKjBU8eVPmq6Xez0udWH6iEk6wNgq34DLNVnDT2JqyMLHCNRBIHYGWdTU53zrYKaqGjsbzVTS9aN2PHZVirN3i+dPWVuYLhqatrRgphWzao9WUfT+2rKhGifuD+/f/3ysP5qqVWnX+25Pe1FKE9ot9i6aTKDmNUbpYPIndNXH4wg/aLpRmmbVSqmzgxOQ8ESGBmEzC5HoOwtCM8lkt4lSGLXBbdOFJo31Kgzz1aFAZ0iQg6e2Ej0n7UpnNsTjM5cX8k+IMTT/VqlNnhbFmhqOwKNiLlexUbrReqxpi0yCwkOSNpfBlZlcVp9769Cqz9Yt8e3N1nl0X809uu2ZRi5805TyPESXk0GZF5zHiUA8mMUCCScqADv6iyArrJCEkyVdrjwlMbV9/tKV2hSFAe6jVPk0SdOg2OVdkW1VWktL90FAKJlFQeVyUt8CEXHVNf28iAFlDqJlT95l3bclPafLdf06yRCC2sNl5a6lPC3cK1coa9yKk2zD/7dFhvt+JpXlUPttq8YImbOuQSbn1jsoq0Pw7MfB4aeT1ZPsP2cBRY6T85IoxyRLSAA9j3SQt255IRP+UDh3q7et//WxeuMLkR66tPPhiPVnXDG3bRDNi3mrZxEbwnEEaxtojt2yngbh/3/WMpdybJxHFtOhdsgrP8yOacgwdvChpj+GC94o4h5Upa+Zgz/G7XFGuFkZoeuzvnABY5oHvoOXcRs2h9vb1c1qi1l6kHJuZDwYPi9j9+LyrfXxzrR0X5wOlQKCfzMAPYmvlHz5Vz/T29VPK1xCh4lV1J6tcAaN+mS9V1QQMfVwCntOzeoOHxwuMkc5/KxLcUX2s1EmDh0fORK4ONXxeZJWwOoXvWHvEyi0vTOrK9PWz9R+ezkTVR9Gh+dJieSHXIVnvzc7CNRBwEGhZV/NhbmsVpwjxpx3nHKV5AvfJZ3JHpbAR5dVq6dElY9H47ZEpPqmh877YtEebidD9iLLCLeqjL4gFgfJCflyvFbiKzvhCsreEI/tsXDtM/b3iPAPlyDYsxfAIWWg0TdNU5+9+aiQEV4bMXNciZ2hxflXNbceURU6kXhgpL6/k718x80xEqFb+TcKcLEUM/uZjig6xHWtqQko6lKvVssmH5SyYXiEhbNeKo8aS0dDw+VMxJ0n09Q/fLcppfoJi6OAtnmHIihInAx2zKKRgpIFTLa8u3vxEHx8y8I/blHrEXLoZSWaA5AymjhMRG7HW7MQb5HvIBcYkplbxBN9SG4Itm+bTHhp0/n3q09VquVwwl0peP5PnE8qmQIqPh5IoyK2Jlh7Yc+RW7qrYRT+UEEDZzHplzZhPkfJTXg0Jm+XhUO/zg0bkKqhYt1irls0ZB7mdUvtX65BJCu0p5YyknUMHz57X88V9UdJ45cGc7Z/sPj/FYnPMWS3+bjmkAWIGqdauUhga3UmHDg19InJWcrpZFPMKq4s3t1Cibe1kD+5/91+389z7NNRfBGuSk/T69RD58QlSYGCLvqSFEX9wUmYC6xhWUkmhnNQiXERO7NEqtiF/XMhm7uVYWgKtYfmUj86ZQfJdfXBaqzxWbRoYz3OxcVm8FbZXEXA+pPgGfqLleGshiJIg+cj095KvoGseHh68F1hEmZ0xU+5c0uSTv05UUyogelcbOVlz1Y9OFzd8PmyzyXgE90F5gBBoFUV6vSqpuuECCHQCAunQIVurhNtFRlTOHAXUCx8sgfsR1leMtUDRpJTUrFmI9rCyQvcjygq3qI/WYdj0qog9W2PkodHqUMK3HHvBFGA4zUBYyQRaJ1acnGQG/HVxkJGe6hKOnTnXEwECq9joz1WxvlFYLC3L0J3VZ1dVCHcMsOZP5rXTLucn+rNm00WR8qdumn41S6UzMNG70o7EtKvBT+TCWhIY5YD65k8grNK3qrJEL/NTK9jN5AaI1tm088DXEpfzd9juLO1p0DqtjJlPZGo1T3Attd+u/qZXh8xlHNnpnkBSQTRlbOWgF3DN3dbJcuVHBKTJARSOYt2Z8xWqZs1czOnvpZVMKx5SumfWaUhy+qNgrr30U2BO5ckVUcl1yCTRS93dfl8kl8Z+miw2VoCFfAY0gDMSHbSb/DMNOiR2pi7e8ecVvCz+apht2EXLJlbwHBH3bMQpOudXBGwn7wz/vuMZy+FtT55FdSRtWJKzKRaM7oRHaMFaflZsNJIDgCoptRI1+dnVN3nUuGIRJHla4rmM+nOxNDL9+7JoXmf+rnRHqBU+UKp1TvX4fRrYys+QNCxsV4b4aUUN5smIoigQROnE7gpXPMeC4BXfFNNabm5frRScTm/4fJAOOUE+Ch8DEB1/SKA1DBG0P6IrjPtAYIMRaFlXR2gkS/NwCW/P6pD2cY0Sbd0VIAYc5ND9Fiz90PtXaLl45j9NxGjEvCXshXKL+2g/ZyAbQUhm/Na520Gtt6jhekKNnCErbNt63kDbvz/wfz4X0cXKe44Bln4i85rwMbU65Bpl2eoTllJ1Y8LVKtn9S+8aC0R+Q9w7g/uHv7hx9X6BEeDlqgjDa4kOhewjWXPpAzRhgIgNyhcpTxLL78rzxEojS/GWkh0lM7XSX1IZLyx4XZRcp0g+7N93pU4+2dffG3S6eG1triJzb0Rlpe/rbwJAQYdUMI6sD9Xc3WJNwmb2IB81Cn85RoSTc9mewra3weuV2+QyKQOR8pdP7pWLUXZf0Cg2ayhb1Nc/9P7nFy5PPmBhn9Wy3Eno0aGQBogZpLLJdjV0of791umQTLV5y1W7RJRtcYmril+5VO60bGIlHVLHupUX8z/nLlgnWrB2RXnz/n3HM5bD26BDJPEG9dKxp/ynsI/rjvDweBComnpfKXTh9HMWxJU7r7yoGM3nGevm/PuW/qX+jZN72af8GZsO0feduTR63pstYAXRUrWCgp6RetaVNI55eCjKKsmIZNt6ieklqy90JEZFzccMHrs6K2cilxenbn1uxMywyrid3uj5IB2yXatgG7X2FA87iq95HaHwwQUQaCsCLevquAkgs+bklChV46toejhwP8L60pOG/dZj0/6IdJH/qR/gZYXuR5RlNiTuWkxTNpnNKOotkUROeiS0FuE5WxH18VtHd+TXXKXkWK4oQ+NgGP2nqLycKqIZ+oDlknNqZJgSPmZYT7v5fqt5DbmZVrLHNhqcyYsDYWv1UsHPJBFoF9sSTNt0WW4kWg3jAfBWo5IYYvp4DMLWR0iYY42sMkDEDYTzwFkQ/4lokvA0+HKQoqkBtydkapUxdSy1K0Ua7YrtabBucp0lIx+G/53ASCS/1wlFiZdqVp9mAPR8BqqYX3N2n4o2PZxwnxIdcjUVNdBAqXmZHDpynY7irFfWqnayLkPGlL+kQB48eZNtdJRRvsts4yVtvTMqGW4L68dA11Bx6/m/dTpEFshw5VU7Y7SJeqb9Fy2b2EieY+u+yMdsc8g6yfWM/Tuf3OZ7H2kHJP2fv0DBxJ4y1dVwx0m0DCkx0nMMvB9pSYd3nAgk5VMg/Jrm88xI8ajv8/u+3Ft9zZ8xhh9rBU3ZygUr3a4+WtvxZIwstzDJYp3dim43SmyCDjmeCqFKCRLEnlSzX6z9qUPDV+4UZLIXO1jU7/Tevv6Y54PjXCjTCIYjipBGgh42dMp6FITRC3gdCLQXgZZ1tZidlTHAUbWVk7gyl6avoknsA/cjrG/MWBMfEcfTRbjIKQTL+Y2VZTV39F/UW2Lek1xhmrpKPNcpv6lVK90J5HbjyDuWxfnTb2njO1w31qUyjLRQ9tJNwsekT+aYs2CfSkfcpEOsyZSLjNKZ1uqlR5cio62U7V5dfDBmzsT7KEXW39Pq/rsKUusjJMwzyQwQTTqQI8Hi9kXACHck6Jp7FxqKxKY2aEy9RvEmuE6RbJd/36ME+oP0k16ulBvn3FCUeKlmRTcFYLiZfs2Zn0NFp0aHmpZJ8rUoUaQg6k4qF0uQJLb7ReKKJ7dPsTRsonc8dRotnxEKWX2qqYvW6RC5oZ6rqsJMrekKKYuy2U3VdX0Pt2xiI3mOUx9h9u7r3fP0gH/fl3L/jvNx/SdxBk1jNKQiAFQrZRmJa+5/lciL4Acd+Ubxmmz+hmsxuX7dxz/CVor4hQ6W6O+lvXGB/g3Kva4nbwt/xtQvcQLDiw5E3+nEnSLlayCkjcrlyiLwBatW4V6gGOgASbPe1R3U19+7++gobaE2Es2HPy6USOD5IB0SXkg4TQUpRNVxQm6lBxBdWykSVhNwEwhsOAKt62qhB8q54XDABh8FNI1i7KnzVTSNhcD9COtLT4ZmzQX1yo/RAKRB6pvL0P2IshKPU1chJHsx+i199AKl3vZbEaVk/NaR6lYrCfaL1HDta0Y7Q0lFlCbUVGgflb5yR84cKWRot63cAprwsTTokGjI0N4TInvB/K3IA6OO3GMzbnrjO70bmH1OYogJef5kcK2P+kJa6qYMkDiWgzkPfLJVOhv8I6zrxYXa3JLY1MYZU0ckwuQhenXIjXhk+Dg7C1RkijftEivVvGJNARhuZrhFNMRSpUPNyKQaQfxiz7tfUP6J6tQZNbSD0shveo6ZzMNhvxtwNeXQC/7kSEKCP1unQyQBgXOpX7/OU51Eeqiqqe29aN3EBoxiCFnFRuxNJuLQBj0F4q8Fhe7Y4mVARFEKzilPrD7iOHZjXVjGMd4V2c+Mb+7nI61uRL7193JlVLr/OUsNp9avxYl1xQtn2KFAtr3nohwQxKDcG01gteWj19W/hJWbm0G4OKFNtzT/VHl0aZQfn2c1x+ojTqikTjdwsGoV1j6UQCmYvcAqwvqUnK3RHkP44/oLnscQdIZkKMuo7+1JH0LlgSC5BR2K6m7c7zQEWtfVbNzxHMdmkhurmbs/pQdmruvo7uSqOzhJoSZ9K/4Wajp/T2+yF365ma6TVY/GtbONO6gBtMZwFI73p1w8j06v7L2iamKlqFGPUSTI4s1/8Uyk2kaoB6IuPOUmQ50rIa1OisvIABRlaKKK8+6/eSXPZqx1qgMVaG0Za4qpM1R9wseEVOiJSKpAoNWsr7k7a/oDlnz2yX3t7td0o8h2O4pduFuWOU5iiOmz9KRreXv7RH4mvQzYjAHqFQcNCedBW2cu2MLTMH2AxKa2kTHVWIltPxYs6rwgK++U6MRoz8ogP4EkCtSJJLpBqRa93AyA4WZuNB1iYCoN6chqzJ+e2xySxqCKGyQ9o9ZyY2beO44O9e8d44cO1VYe6MOqhg6elezwrL1nK7k2T+nJ1k2s16/GYDMrSdMztZUHOqXEnuP8TJ5KzUov40u5fydazgSTsVMt64IMOiRlpRaRaNs6/aC/l4xBaXHeri2fGqnOsGNw9MoDr16UlQrJvQkUv+anQzgf7N9LQ93MIS4ySzpBurILSIGWF1nstTfHoDEc5id2ydkpfd+uVUQvyMyYs7etbK2Dh0fuP3sgJn0Pj1y2N8IOUrJIbYDtjzd+Xiy+GSacV1ssLtu9rxJtV82TB0huHasZ1XbcBwKZI9C6rmZNULloF3L8HDypK/r2vPtFjhIHu2QpseqOGJViJZYd9WOmjZbUi+0gl6qGpocr5bxOlC8f0xtExcOkSLUOieqgI9fzd744aqSr7h84dJ4f/Vc3WR8/bKQ68x8xO5bwLbNQSrE1X2IH3LmrE7KB5vPyOkQM3uRnNDmI9clE29YpKFGGRvWseXHpjjynkkpXqRTKj86rXugVBGnlwRnFisXBKVb2qoSPkVfnEphQq3069MmVcXsf8uu3GLyagXjA0upQZfaGCqgb+iQnthJZfj9VwMg25H1KdhBJWr1iTLJxXQAAIABJREFU5ZgeOniZXLtnV3VW1SYMkFpFmWcn45lh9rxic89mrLy1xjEScaaW9bVtTM3e96/5TGitPnNZnVKq2hWkQ84hFtKzWs6fklOQND8b7qCwVO85cit/VUSKNgFguJkbQIeal8mDZ2/YynZo5Ge2I8jgkEFpJMEzMonLI0wqtWR0SOTvbqwkpaj7EqLvtL46xNYlxOkKtKtvWaeGmL8XOrsqckzqaiWpesJnWjexSelQn/Cb+bEwbHvJ/HK9svrsAT/B05wN8qXcvxPXOmnv5Slsz1hm1bXFO/fFcpz5rsg0z7qGH8VVWBR6M5D0T8R1uFZZrEeZS0bUU1FWikTcXLcN9Cwt7NjLTUyWxAmzdITZHO3DiTnPV2SAZZiHQ8hY0VSWOyPryWFkL8jE/IzW8nNvxSmrtbodA1MXCV7nVijPj3l2m/1xUg1xz/f2yabxc83m5+SRr4Mn75TEvkPnqDhnuIEOmQMB152PQOu6mtqozkthO3RlChy1W7f0s3k0EKmmpKo7alTSWJu5z6ddSNNKJVAp2ZF7IpMY33BcEMcOlufyPBGcXkzmDYnQAJ7iotKlOSjOl8XW5PkfziuPWa5XazWe7C1bdVM2f7bvOSoLgv28qCqpO6d1/QMnxPkcFefgWuOIcI5DlKEJlkXWR6hWdYxmeWHSiZ9UlpErbXGAuMuT++QR8zX6YMRjrdAh8m5X6eheeRBtwDobjVUOAJc0amPpfo6xC4sOiYP42NZ2tj29cMGTHKkTCGF+ZKe0cfP8KJGKeUANvZ7YALGPEzI1Rjw0F+0TmZQrNTs+he2hEqu70aaW4WAbUwOZUANFEtdavcI3APNt+isPpjxniapKZ+laJ6hy50qfGUNuUsT8bJ8p1eah7YbwJwYw3MwNoEPNy6RQJqT6nnCPlAFuqT6aTLGlUR7PRVJH3ulq8c7PzPEzZnJjNEBSJSlFPU5aUqFDjNYfPH17akF4gUwvLxSunlZ0PK4GSWrZyjOtm1jqaZPPRNfn7ZG7RXHsA+vg/Ogh0d/m676U+3eii+Bg7j42/rMkNmvVUmGSnbMZHidiv75IxFmrl8uL+bvnnbxnVJzImu9GSoh4SLMJ/PkoGSWD1IAOiVP8rM1IJCd7jlwuSF1cLz8vxp8nKOJ6azFzYJQEovH8QVwvDB42e9aT8P3D1wvKC+G/Fm/qxVLWLvvjjZ9nCB84f0cmXSnP3j6odD3tu5VOD3eDAqcuktwaOiXLYdhAnlXTcNHFCLSuq7WYDe4fHsvln8sExHw+aP5JTNquRKo7alSqsTY0fCP/XCZKWl0Ja9oD528WlK1cmf/h0kFxqLfhM5EYRGkAW0gGDn1+9Wd53BBngKW5vLPm0Ns3NHyPr+rcEqtDyd5ylIaYx6kE9LbzpPlnmA6xIByn5qsrMz/csBbhWUujDI1ZhLo+Onpfm2BGhp8X74wdM5fOlJAMDd+YYgsXfHYp+ozXxo+1Qofev3SnsKKSC7NZywACqnXiYuAfRs3Li1PsgKkQSoPHxp/IBpbzI7bYKBw0wjzkQUyYci8ubHyTGSD+fTp3y1wl4E2gbULWkpFsYwNTyx6zjal8MbJ1Q45HcfWTPQFnSXXibgaa8JeUc6U+TgEpsfLvSHW57GWaTQZguJlhN4+GmOl0heRBQGcyDY6eajs1s3mZ3HvC8P+jnMywNBqKl9A+4G97DrdFCHAyJWlIe6TApEWHIgtIUom2PpOmiVVDAhcpIBBMVdkGQaJo3VCQelsFDx8HAkCgKQQ2r65WdKip9uJhINAZCMS6mynY+jaY9dRr5VCCiO/TdjK9Dyrisc7o1s0AeycBCDoEickOgY0gKrTVKnJpG2oLCACBDkEAdKhDOgLV6DIEQIdkXJ+7AczxjiKTKHSZwDiwbJE/QYe2SEduztFIkYR+QpvUOmXgbKHMM0OYgcubE6vUMEHzgUBnIgA61Jn9glptdQRAhxLRobgkCp20yrHVxbVdvhDoULuQhUQmQoC2TsbvHF23oqEtp/Z+vkS1WneJeBEIAIH1IgA6BO0EBLJAAHQoER3KomvgoG4cAqBDG4c1xhIQAAJAAAhEIQA6FIUM7gOBdiIAOgQ6BE+4H3QIQgAEgAAQAALZIwA61E6XN/v+Res6FQHQIdAh6AfQofXGdXSqXoNMAwEgAAQ2JQKblw7BHAABIAAEgMCmRgCrQ5vSb9jUMofKAwEgAAR8BECHfExwBwgAASAABDYAAdAh0CEgAASAABDIHgHQoQ0w+SgCCAABIAAEfARAh7J3AvxewR0gAASAQLchADrUbT2O9gIBIAAEOgQB0CHQISAABIAAEMgeAdChDnELUA0gAASAQLchADqUvRPQbTKH9gIBIAAEfARAh3xMcAcIAAEgAAQ2AAHQIdAhIAAEgAAQyB4B0KENMPkoAggAASAABHwEQIeydwL8XsEdIAAEgEC3IQA61G09jvYCASAABDoEAdAh0CEgAASAABDIHgHQoQ5xC1ANIAAEgEC3IQA6lL0T0G0yh/YCASAABHwEQId8THAHCAABIAAENgAB0CHQISAABIAAEMgeAdChDTD5KAIIAAEgAAR8BECHsncC/F7BHSAABIBAtyEAOtRtPY72AgEgAAQ6BAHQoc1Kh4bvr1Rq9fx44/q/fmYy/7xeqdUrtcWbw42f7xDRRDWAABDoKgRAh7Zwdw/848bUQpWboXr+IszQBiEA2LfwmELT0kUAdKhJrfT+5DzjFfWpL4bS7Ylmv+bRof0XnjBjM3/3pPmpgRO5Eq9waa6YX3h285/9e8eK5Vq9Upoc7muy7XgeCAABINA2BFKlQ3ve/dftqYWV8hrNBNUrq9XSXP7q6cMDbau/qXg3+Hpo+Mqdgm5subw4dfnYUKOWNnzr1BQnMI/OxzTn+A/smfLU5zHP9B64kl9lHVFeKObnVqbGNsr07P705kK1dN+yiaqeA4fO31SgrVVLT24fPxCoWMLH1Gc76CIr2BsJXgdBhKoCAYkA6FBA/cWMVVL9bIqrcCVbs5qMDu2/OseMUP7iHtUo0CEFBS6AABDoHARSo0MHLk2VJQtaq5aX2T9al2Ae+eztI4PNqX0N0ZsnL9wvlkq5jZhLaqKsK3k+51V+/iz/pDjzXDS2XLjyurT0ugn6ToK3PsmzubO1wmgkYp8/WK5XatUHn8RBSrRq/t6xDTSaQwfP5mY4BwvSoYETuXmiygy0ZyX+ZGW1eMFmRAkfC8EbB8jGPB+Efe8Jxpzn74Up4sZUrMtLQRd0pgCADjWlsz5lqn95cZ7Z2mfjbzb1bsoPe3Qo+H0yeMUL2gQGH8NNIAAEgEDGCKRDh+SMeKVcHD+x3/C/97z7r0nyjyul3HCkfx8Lwj/5Ynt5Q+hQE2VdeTB7+8huXfOBQzdoNWbqrL7puSBJ3uImLyYa4myB8cwGgBy7w6K1V+78M6YyKf40tPfEjamSJsAhOnTyDjPi1fxltVr49oUCf6VwZa82lwkfS7HyKX4qDDt5DiFMUiwan4pDAF3g6aI4uDbsYdChJrph4Auu+h9dGuEhBPN3j25YP/kFgQ75mOAOEAACmxeBNOjQ27QeXi7cOBgkPIMnuWteL61vdrwJitKEZQl3WWtlrc/l8t+iO5VHlwxiqZo2NPqIrcI1MoVEKjaKDo0XxUpguXDnZ7bD1nf99/7nGXvGadTgpSm2XrR48++igQkfC3ef5lQKrg2+CMPud3Gn1n+D4dq44tAFnSlyoEPJx8DQhQJT/Wy+jUIISpPvZqfyaEQ1SqWA1aHk/YsngQAQyBKB1unQwNkCC+5azp8KciFS17T/My4ALBqE1ihKc05Aa2WRgZj/9nBThQbeEttlixd8SD3+EFFW2C+PeDga/ITWdrxYfl68+cXRob7+CL/TMOX2N0c4u5u5vp/XLeFjLVfYrkN6sIRhj8CkY1uxBSuGLkhPyNMUD9ChxGi+eWOGDC1TXqRoQgHTZMMKV3oHj43/vFii6OTlZ3fO0qL8nuO3iiJMea1aKtw+bkQ49Er1zUjObuN19uTkyCEreQONKJMO2XdEXLiKmGcXhStMClUNLS08dPDsZF4GnVdWV/J3z9vTq/yDLChiz/G7z2iDcnSCIPWw/dnABl/1ZPCz9uuBWkmgKPK7Vmc1/48TFb3nyOUCj2/k2wn8OihABg+P3DV7Z3LEjiMnG3nwtLVFm5ne02Q+SZYS1NlCPrEE4i0gsKURaJ0O2e5s1MjaPz7LVEF+XGjUKO/Euk9agm/R0UpVBolp3dtAb4c9VGlQ5PpJbFnJPAlaJVu8+X4UCMH7wbeO3ixZcKkKiHCJudtGdJnzWWovV7wKOgka+87uY2wvltLezNLlLgzrna68rHgb4ZRo/Wn1oB47tN/p2bhH8PZeZ6tGMi1EwscMk7ouo9/bZ5uMtWppIT8SH4o/uH94LJd/XlWZQkoLhXGNWxj2r3k2Wi29lGPJzDNhSm+tbn+TAavkfODQpSlKV1uaPKKBtcAnOQmk6xg3w2qGXHtaXpy69bnte7SKMJ/IZoOLZ9kVUZSlJzcovnTg0KUHC2wVkf0rLz64qOInZXMIFiWlAR9DPimhsNJv1Orl8uKDs8xJIADjuyDBiOhXLbIKWluZ/1k0Sg1SXCRHAHTIleMo7A5+u8gU5Q+f0gPv3uV/+ul0yJLN5lhIxvIi39hKxqA6dfZtSv7GkrwVFoUie26FoQt1c4vn4VlbmS8U9S7P2sqdE5oRKcWkKmzf+fTqk2L+ySKbK61V59l1MX+LV155/3Lo9va9PfqIq4O1Kqvbk2eCxVnZ54RNGuU40Hg2yZiqBr8QD4/f4yjxDb55qXHsDb4xn01QK7VPQBbBUCXWR60bPHmTsrsSmBL28hMjQFwAcpvFjq9VGebysUrZmWaWVarVzV3LRjCGfCAOyaQiZ0OKt4DAFkegZTpEXqAOdooaQbbXG7WGYN//+5UHT4r5WdKTKzOkUX+4cpDrmcR6Oxkdii0rqlHi/uD+/f/3yoO5KlP7354MRbiFpCj2LbJ9ldkbNu0Riycz/zEng5yPH77wgzYopVluhiRoAycm58nFFJauKCetqvnxt41mxtgIpzj3T+oXQz/zBwb5zKbJypQppK1QZEESPqZmGNdp9IeoksL0iKQOkhiritkX6hVur4sz4iAN9VYY9rNjee2QkMV8UnwwJtYPdXeUmd+SF1nRq/kx3b9Czi+fn1LcIAijqO3Q8LfkgTCawb/Jh4820NJcSnuan5PZEZ3dfa25VUQepu6znLqW91WafPefkyyjhu2qmU1WSRErUT6G3TW9ff0qnS/LoyhTm5AQHkzYBQ1GhKRDl3k6kFWujgpy8t1LB2IMJXeA4CcTAdChhPJBM2TGctDfecZtP+KCxm2tbjj9Ut+tVssmpZGuvLnbldRNebVaenTJmCB5e2SK6xEjPE8oJuPcIf9Obx83JDU7lYJHh94lhvM8p5eqBg+P832l89+qiRyySYvzqyv5xilc+cNr1fLq4s1P9FTfwD9u01ZmI0155GeT1CqQOWfw8MgZtTo0NPKITQVZGwl2f8o3D1SnzkpuKbusYiKw+/wUy5hUl4ETTE6G7/FeKBdGjZW6oeHbd64fo0GVpM7m8MM1EAACCoGW6RCpncKI56CoIsTFGN9eIt0y0pyu0yyncq37pCs8FzCx3k5Gh6j+EWW5bRGNtRYEygt5Y60gxsYle+vN2ywywskeROEStVAQnYt/qNWD5FJX5+9+aiQEHzp4scBPhjDXtSJtRAQUur3hno0Bln4qTTKWm/Ax9eT6jD5hu1YcNeJEhobPn5L7l4JtHL5btK3w0MFbtBvKTIkegj0o1X39vbI7jNwS/UOf8MQhq4URuYxGeM6XFssLOSdcxa+nyGHr+ACHzj+4e4keFubStqe9PDc6s9qPzmsyT32xPoT7iDzUK2vGhLL0vsqrIVeNBICLcSMfQwubRCCQzrd397GR0zpsNSyWsgsSjAjRovKqPXwGj12d5WtfzqY4dzz6dcYdhgDoUDI5oM1ClhUUERfu3JgYt3beuUGu0L09nWJU3BPOtF5LtQqiGlKGH83H6F1zfca/k4wOnef7R59ddQLDKGRc6wXRBIMgxUAnHs6P64klUhZic6qeaIz6bKJa6d1cwQFPlNXbSCBTYkjLIbvMQYCmkCtPeIRhX3+vMP8eULroRHWWSjMGPfwEBLoRgXToUEB5emDSkE+bDoUSrDl6O+yhusFypFKokkmaw56nBQG2si2Dsdm8lXYotZoy0Uj4VsDYhdMMhEsJtFqsOIX8NnGQkQzEkFasnsz0mK2z1/dU3WKANX8yr9W7dOH8RH86dDGh0ad3tZ216t+EsSBaZUlLAHblY1gkv69fBL9MfW4LjEiVoWZsyceoGAQpuoZS8k/LaUcHwz4ylybvlW2XplYn720FYUmHVGgP1Vm0Za14wYxLpCVBYwa5gY/hNkrtpIhbo6aig13gpvfg3/dGhCR4VhZEjp4PXaCGEmf8ZCMAOpRIMkgcnfw5nmfPP0Xj1g2nlorphFXcwGU2o2OOCjFODIKk1A39pBYr6M8U6NBpfrJE4BglipxWK0vEW55dNXWHLUyqqtKAqXeNVpO6Wc6fEu9GfDZZreT0kpNRVxRHfMaEV9TQsRxRBolOsJWGaoASFoXst/hssjobKBmwRCKJZ4BAtyCQDh1ay2x1qNRYb0tD4KacDt0nvWQ5uEklYej9K3Ty0sx/zKizBq/HvCW0n57GElPgylGOVWt+6+j16oPToSpRw5/n5KaUCBuRQGcG/c7Gyz5kvmPwp5+UlXf+FBWTrY43+mpN4P6ld40Folg8OWiD+4e/uHH1foER4GW5iciSFlkBW9hCmFB3qFg73SmODaV35d4q/VigtoSJEc/iPkPmUmFo9aaIw8yr43pbQVjQIU/YyKDP3rAZIIGmXZd4H8NtFGuFjElZyI2+r0NjzCeju8CrJMFCzdcjQtAhjY9Gb4hvjIz4jn4stu+69THQoQRiIfLn2PtBaeMd+9+e3iDBlfOOcgyEFVMvH5Cmv07jxCQ58gvuRJf/pH8nTEucGqq0pLpFZkuVXuA2ydK2MdDFPEy2rdFnE9ZKrQ6zLBfuFkwCxNm2qP9UbXEAUbqA7svH6GuKjqp+0RcJ66y+jwsgAAQMBFqmQ2Lve8Mpm6CTZ+phGtQ05K37tk5QYz+ke4V6tD8SYQhEbh7bH40oSxXa4EIm0GscOmh0QW/UW8IIyukwmlHSs1oxtkDNl5utIxzk18wKsGtuI/THY6xJfLmu0RSIUdSAVOwWjHJKi91M+JgKlluv0X/9TF4cCFurhzJJBNr4+hcFsb+XZQ+q8o2sfJeO1aiwsNkCSR+nJ027b12rIUDvzlyOWvAxqsqtYRxxin1AFCRS/MnAxfUirBIPWH1N9jr8TeWf9PfG+hjWB5UYHzj/gGcfYc7G8+KdsWNGOCiDKLoLEo4IokPmgNLI03JW0IcM11ZVu+svQIe0GEXJioitkqeb0xnn4n+eOM5aNQr71mHFtB46JCcgaUSZQu/faYIOyY2VbL+j9e/2cTFImrJJMQ/zn/RidMSTpKoa14p1H+WuETxndfGmTDhBgNB2RrtR1o7eiFR7UgVLA0Nfi7MEzdQ5SthwHwh0LQIt06Ekm/vZ9K0TAENDW/l8Cv/A/QiKQk+a2tj9iNDbEYagHXRIfXO4sY1TtdVhe+5bIm6K5oOcxELG68Gy/FbTnUBuN/4pxyg4fwaLCN8M9CAzZ44N0u/a8RoJH5OWIuxYez4rNxOusA0ePnWrMM93q7KAkUeXXo/xTUkIVxcfjJ3cK3f1iEZJa8Vh9GFnLQ1hQk/KlEuWA8BspUq3ECPnrgwEm2k2KvYBKkhb29bcqpboEK9zlI/htlo3kDLmiSx2lXJh1NiMEN0FCUdEAjqkFtZ0lbScR1e7q58BHWrY/YGwaSVMgikt5yVnaFUzCi2gJkW0KLvLx75i8u+E9b6jWSiXjtoho0t0kGnKJvGH9fSe8SkqXS/7Rnw2aa2ML+8+OkoJJ1ZFtAzZ7GAEi+pBduEAohCg+9LAqOhq6131cF9/7zrqbL6OayDQ3Qi0TIf6hUIu54a1m2ioCIKXFkCM/Q8h74S9Fbhv6wSlCujJ0NKxo7fDHqomIWZcU0RZqtBGF1RW3B6G0Bei3yL9xoKHKbGQ5+hHSq/f6sM8eXdESA81XEYphxx9r08jig70IHuSSl+5Y4ex9fb1U6J2GQGY8LEoC+K3mlc7jgYM7T0hsg3N39I7751uOsIz+rgnSgXWssIVCGEiW+pyYBdnejdI+51KCmsYjoXjnyVxCj/gTlhE2OhwA/1Z5tbpkGid52O4rfbkcOD/nBTpDRZuUxbKsGIRMplwRBAdCj4sMWnUlQ1r3oUPgA65A94VAtIyzi5JLfQUnmHIJany9U4UkbqpzN12J4cOuLl9fMXk30lEh2jvnZ8iT7eRIIrgLe5jxsO16gN3G+UQ5WkxNjVGfDZprZzuk7qAvIqEp+WGu0waOUmHhEaOAWqddXaagD+BQJci0DodYryCJx02EnvaYIrEkvWZ63pTDa0JVNz9k+K8HWsiP4KiJNbbFNmvjzwS5oYYWs0mGBFluRYqrIH7RdibOVUX9aR5n2oSfouM3eLNf/GsqjHbQswPsmtbLfNf6aSK4MZxAtOIuYiwEW4pdkfzX+lTVg8apZedzAEUEGhoeHWchrW9xHusRWfd6VAljc599WcwGup1fmKSncwjAHuEL94f3B2tSlQXIR8jADt7XmSSsLcSmF0mwi9DD7x5Jb9Wrxgd0SLCqdEhVv8wqgqiwIWXniEols2MCLF3yBXgvv4BivYMj9+InjI7pbuvQYcaiIiQUddS6rdIj2i1HvatI4aQN1FE44QdGWGmH5Um3JR+XzH5dxLRIbXzb/Y2nUomxvPg4ZH7zx7oJdembBJ/mB1qZuakHjp4mSX+r9TM5GxRn5X7EeNqdXjksr39dJCyY6u0ftKhmbKPlN19bPxJ8aaaiA13mUeH+vbTsVHlhUmdkZyF6t1+cItSeyeps5acgN7sbmUEQLocgTToUL86J6TsbmXe8+4XOUr075IlMee18kCfCrDnuDyz0namSbMpDSOGc3K9TYvMlXJe6xCp3isOHRIxXW5ZvpAcuZ6/88VRc3/CwKHzDzgtNFnfMDsrrzrzH3F2QsK3zOKE01xip8m5qxNxuitk/t7kZ+s5lq5PJtpeNfN9RdmIxrqU+sXuQf4WOdy1lQdnFCt+m507x9qlzpbo7034WNiChFrd1++uXXxyZfzEfpNuvX7LOuHQxJ+uaXWoMntDzZmyjNh04LuavGPdEVcB9xQpScgfiPPiBbZDwzfyhclh2bkhHyOyF4LnUjDJvCeStQYfUIm2S/fUgRnSFq93lrkFOtTQx/Cb/+mFy2YQY3/vgdvzbG+zEUPEHT+3C5oYEYIOVWorU8ahsQOHbuT5eVDmqPflB3eiEAAd8qXZvEPJIuvGOTnmr/yaVKFaPmpFM8rwjJn7lO+fn64VcTCZr5j8O8noUH/voJhSZVHL/OCw/II4Dc1IXdKUTaKHC3e4gaFvxh+xpxSultTGtSJ1L05EVSe4le4bhw/K4wUq4lzU4sxzCudduaNWk8NdJlWwaWAGT96RWyTlMaxsy6k2t43r7MmPtDS64bgDBLoSgXToUF+/Ot+M7SeUez5VDpXSz+aRbjQexUQGO+2EK0C2i2P12QN+OLUe3axTROx0ZY0p5/k54SmS7k2it+UBL6xi6sTn8lyeJ4KzV4ciyvIVBZWuVNx8WexYmP/hvPKYpXNcr8hVnWRv2fqK1ttpSitRilF6PeyXD5zgh0iyPrIPHF9bNA8cb0OwHKvV6+M0N0fmQ5w87vLkhI+FLUi41S4dIs94lRCQB9HGn6SpjBo/f5MsWul+jp0NZVqrKDokcjHX2bmihcWZu4J1KEAqdKynOBC2XtGR7SJ8NFGwHBss4tx5NqzMo101qzEekIec0jgtP7liiK60xfrFOLlyERaZ5ZzBJXipdWg7qzP1mkqlkMDHcHU1d37WqsqV4i2yTxaO6ILEI0LsHaKDZa0jbmt1Fzq3evaIxq8GAqBDscJB2t9ctDWwk2ZJLEGIA4ha0YySDuXH+9msjHDc65XVlfxde33DeFJWI6iq+MjUeQt4Y4M1HDw8crcoDqzgPkRpoXD19GFj1moddCg3zJeYxMQVUxAF73DA2M82qNX+4esFZfuZN7BQvGlPbjFwdh8b/1mexcHz8LjZe4KAqD1FloHp76U9r9LhqKyuzP98+5RxKmtvgzrHyltAuvA8EOgWBNKiQ2zUD+4fHsvln8sExGzgr8w/yV0YDqe+7e1721SApYX86CFxfLZNh/p7D5y/Myf4RnlW7AdQU1EN9Tar24HzNwtivokxgR8uHRyMcJ1DZSmFry4GDn1+1VRxbOon76w59PYNDd/jqzq3xOpHsrcc2RPeoTux3UBxRbSur9+tw+rKzA83rCAF9uVYGxFbNPWL24PylaHhG1ML/GRtLh72waa64Y0fC1uQiFY7ISHvX7pTWCnzSX3mN4cR0JWhTh/4h1Hz8uIUO2DKRymiAn39r5/JzVDahrXqzHW9SYlaWqaFplq9vLySv3/F7A4l50r2Gl3sOcKHoZiMWKu6xrfPeyBoxFtBuCU6lMzHkBLF0Tg6er9YWhYqgk9SBM5EjuqCZCNC0KE7/xw6eDY3UxZpAMtcEsxV4ka948pVlz8POtRZAtG8uums+svh5KvmzqwnagUEgECnIJAmHbIclLY3cKvo7bYDJQ0ECgICQGD9CITD/zZW6W29sQw6tH6JbIc0bBWzCjrUWXLVDlnFN4FAugiADqWLJ74GBIDAlkQAdKgd3Qo61FluK+hQO6Qc3wQCQKDzEQAd6vw+Qg2BABDIHAHQoXZ0AejJRcn/AAAgAElEQVQQ6FA7EMDqUDtQxTeBwFZGAHSoHTYe3wQCQGCLIQA61I4OBR3qLPcCq0PtkHJ8EwgAgc5HAHSo8/sINQQCQCBzBECH2tEFoEOgQ+1AAKtD7UAV3wQCWxkB0KF22Hh8EwgAgS2GAOhQOzoUdGgruxftkBh8EwgAASDQDgQ2Lx1qBxr4JhAAAkAACGwYAqBDoENAAAgAASCQPQKgQxtm+FEQEAACQAAImAiADmXvBJj9gWsgAASAQHciADrUnf2OVgMBIAAEMkcAdAh0CAgAASAABLJHAHQoc4cAFQACQAAIdCcCoEPZOwHdKXloNRAAAkDARAB0yEQD10AACAABILBhCIAOgQ4BASAABIBA9giADm2Y4UdBQAAIAAEgYCIAOpS9E2D2B66BABAAAt2JAOhQd/Y7Wg0EgAAQyBwB0CHQISAABIAAEMgeAdChzB0CVAAIAAEg0J0IgA5l7wR0p+Sh1UAACAABEwHQIRMNXAMBIAAEgMCGIQA6BDoEBIAAEAAC2SMAOrRhhh8FAQEgAASAgIkA6FD2ToDZH7gGAkAACHQnAqBD3dnvaDUQAAJAIHMEBB367z/9Bf+AABAAAkAACAABIAAEgAAQAALdhsB//fef/tKzbftW/be1W7dVew3tAgJAoNsQgK7uth5He4EAEAACHYKAWB3qkNq0oxowse1AFd8EAkAACKSLAHR1unjia0AACAABIJAQAdChLbssllAC8BgQAAJAoBMQAB3qhF5AHYAAEAACXYgA6BDoEBAAAkAACGSPAOhQF7ogaDIQAAJAoBMQAB3K3gnoBDlAHYAAEAAC2SIAOpQt/igdCAABINC1CIAOgQ4BASAABIBA9giADnWtI4KGAwEgAASyRQB0KHsnIFsJQOlAAAgAgU5AAHSoE3oBdQACQAAIdCECoEOgQ0AACAABIJA9AqBDXeiCoMlAAAgAgU5AAHQoeyegE+QAdQACQAAIZIsA6FC2+KN0IAAEgEDXIgA6BDoEBIAAEAAC2SMAOtS1jggaDgSAABDIFgHQoeydgGwlAKUDASAABDoBAdChTugF1AEIAAEg0IUIgA6BDgEBIAAEgED2CIAOdaELgiYDASAABDoBAdCh7J2ATpAD1AEIAAEgkC0CoEPZ4o/SgQAQAAJdiwDoEOgQEAACQAAIZI8A6FDXOiJoOBAAAkAgWwRAh7J3ArKVAJQOBIAAEOgEBECHOqEXUAcgAASAQBciADoEOgQEgAAQAALZIwA61IUuCJoMBIAAEOgEBECHsncCOkEOUAcgAASAQLYIgA5liz9KBwJAAAh0LQKgQ6BDQAAIAAEgkD0CoENd64ig4UAACACBbBEAHcreCchWAlA6EAACQKATEAAd6oReQB2AABAAAl2IAOgQ6FC3IPDBdy8rtfr0v7ulvR2vzr6crtUrtdlz29AjmwYBGkSl7463Q7pAhxqhenxiqV6pvZz4300jMI1ahIYAASAABDoCgdTo0I6/jX799OXSWr1Sq1fWqqXH33z0Rqe0MC2NvGPP8XPfzZaWq6yN/N/S0ovp775879WOaGlazRTf2Xno4+u/zC3Jxq5VS0/vnf7brkal7Dpw8pvcb1ISavWlP2a/PnNoh3J5931TYNC9+PqdaND2XePPLHy1L/oZ9cHEF6BDjfouTbQTlNUUHdrFu+/lxIcNJXCDW9EJxf313GM2Tucm2sJSzK606NDO4xN/1Curs+dSGqcp0KH/fViq1StLDz+IUAvnnjLVvWnnRECHOmG4oQ5AAAhsQQTSoUP7Rn9hRoj5vgvTjxdKq5wtrM6e6wBGlIKJZZZ11we3FpYkC6qsVpeWq0vUTEb/XkyOvGU6DU1d//nDLyeevpy723ZXpmfb9nf+373cb9Uk3gD5PZXVl3NPZ6efvhB9Wmvkj5I7slYt/TY7/XhWsanSd8clI/rr2K9MPOYmDkeh9OerC4xt/nrtzxE+TdSL8fdBh+Lx2fBfm6BDf744u1Srl9o6RvbxyY7fIz3pDccnub3JiA5t297zP/fmavWlx1+mMlRT0NWgQ6nqzA6W+eSjA08CASAABBojkAYdeuNagS0KvTQowVuncywwqVL8Zl/W2jkFE7uNZqbrlVq18N3Fd4y1ILZe9OMLvlJUnf73OhmRNeHaZriST45+MDE7aa7qbHvtIx5sVvn93oGYSv7vvenvRw/s1JL3ysd8vtZYDvrzZc52fr/3Tvg7h77+nWZwU14HAB3qMOcmMR3aOTK5zKf8DblKvy2NPOn0SwzLvx47HViir6z4nerkyRRGawq6ulEnJleAHQh+zzasDnX06OhImQFiQAAIJEIgBTpEBtKb7O8Uxd26id1x8ie+LvRy4uPXgvpu37/Z1PW6g0Z8DyNYSio3W/IGdlIMW7ObPXbRcpBektpJfvCLr/8nJKN8vrmy9stnafu+hLOuxiZ0RlORgY75SFI6tI+vFhYu/7W9NW/kSbe39E0ijQFlRaGtacx8ta6rexp1YksKMPs+6hSrirEABIAAENhiCLROh2guP7C588Attmwyd+tQtpC1bGIP02JF4WrM4s+uz6YbBIDFgBDwMNpmd1vzBrj/uvbL6SarR4XmzijyI+AKbsh+Z4Kvtk2PxiC2vp9Ah9aHW9veSkiHuAvYvNQ1Xe1GnnTTH2xymGyK7weV1Wmm/SJmN5oBoWVdvR10aFNIESoJBIAAEOg0BFqnQzRfFVox+PcsiyJ7/GW2bW7VxL7DguMryz99HG/XP+YrSHoLb9Q0nnWffAsea8d3W/G9SZIkcGeRfXDXgTP3pv+QKQ2WXuTGj75iVSbKrbTuEydxympqqUSskk1flLuAFL2JvaBIJ3u1Z8foL6wmGi71BSKf1cmT6o578dH3fNe4Q7Opm1ynmQdZyaI1HXrDTPvxsvCdFd0nxPXVo2M/vihRapBavfTbL2MfWGuD6mtWEpHVl9MTo40DRMnzfvplz7bX3hv/ZY5li2L/3LQTspd3/G3kqx/V9q0629D14zcfG2kt1o0Jb6xVh4ovYKq2Ow999iMPgq29+PoD2S+NgCI8X/ngmk6wsfZy7sdr74lFwpDqkA1n7/LSl3Ijol/4T02C/9p7Fx/qEcRxnrhoDCJqoNoZSBcB4ZRN3qbG5msfTSxQ/pjpc+rXRnjyJiQChFQokxP1cX7h3VeAqCfVnR1/u5j7gwvY7/fek9+xhDYqS8rOQ6cnZuWmQS6cI2/RZ6WOkrU6w4aze1OWparU8KJVXS2lJaRYRFX9+SB+h03nUY8IDclHganowg3ftj10nwRAamwG7zU7tYOt0rnSMAOMCahAH71hmY+GeOIBIAAEgAAQSIhAWnTo5cSH0jQqK+jZ7IR1SvexFk3sjnG+0aXxYgX3vGsqGVqU3bLuH7j40/Tj2QI5KywLBUs/MHmR1tOEyzV2l62W8BwVs9O/kTNaX3r6peFzW7THQM+6/9F1nttgmbvdPM/B9OPZrz72ek11n3HxyhtHP74+y7jB0i+fJU+P8epb7/2/b6Z5ZtjcqLO2NppjTKM66VSAHNPlnz4ySjdaxGtLsYvFb8zd2yL7Qs3mUdKPJ7dGOIjXv5xerVeWXzC0fxMui7MXfMeH9+YoT8aS+Vh1+qKO14r5Wun7EdORcuuvnLan31BCMEo7UZCM10g7wdqr8pRUVl8WmITIVCVrL3SatfVi0rPz+NcEwprImUHOvQWIgPHa6Wnp4clUv0mAYk2gaFJGgAlPLsa/LrCJhkaJtmmRefqiJahNgK8ayDgtGwJ6ED2Wg+idLycfz07/ymu1RiDPTn//ZfQeOTE2P+ML4ORAi5kFVVwMniYgNOppXP/2wgUkSoV69wUgRhJ5cWd8NKcyvkiCpySKtIrQP2svvjbTN+88PsG38LE0oUUldS8LRYaSy3yI2dpDMiD2MYOa/9SirmYlkqzKlvp1iKRD43yLI+8OAUitXristRbh6TY8QIfeOveUDxMSJJGExuT8b302TZImgaU5l9/vmZRpx4cP5+g+jfoiz9W5tFBAou1GUuR3Ou4AASAABBoi0Dod2s4jJTwDuU0ERFX8qc2NVWctmliygglC/o6ynLPSTYze82rRIeqeCEPLXa616tLqi6+NPUs73v+mwP2b3Kjau2zRHqPLA/d9b8B43vI42X3yumiynE1hjvhTmKHXqVxa8aiWHt8z1zHU8x/nmNOw9P0pdadn23Za5fB9DvOZnm1EpWbP6c1FPFsd9x7Md8mTLlwVHIZw5s7cKbW89srHP/GkiEbi753kQVanx3V+cJEQYvWX07LQ8NdGfuHbzBQr9iAl4SenbbW6tPTLZ8Yiz74RWRm1q4p2UtVe5s7pyvRse+2jiRd8u5qqz/ow2UUMZ+npNd2zr57iklzNnZECRrX9/cXc6osJM7tGMqAo+ZidamU7W7IQa2KmpxiA69zjQFr2xODLBv527yMzA4osfe6Wkd6wkSdtCCGX8KUXc6svp62lWllcPJ6yT43cM9t3/O0aY+kOP/Roj6iDd58AMRd76c7c7y+Wfnto5ceXpRs7IXcdGOe7H3V2E9mQX795Twq8ljqfDm3j2s9dmw30poFh4NcWdTX7eKNO9BUg3anUzPG+68B1PgtmBAUQnqZ6oba492li4veHBm67DpwZVVTnHaLQfzzUArnz0BhnUFoa5cgqXD2qJ1ZePSVmLrSVCWAYjzB+BQJAAAgAgSACKdChHooTq700EpG99t51mZZ6S9Ah088I4tizbTs3q2oPVYD28BcD912DKuiiIBXT/9YrElS0yMym81AHaA9/MnDf9waimsPuf/wNLVgV/qiKRYPiw9ONV4dOfcWXuaaLL0Uu8tWFCT8ROYmNtRB0iiUQS7AJgRi43ozEJ6eXvn/IVpx04ru/flWsV/R6nQhrqWifj5wJekwfRUIkainnrPAIeq8KpV7zcifKr9mrGS7I5LSF3BoihIolUku9PCXbe7aJfOUqwcB6MFGBoNrlZZiIUEa1IipqaxAkLqIJgYpqgsxQEk+HaGui+0xS8GUIZSAthy9+jTxpoxPF2NT+K43ZZHg2AYhHe0QdvPsEiKmmBEQGgad3qXRvJyQFqcpJgUjc3uJjyp/8Iu3XaBZAaLZIJz5DOuSNd1rtfzkhg0IJz8Z0iLpGjR23yTRtsfCVo0WJo0rdRSOr4oclv0GHtikrE4mkIat4BggAASAABBojkAYd0nmo6+JAHh4HNf0dP4xoS9ChzFaHgqFElOFNz1wGaA83h4H7zdEh05bv/OvHtCKx9NPHtvcca3p3/fkkBZ699FLxEjM04uXExGpsIm9epR3c51D7SfifLNUvT2ghfTIK4JEeRo8Ma/G7khydwjgthhCfCTgcFI+n/CF6K+pr/n0LJfK8/3io9nLoXz/kQTsi7siJwLTGM4Gg9uatAxOnRboOdFSuijii2mp5o2okBIp6WXaKKVG0Ayco4fox/rqqibyfEHxqoJIT3UD2HTkxIf3dhgsLxus0stxGJcOzGUA82iPq4N0nQHw65LWdJMpcWRVCRau19AWKEPbeZU9SQWoUKEz4/cCoUQ8kuciQDqlpDllPkQ9T3Y9tuMEP5eLb9PjxP/t6klTc0y/1mo8Qadkv7E8q2o77FY9JoTXDGsVPlnKQrcBNIAAEgAAQSIRAKnSIaXB7u/8CC6pJaX9ti5q9RRMb61GZEJv2zHC2XLsVsGcRhpa7XJ4jyNFweI7zp6pV4P766RC30yKBnpPGoJE9FqsNBjOhPqUkcsrrIodMxbbF9TtRHQEOZ0HcWSdKMP1vTmy4+JnrKoSz6TJSETb+1EEUthT4XzmCyb6m+sK+IIIRnCmw1ih4D7o8RH6KnlQbNprHhJog9o5TSKT5v5I9KujXa7YPlxComCYE5NPrdF6KqomUtITg02NREsXHguF0WshLkGWJdsV4zSNq1QjPZgDxaI+ohnffB0S0XZB81RzCPCDY5g6oGNzoJzUKFCz8/ualQ4GaO6oytuEGHdq2672rMjJireqkPLHCj82xJq5pFZRGlku2OdT0U6C2qiNwAQSAABAAAutAIC06pMytvqAVfzW7to7KpfJKi3RIzBlbMV26jbqG5Etpjz/KbgXuRxjasMvFSySfRkUQOX+q6gXuOzZe1z/s9qlPyQvyw5rOFhioCSuaZlKFuy/CSMb2ybLiqkRLExTbw1+k6BRa1uDXnFxZfgPhnIwOVeco3s/7Xya6ENPkjb4W0RaSlhg6JBaOOG6e2y16zWUpTWNCgCzJvBoUGKn/V7kEwrUlSW4IVEwTIqTC6ndeiodAsq4UfSTX/dy+4GPByAFDzfTKCo2RcKOS4Rl+l5fiAeLRHlEZ774PiH9HF6HSRXjiTblV6N0gbvRT59KhD/jianQnup3uBjlrIXFUZWzDTTrEv/Dq0XPf8dwzjOdU524dF1MJ1HEya44ea6IjvuEpZGhkLYz5i0tqSdOdZdPVDokrfgUCQAAIAIEGCLSPDlEweiAqY4P1dat0aJs8d2hcZxnymiA2lhh7CQK0h78VuB9haLlvFFwZIL9Nh1p5XpRwKAP3HRvvNaSBuIjZzcjI+KjXeU0CO61pZ0g9d0buVwmEkYS/Sat2bOKfx59I1s0/yEATF2aGOsK5EYGhKuk9A1EQJftauPKCY6uFHYMA2CFwcqdBiCKKJ42+aBYTmrAo3T0a1UZxP0yHEgJFQhjy7RKd6ksZShTzF3gmBF/tbgo1kEai3C2TYBe+8RHeKM/nToZnM4B4tEfUwbvvA+Lf4e+SRLl4Gk1jCL93N5Q+jkspfdanQ1yxGGAaIu18PObPlnX1dplnJbi0sr1nWyD6VBAkj2A4qjKq4VH3eTNfe2eUkqNUcyNcdPmStQpwjYBCZuXxk7WCDq1LriJwjlDOKAIIAIGuRKBddIhS63r7UzNQQK2b2D9f5GmXai91XmNLVmRepmVzU40IPReBW+p5GVk+YVjfCINKbhPbEmNr811eTrYAxdIb4u29GY6Nt7/csHcE61Pb9xO+LoLldO4HXRB58JXpixSGZ6TL08+ES6Hd3k+/PJ2rVuTJQnJvw8uJk2zPsQrDoy8Qzo3okMhuZ0bZBSuQ8GvBdwUdqnk7qreJreoSYUmzJ4wEaEKW/kpdaSHWLCaUTsDNLeEhH6ZDCYGiNau6t3d/+76rPHmXLZ8+XLyZrnebFHwaboZ46O9To8y20x2P5OhX1CjW5w7ZWCXCUwJy2U2REgCENpK5VRJSYSbt9AHx7/CGiAwcltjodsnm0BYXS6Hxn+gMsUBmOeLGDVhWCElZIq9D67papRhxstVT0fvo1AS9hs9K5wJmLSPTw46qFCcuuPM1YrLM54eqsdQR4oF91wq1uqmv1GPmhdDwbjaX7TL7SKC25uu4BgJAAAgAgWYRaAcd2nXgHE+isDp7LjSr3WwVW3w+DRO7i0xapfbS2SC7Y8/xscf8EAmPLNFUcWXpJ51QVaQwNvNxc2+A5npdtkB0iB/1o3MxS+ple9KULaryq06XHM7bK3dCq8Rl0dhenHh87YM9JhOT2QItJ+n417/XK6sLYzIx9GffzY59+Fdzk8krH1BmcJ/X8baTf7D0gh2yEVg+srwlu7bcEVl7MfdHvWL6KNypLfzKXG25ZCQ+EuEgervDJWU1MiWyL7zywbXpp/pskKRf831NtRBRqy9ZCaBf++g7LksmwuSjRyXa/uOhSuDLwWkWE+nM5eyDaF89OvZ4Vp9CQ3XwQ/uSAfVnEm87XzxLXE7HqjSiQ7RSsc6u3PZXOtnJxlml+bYOkuoRqR0WEoRrhleHeuRKcikWTwnIwlfGwb4RgNBiTr2gc74rDcDEXo0IXxr9O/TwjjM8F/yqVTrf/PmwkFMfpBmWemn6os7ALvNBB84dIuhsmqHqlvwiDV2tOEN1zjpe2VioURnk+dhMSId6aK6h9nJSH3sgB6zBDw+cufbZ/5jnNe86/SM7UUBNcIjU9r9+856R+b1n56HT3y1MqnSUoVFvqHTQoRi7gJ+AABAAAutBIBU69OX0WnWJDlgUp87VK6svvv7QdKbXU7nkdjTmyVRMbM+2t05/z45DpX9Ly1X2T51vuLpgHg0kKiPOjqhX1qpzT2enn75YWqsvFX/ix63Y9owoQa1e+WNh+umLwsRx/gVyuX6Z4EdS0AmSc+Kolur0v+3IPeGY1iu0K4COSvz+JzYT6bibNIHNHPHZ6eLLnDLArtcuyJjoVjoEsMaYz1fvG90qzHZdraXQlGpllZ/pqQ4MrVWtAzSsssR0NTuDKDcS04/+T+TwVWp1ewmO4mECU7BRDiLdN+d39bGhzsmnOkAxjb1Dvz5kJ/xYx1zWK+bhqhwotzJPXwgisTp7zknXK+luckx63uCH0rIZazoUclaeBmuEC0bRIfM40Wigera9RZxEnSZMRczdfRiQT0s2uNLgKxWObCTvyp6d8jhReQyrbGB97q7c0SEKlaLIB9FcUVNfT/ai6ND2RHh6gNC4Ln0XAEQcU0PKQRzZ/HIyxxfW1kWHesxEoI7SNvYE6mNA5XmyTOpWZyd+DMXR8T4yR5CHWCL9n5Ku3vXBLX4qF1fXQlcL7m1s45GSlpQObRNnMTEx5tvt5paZPpzkZ6qqtgul5A2HD9RGoJ3H+blezJSoc4HpGAPjrOFdH/DTt5m5MU4uXnr8MGA+ZEPWhzneAgJAAAgAgZ5t21OhQ6e+Uu4y85hfTn/3pTX1lam+TsnEMnP+yv+MfPXji5JiQWvVpT8WJq9HH076xujXT/lp4szdfDn3/cUDO8OBbftGHhbYkTvMKy1cPcRFU7pcfOJQeMBr1dJvv4wZk8pKiHe8fy1HZ9tTF1w/9Uo4kfGu98blHt+1l5MU0R7ooNfeu/hwWh43xDyApRfTExffMWc0t20Xvubai6/k6tArH3w58VQeN8RrMvf4nj1d6jpGYg9Mzci4HaiP+xZruKB27nS+WCszl4z4B5vwoflaUO432Xe1+tKyK9VNfU11k7hQBIOtw8hS1qqlp/esEzMlDgJV4dJRX9jrOfLJZjFh9Xn16Jgp1avV0tOH50wZU7VVpRgXr3zABI/8OSYnHlC8ya+9N/6LJPP1pT9mv2bHuRLlbhhhxU+jsnOZNAf+zkMfX/9lbolN0tMQKxV/Cg6injdGJ4risaVfvzlgNNPuQTk2gw80xJO9ZQOyxFNxhgHZ5UD31ceviS1866RDXiJQPrpznh7b8Tdbff147b1XvaVUjgAP7mp+/HropamrP7g2aVklT6pl6Ynp0HY2KTYxq/R/6befPvubCBxQdOjPH35jDQemNr2huvOQ+R02E/HbL1+dNM9Z9vpo6UWOHfgbNh+2cIZUpWwsngQCQAAIAIEgAqnQoY7Wvyma2CCCbbsZ63LBvG1qBGIJRtskqqPHaUyrKSF7g+0um1oeROUT8sMO68edF+n443da7oJNq6s7rEda7oiYwYifgAAQAAJbEgHQoY61ZKBDHds1LVcMdKgpj43iTs20B029vmke3pR0iK/UVXP2hpz1GUvQofXhhreAABAAAkCgRQRAh1p2bdvlbIEOdWzXtFwx0KEmRw3lBPPT07Wo/jrs9U1Ih/iuxaWnX+5rskODyIMOBWHBTSAABIAAEGg3AqBDLbu2afgBoW4GHerYrmm5YqBDTY+at86xnCJRye5b7pGm69OOEjcbHaKsAKGUHiGF1hgx0KH14Ya3gAAQAAJAoEUEQIcaG+kWIV7v66BDHds1LVcMdKgj6EfL/ZhyKzYbHUq5+Syxz3q1Zad1JeoDBIAAEAACmwkB0KGO7S3QoY7tmpYrBjqUtie9Jdxo0CHQoZZ1C0YWEAACQAAINI8A6BDMDxAAAkAACGSPAFaHtgSrz16QACMQAAJAoFkEQIegu4EAEAACQCB7BECHmrXfeB4IAAEgAARSQQB0KHsnIJWOxEeAABAAApsaAdChTd19qDwQAAJAYPMiADoEOgQEgAAQAALZIwA6tHk9CdQcCAABILCpEQAdyt4J2NQChMoDASAABFJBAHQoFRjxESAABIAAEGgWAdAh0CEgAASAABDIHgHQoWbtN54HAkAACACBVBAAHcreCUilI/ERIAAEgMCmRgB0aFN3HyoPBIAAENi8CIAOgQ4BASAABIBA9giADm1eTwI1BwJAAAhsagRAh7J3Aja1AKHyQAAIAIFUEAAdSgVGfAQIAAEgAASaRQB0CHQICAABIAAEskcAdKhZ+43ngQAQAAJAIBUEQIeydwJS6Uh8BAgAASCwqREAHdrU3YfKAwEgAAQ2LwKCDv33n/6Cf0AACAABIAAEgAAQAAJAAAgAgW5D4L/++09/6e3r36r/tnbrtmqvoV1AAAh0GwLQ1d3W42gvEAACQKBDEBCrQx1Sm3ZUAya2Hajim0AACACBdBGArk4XT3wNCAABIAAEEiIAOrRll8USSgAeAwJAAAh0AgKgQ53QC6gDEAACQKALEQAdAh0CAkAACACB7BEAHepCFwRNBgJAAAh0AgKgQ9k7AZ0gB6gDEAACQCBbBECHssUfpQMBIAAEuhYB0CHQISAABIAAEMgeAdChrnVE0HAgAASAQLYIgA5l7wRkKwEoHQgAASDQCQiADnVCL6AOQAAIAIEuRAB0CHQICAABIAAEskcAdKgLXRA0GQgAASDQCQiADmXvBHSCHKAOQAAIAIFsEQAdyhZ/lA4EgAAQ6FoEQIdAh4AAEAACQCB7BECHutYRQcOBABAAAtkiADqUvROQrQSgdCAABIBAJyAAOtQJvYA6AAEgAAS6EAHQIdAhIAAEgAAQyB4B0KEudEHQZCAABIBAJyAAOpS9E9AJcoA6AAEgAASyRQB0KFv8UToQAAJAoGsRAB0CHQICQAAIAIHsEQAd6lpHBA0HAkAACGSLAOhQ9k5AthKA0oEAEAACnYAA6FAn9ALqAASAABDoQqWMqH0AACAASURBVARAh0CHgAAQAAJAIHsEQIe60AVBk4EAEAACnYAA6FD2TkAnyAHqAASAABDIFgHQoWzxR+lAAAgAga5FAHQIdAgIAAEgAASyRwB0qGsdETQcCAABIJAtAqBD2TsB2UoASgcCQAAIdAICoEOd0AuoAxAAAkCgCxEAHcqSDg3fX6nU6vnxLOvQhULf5U0mqSvdP9nlOKD5nYYA6FCjHjl5p1yv1Fbu/BMmAwgAASAABNJEoA10aPenNxeqkc7W7mPjPy+W1uqVWr2yVi3N5Uf/MdTIBrTU4NZN7IUCq20kaflnrlSrV8q54b6m69lldGiIt3flzon29nhbxal9H987VizX6pXS5DoEqalaWXRo8OSd5/XKavHCm01Lb1OF4mEg0BCB1nV1byNt3ECZN6/DGzYq1QdAh6CmgAAQAAJtQSBdOjR08GxuZpWRhzAdOnAlz3+tLC/mnxTn2UQXn+tqp3/cuoltYEEbGeAYc9hVdIjc/dK9di5KvHnywv1iqbQeahrTTRvzUzZ0qK+/9/3J+Vq9/OTK3k73BduiATemc1FKEgRa19WgQ0lwxjNAAAgAASDgIJAWHRrae+LGVKnK6U0UHdpPvKJ0/9Mh4XjRcsE6l1aclkT92bqJBR2KwraJ+4OfP1jmHT3YTqe2BWraRFs2OW2wVod4W/id6oPTWLVrp3BucrHZgAHSuq4GHdqAbkIRQAAIAIGth0BKdGi8KIhQuXDnZ7YfJrA69EmeYoHetdyCozdLjD5NnW2XI9K6iQUdal3uX7/+rFKrz/xnf+ufivsC6JA1uMJjyqdDvW/emKnVK3O3X0/wehz+eB0ItIBA67oadAjDEwgAASAABNaBQGp0qPy8ePOLo0N9/QFnixtIuj//7WGnlge/XazU6uWpz537af3ZuokFHWq5L3jI+1phpAVXKVEdQIcSIBwcoSOP6pXa4s33wwwqEfgJisZ3gEAMAq3ratChGHjxExAAAkAACEQhkBIdMjyhoLPV27f/6hxtE/L8rdN81Wjudpu2LrRuYpumQ+SUF670Dh4euVss0XaptWqpMDlywGo+YWUlaZDbq0r3Tw5wVHnpLJXQ0PCNqQW28sb+lRenLh+jB6yu3X2MbZ6hEilZRSF3YXiPeub4Dyyg0SWlf2e7RyouXeHhbWuFUR7e1lw1DHlgRXNAXMabGCVe+T1HxnL55zoas/y8eGfsmIy6FEWoWE2JUswmoit5kQBjz/G7z8o8t0f+ouqdoYNnJ3Vxqyv5u+cPemF+A4fO3yys0LssLwjrX2+vMy2cFq6oLhAX/n0FiERPicfAoUtTz3m/lyaPyF8DpR/yot1MCazV2ZzFmbfDI/RsIbyoK4tz64/7QCBtBFrX1eugQwk1W3jUhKf/9hy5XJgvS2XFNMMNOz9Keuol7S7AMAcCQAAIdCcCG0aHyE18Nu75lL3ki68rM1uSPmvdxK6XDt2+UKhW1qrzhWK+sCic5nL+lIGA8ndFQw6cf8C9XmN7Vb+w1pd5/rrnz/JPijPkGbPYs7dNBAZOTM4L6rXCCtXJKqr5cflkiHzu5ZFslVr1wWnFByTBKFyxWFmCaphVomtaAMyPGR+XHKlSaIxS7+DJmwvCtygtsHblJS0sP7ki4rv+fuXBk2J+ltPFtZWZJ/yxH64cjHQXBB0a5YuTRJ8kL3179BF9p1qaK+afPBOJEO2cbwMncvOUIJHnBcnPcV60usgThBiZcH3aQ1Xy70fRocvnpxS/lcPk9S8KLJ8hYziGSKwt3jQz8A6evMMjUXkKR94Q9p2VmblQOOsgB6RtsxK+VOAOEHAQaF1Xr58ONdJsienQ20zts9klroUKi3xyqnhBK6Im1csq/w6pl/KzGSTa1kjaBgX3gQAQAAItILBhdIg7WzXTKihdxn9ylybUr61etG5i10mHavXK89zx3bL+u89PLTP/dea63j9j0SFKeVyrl6bOm1s4qPRKrZq/fFguBw0dvMW24lSW86dU3w+S01ydv6syVfT39g0dvEh+s4qDOj/FnPjiBc3K9o/P1ivcszd3fBGHUbVNWg1VH+PiwhMeiPV3CQX9RN5/Y5SGRh4x96K8MKnB7OtnCyY8M+H8t0e1U0XflJxB3zcqI28SHVqcX13JXzZWmfr63yWCZPbd4OFx7uLosiTaM9eNNbrdn7Kk1ZQsUdESn/ZQZfz7EXRovrRYXsiNmCs/PBccO37kE7XuN3TwssjTLffmSdxmbx/Rfb3n+N1FtoUvsLvvGKt824ahhN2WgUC/4IHuRaB1Xb1eOlRvqGCT0iGabyrljEE3dPDsebU61Ip6kbNCxmwLRhAQAAJAAAikgUDH0KEwU0rBM2jdxK6XDj27aofGiUWYJzpuStOhwWNXZ5nTX3p0yeRCvX20OsT2VkkuRJjwSLbayp1hARGxl8qjS/Zj7FcKkCv/8Cm5pHyXiJG7gi8LlH/IMZpUmpTLKRTc+OyqPI6GQGhYjZDXe5hny/CYsKBDjVCSgXwUs2d9n5JzLOePq5HQLB1icYMGm2LfIbro1oqyUSt8ItE+cJvlJDDPSfRpD9XWvx9BhyqrhRHNZ1iHUg/OXJcrfqL5lJVk8SbRzkjc3uZhq4FkJ7yLdY9bUCuEcQEE2oZA67p63XSooWZLSodoXD86HzF80lYvbeuLiPoLc4NfgQAQAAJbDIGOoUPmQkeqKr51E7tOOqSphTQhJ3jAm3Ff0iERX6FDvwwEqHQv894QW9LRGfmIvdjRbuoj5Gc/z9G2kwFusNVOHv4nS7I8yjbTS2+YQqeMqiarhmypKppd8DhJf8WGamUUIYaWjRJxSFVbe/jJjTqSEzZ0hozXablStldVmCZ3ZYig8TzxTyJ1BH4QbVml9FaHvLbLmtgcqbev/9QUY9QU8jdwma0feu+yDop17DDxHJRh3NwIBFrX1Q01gK/ME2q22FFjTC7Ildv85ZN7vRHam7p6UYoLF0AACAABINACAhtGh2SMll/XN/mEuu8u+0+u607rJta3oIaXLPfYmPX3pvnF83TfeJJMbLnMd6rM3nDWhegtXnrASbVrJbZmqcUcq4Z93PVXhJOojqgGZ0H8J6JJ+XG+HZ9vrJ+/q1dOklUj6DPF0iE/x4CNEkGkYvbsdtHSmUFL7Hedh+0/KVjOy7VAk7s8nIw2FNn/Ex2KQTt9OjRz2UmQQESOovIC/xMdisEt1rELSJqNW7CLcRMIpIBA67p6vXQoIPa2go2fRDDoUN/QkevPKB6VbRz9+fYpM8w1dfWyLpuIEQ0EgAAQAAIOAhtGh/jOBCO4S9eDVgN8tzglRd+6ieVbX+qeVyrNP7ngszd0lBrd8VvkOevkmM4X+K6P1cWbJxzHlxWRjIcIBz2QqYLB6Lj+tJREUVWcplJoB/FSfs3XGSwXIVk1JCZW36VBh1xKIAoStTohy/UQ1mJmVcnHRH6B/BWen4DlbHD/3eaBeYS2F/7HikifDskED7KG1JsqXYRbw+LVT9iTgg6FcAMdipYKBTIuMkCgdV3dO8xX4I0pJ6evXY2RVMEmp0McN8rwSalWatX5b0Wa0N4m1Eso7ZCvXly1lkGvOQjjTyAABIDAZkRgw+iQ3PDg+We0DcNN/Zyelm/dxFINg3FHvX39gWiuJulQfnxo+Fu+wX312dV/uIwoGQ+h/TnGOokJINXHCEujOrMlFx68ISPx+EfYSpG40HtyEjsNoTFATNgjD8lQigWfuIfcLaOy1UU7Q0b1HIoo3Qi+LFYx9ncZr8hn+iS3VzRMo70BdCh6oVVXo//IvVD6OP5AFB3ikmaAaXwtBIJCAxdAIB0EWtfVeu+f3PRoiy4FmlohsskUbJN0SIydPe9+kecZIKtTZzhEqasXDFIgAASAABBIA4GNo0MDX7CDTbyT7+X+77ad/5iCiaUt+2vPxu3UCMzQDpL7a2QmUE554tUhPv3//9t7v9eorv3///0P5CIXkgsvvcudgVwoFAUL9aI9gh+O51sOuWiLfO35IrWEby32TS2CvnmHd74oJ4WcNognAe1bUVs5aSWS1hwGxY4lNqMMiRh0SOOEEDMEZq7m4sv6tX/vmUlmz+w9sx8gkuzsvddaj7X267We68drHVCd1NLm4qRzcUXDOuRvd8VptoGhFNSbnSvfdHDz3HejD8olc7KQmVJ489OIWL7okX8NdhrcnQ/dSZLPurog4rbG5JCOYeDIpJ2EkXkmlpp5ZzNy6C+3RSyEwOQc35vapWNFp7CytFftDXCGUlCTn94sqZ1a1ZKzkfiAqIrzzQ7JSICV6oN/eJWzlQ3xg8rJuiuwu7i+X/UInct7VDWFRLxwlNr1fq5DIGoCEdjq3frrsM5tczbaP8sNdVZAFPWnBi2b2oxX8u4qVP7L/zXZ+tA1+rAt8+INn7MnwLxEXQVOXPwMAQhAID0E2ieHzDqisiM2sdYAa799Y680i9q+R+FidTCu0tripONI073/57wKB1cqzNo98sY7+mZFk+nvfjj6QG4i2lz81qG7GvTWu/7y3WNxqkxIoO3NxW9dw6XSi2+9fv6H6JHb8GWP/Gle7MI3U0ZOSeNaPqc+Epk9vX0/7LNRMxWeFzYqh3b/9dvfawTaLj++Ygcu18sCKy8nXYW1uyaOHIbMDu12xKe2gqQLFXFq9OeXv1hHJynpUnnzy9dW9PM9e0/cllXgjiynQ9VVnzrjpKug2JWdyaE9e7/Oic0Jmy+vO1qjCKr+debpAytuoRbqhd/+aR8gayKGBwXalkAcU4gOVoEAuQiBiAlEYastzVB+/rPz6GTHRM3XrnGERg2sCtVYefOLHd3+3bM/S4vtCFv/0de3xz6xwt+Low5GfxXm6+n/KjO1PfPyYKKueYm4CvjqIQABCKSTQDvl0B775Mq11+KQUHkOT+mPzOf+CDzRiaJIXOyuIX3KjZiB2SyvrYt/epP9Wm7MoV5EM/IN8+u2pa47Jgp8w//mCD+HImrUW+924N1Sx7C+lCcAVktbr3/y7UpSSctAZM7OgZ468E+PNJ6NgA9JzlR4ppsapySm4NRxopWqOob16R8a/vMZsyhfNxg9NqzOQHy+NGsd9+HLVZgckjN+5qBb69RXdYqu4yTZA5/PyOm4SrUkG7PK0louI09DculGfdKIOGHJOjL1zS8P5MlRO5kdEn0sq/pU6o/1aY9V5zI/+3NT7SH3Wpwnu7n4069B6+hkHTkPnvIRo+MFgdYSiMZW7zZrj2VAFGWr9SnYzm08xsU0bNm0kpFnoMlDrtfFkMQv8shm68PRH6Y6O/V3Y4GdPs6cLyeGJMyh0nXNizp4eu33APPCdwoBCEAAAs0TaKsc2iVOz/zm+9wb7Zw23zx1DeC1xNdG5GLl/MDdxedrRgVVqmtrrx/88Hd76N3418Y7+j45JFJRJ36WjCJq2FsLentP/P36r+ocdBlzbPPN03/f/tQ5y2FlUq0A9E2kqDNtXFNG8pFtZcPXLv/nl3VxaKxzM1LjlMTb9p+68EPOhr9VLiw9ds7U2SkOffPTkq6jtfyP5hglf9MKl0NqLujuohaTYu1cubCcuz5ij9TK5A589PXsYyPMSvo4V9/eIUHvwKdXc8/lobGiL/XH4vX/eldvqt6hHJIH7DpTD2mNrs9t683zX0VjUK3O6sApdHL5X/kXGYbBhmm1Fn6AQOsJRGard+858PntX5aMo5FjWIVc5lvXbKq2CduxbB+OOsxCYfnx2Ak9MGF9TX/66scHy3a6a2uvH991TlLJRPefcr6nIfOy9vqBOC060Lz4jRtXIAABCEBgewSil0NJ60tF6GKTVrQOyo/a2lRnu0vr+1utJ9aZ/ZX9/1SH8LrWfHZDdWzPGra+eZCfWgSw1bRACEAAAhCIhQByqJZ7jqVKujPR/d882Kx6N1l1YYe7I+WQnC8qP3DvqejOdtiFTa57LBhyiI8OAhCAAARiIYAc6p7ORCwNqPFEVVinpzc/bPyRDryzA+XQJ7PPK9W13HeBpwB3YBXwRXcqAeQQnxsEIAABCMRCADnUqV2HWJpLc4mqQBFv/HEdmnttomqw0+SQ2thtNqp1UUUkqlWQmYYIIIf4ACEAAQhAIBYCyKGG/HQsdUOiHUig0+QQi8cgkBgCyKEOtHg4UAhAAALdQAA51A21iBNNDAHkEB8UBHZIADmUGDu2wxok/xCAAAQ6lAByCLsPAQhAAALxE0AOdWg3gmxDAAIQ6HQCyKH4OwGd3obIPwQgAIHmCSCHmmfIGyAAAQhAYAcEkEPIIQhAAAIQiJ8AcmgHLpxHIAABCECgeQLIofg7Ac3XIm+AAAQg0OkEkEOdXoPkHwIQgECHEkAOIYcgAAEIQCB+AsihDu1GkG0IQAACnU4AORR/J6DT2xD5hwAEINA8AeRQ8wx5AwQgAAEI7IAAcgg5BAEIQAAC8RNADu3AhfMIBCAAAQg0TwA5FH8noPla5A0QgAAEOp0AcqjTa5D8QwACEOhQAsgh5BAEIAABCMRPADnUod0Isg0BCECg0wkgh+LvBHR6GyL/EIAABJongBxqniFvgAAEIACBHRBADiGHIAABCEAgfgLIoR24cB6BAAQgAIHmCWg59Nbb7/EPAhCAAAQgAAEIQAACEIBA2gj8x1tvv9fT29et/7q7dN1aa5QLAhBIGwFsddpqnPJCAAIQSAgBPTuUkNy0Ihu42FZQ5Z0QgAAEoiWArY6WJ2+DAAQgAIEGCSCHunZarMEWwG0QgAAEkkAAOZSEWiAPEIAABFJIADmEHIIABCAAgfgJIIdS2AWhyBCAAASSQAA5FH8nIAntgDxAAAIQiJcAcihe/qQOAQhAILUEkEPIIQhAAAIQiJ8Acii1HREKDgEIQCBeAsih+DsB8bYAUocABCCQBALIoSTUAnmAAAQgkEICyCHkEAQgAAEIxE8AOZTCLghFhgAEIJAEAsih+DsBSWgH5AECEIBAvASQQ/HyJ3UIQAACqSWAHEIOQQACEIBA/ASQQ6ntiFBwCEAAAvESQA7F3wmItwWQOgQgAIEkEEAOJaEWyAMEIACBFBJADiGHIAABCEAgfgLIoRR2QSgyBCAAgSQQQA7F3wlIQjsgDxCAAATiJYAcipc/qUMAAhBILQHkEHIIAhCAAATiJ4AcSm1HhIJDAAIQiJcAcij+TkC8LYDUIQABCCSBAHIoCbVAHiAAAQikkAByCDkEAQhAAALxE0AOpbALQpEhAAEIJIEAcij+TkAS2gF5gAAEIBAvAeRQvPxJHQIQgEBqCSCHkEMQgAAEIBA/AeRQajsiFBwCEIBAvASQQ/F3AuJtAaQOAQhAIAkEkENJqAXyAAEIQCCFBJBDyKHkEfhsrlCplhamUvhBUmQIpJYAcii1VU/BIQABCMRLoAVy6OCFWy/KhXtn6xSswdt6m+2sN+9ih+9tlCpV17+tcmFhbnz4UJ0yNp35lL4fOUTLgUD6CDRvq3t6B4fO38m82ChuaYtdXMnfunSivw7Muk8dvbYoXrj0w4lwm3z0yjNxT+760fB7mnVnvBkCEIAABFpBIFo5NDh0aS63KVxCTTnU4G3ReI7mXayWQ1vl4rr+Z6RROXv5/VbUStrfiRyq03uL5tNIezMDcsIING+re5Tp2CoXXuSz8/mlYlnZ6sK9s7UUUQNPHb66LF71auZ4GLQjd3Ji1Gz5yhE+TwhAAAIQ6DACUcmhwcNnbmRead8TLocavC1KiM27WCWHXAJv4OjwzeWicH6rtz6OMrf0UAUB5FBYl4vrEOheAs3b6p7PZrL3x4YGbJu875xceVtZvXXcvug1s408deSGVDuhBn/oh1Whlxamaumu7q07L1JKCgEIQKCjCEQkhy7n9YRJ8cn0Q7G0zCUeLCIN3mbdH8UPzbvYADkkMjY48lDIv8Ld03iCiAkgh6Jo+RFXClmCQIsJNG+rg9r8oFrDlr0cLocCyuV/anB8Qa6Xmz4VlMqpW6/EXzNjg0F/3VbS3AwBCEAAAu0mEJkcEku0x07t6+0LEQ+yYJfzDd0W4Jx2zqV5FxtaogkpAtnxH2l9ic4EcihypLwQAokn0LytDpQiSsZkLm3Pifif6h97Ikb9inPDfpIfzyxVqqWtJyP+P3EFAhCAAAQSTyAiOeQoZ6h4cNzTU1s1ue8M9HCNX2zexYaW6Iw3AFr/B6PXHq4W5O4p4Tg3N5Ye3jn3gT1e+MV9MaHk3Y97PNCVjs6uC/960V74cejk5JOlohiDlF55NTN5ep+TlaUiBk5clHN0Yi3fcGgnoP+DsVsLjj3HxdXZS2YTsJrH8ys933UFR4y8Hjx95eFqQe1gFqEmZkYcBbdqvJE7XXJI9TMq+XGbgynRuUdivWKN1fxOOPwMAQgkm0DztjrALwz4DakxIDVoBD41MJER9m1j+jPvG45Pi5VyxcxoQAZqpMKfIAABCEAgGQSQQ17H5vdnYXLo8HWxudZygUfGnojw0FIF5ebz2fllrYu2VqfPGEV0XvbgF+8cdlS/ek+pUp4978iM0TZ6JfrA2Vsv5NasrY2lhXx2YVWFTirOT9mv0o/cGMlam7gCPLcqYL/ScpVqUe45zq3IhX9WPECf7NFYfNe1HLo5ld2sllTerIJXNuyCGwGcbeBOlxzq1fGaspcNQ4NOacvcVSPhzHV/DXIFAhBIPoGI5dDB90/+952sGD/ayIw1HPOm5lMjWWHhi/cvuGGenRaplGfPOQw45ggCEIAABDqHAHKovgMLlkMDbheoJzE2MuPOoK6HvpheFTMYm09G9OTGmBxfdM51yO6+nFRxbrhSG3NNzNZBpXCKCzfsXcIHL0yvCB+cuWR0gpJDr1aXNlen68SW1XFjs+OOWOEHT4+cN2FkfbJHu3/fdQWnuFkuZCfsvPW+P5KR0ckdUzeN3+mWQ306ptOzG7bwEx+YIkkcp/oN2N11434IJJRARHJoKquGpcT/5cL8jHN+PvxbaOwpNZ61/ugLp49X09SBi+ict/EzBCAAAQgklQByqH7PwCuHBo4e14OO1eLC1BFZtWrUcClgl605jMJMYqg77YXsA8INF+/PCZn0amZINxQlV5avqZitajXd+qNz7gVjei17dkz7eCWHnAIptNkpLRcebckne2rLoaD19BfEYj/HiKnC2MidHjnUo9eouJSPKfsEcZzCe3j12zbPQiA5BCKSQxeuicn5fHZxo6jWLW8uT4/WnR1q8CmvWevp7dNLoAOMPx8gBCAAAQh0BgHkUP160v14e8RR794pPrtzUusTuTy9YtSLW4T0K2kxP6W6HepXa4md/LU8e37woliGYd4gNZKljtRqOufcke7BqJMurFFJJYfWH51zZyCou2Omm17MXfzYMUFkPbhNORQYXk9xMxNcJsZGUCA+z51eOWQ6HI51cQoXq1Pqt96g2ucpCCSRQERyyFm0wcPnZ5aEKNqYPW9m0S0rF/pDraeUsXKsl1PGP3xoKTQVZz75GQIQgAAE4iSAHKpPX8sh6xjW4mr24dz4maOOeQm50CJMhyiVYu0XUlJHaxjZrZcPKpmkd8hcEiGMrLkmnQGfHjMxFUykI5XQsxuOjIWX7tjYrIwMK16ykp+ecEdl2KYcCgxiq7JtqTj1ayN3+uWQvmIxVGeAOFbi0emHAAQ6nUAL5JAwgHom2Z57D7eKDukS+pRaF21Z+6DtoJ1eEeQfAhCAQNoIIIfqu0ZPtz6oiUg5ZM3SOHyquNmrUtRCODWaKDfAqNVuaqpH/nwuU3bGL1IZUDEPxCIQz7/7U3qJnUrIHw7Okx/718Gh83cyKkKDCCD75OIxQyNCOWSmg+rLIXNngBzqVcd66CFYtZvIkotBNWIKYheWKxCAQKIJtEgO9fSqfUH58e1Zg7CnlC3SkW/U4mfHxHWiCWMqIQABCEAgkAByqL73akAO6W39equP2+nqxXLWDp/ePrX4TawikyOLZh/RCXGQnxh01D9Yu3VVWIXABWmuSt22HNJl73/37LVnMhjdiztaWW1TDlkr4hz50acWZid0KgpjI3cGySEdUEHGKJd8Kq6tRI5061coN0MAAgkk0Fo5tO1DgaQcCnpKGeRSdsxsa3SGxsH+QAACEIBA5xFADtWvswbkkNrKYi9vc3Q1jurj/JynlavQCAtTI5my82QhmdDG9Pk7OUf8bvGqBg/Y2akcEkkM3MiJxXhmAFWF4fbOd+lilhwTUApOafGOCilhF/yYKEXJIVoavzNQDvWY/VTH1WKVLEEU6jdduzrcEp3rEEgggRbJIb3szRuass7nU+spNZO/9eSiOpgVW4R5gQAEINDhBJBDdZyidX6otQcmuBuhpEglJND2itneo5uLXG6xtbq0Ui0tTNlbfeRLcs/EcUZmykhlTy3PqBYyY45g1vLk0/n8LetMwG3IoQvjk2cPO+PUHbsjTlW3A8iq+a5qbtKKGz44NJkXQcMrIs8WBC1yKuWl6Qv2mbA6CLg4lMkqXeN3BsuhXiXGVmfvr3rPaOrwj9CCyQ8QSDOB5uXQxXv5K65dnX37hu/kRCgFEa7GsD0r5uE3l698rI1/Y085PYWKF7qxJLdfum218zZ+hgAEIACBziCAHKpfT6ofX0cO9fYduWzUwuaGOIZ1YbUgTxMqbebHrT05puNutEHVfbqoClJUdU4ZaRd+TJ5zWqmWtsqFRbF9SB2cKrYYDZsibEMOqXUg5YI8gzX7Qp4RVClnL9vhaI//IM5Zl4EWlmVyMjpTRkg1vxzK3ZsTR9Cqgi9uqCNiS6/mhh2KSxW5kTtD5JCZJXPJNlN2A9b0eLgOAQh0GIHm5ZCaii9tyrOq7fOgy7nrp61xGW1eHLFqGnrKbWH0YWjSFjUQybPDKgIrCgEIQCBtBJBD9R1Vg3Kop7dv3/DU9IIRA5VqsbianXbP51g+Va1/c6wlUy1Pbcx1TRlZjxw8feXhakGdpCG0R7mwMDc+7AiTlpHlyQAAIABJREFUvQ05dOrivXxhXe4X0hLr0RXnq0SigycnnyyJ09bFv+JK/tq5Qz2+PUUKTvZy377hG9kV88LNDX/BG78zVA71quOSAhcl1q/HtH3blBcCnUWgeTmkLbBtJDeW5me8ZwkMnJ1+VS1trV4zs0MNPWXZYfWDWrsrjoy70FmQyS0EIAABCPgJRC+H/GnEe6V5Fxtv/hOeuiVy6uaz8TvDX6XkEEEU0H4Q6EIC2Opw09eF1U1hIQABCCSHAHIIN9MUgcZFTuN3hn4eakrNudvKM2TLrxCAQMcSQA6Fmr6OrVNKBAEIQKAjCCCHmhIDHVHHLc1k4yKn8TtDMqzj2mWcMfroJUAAAt1CADkUYvpwUhCAAAQg0FoCyKHW8u1699a4yGn8zkBo/Sr296uZ493S+QssJhchkFoCyKHUVj0FhwAEIBAvAeQQcqgpAo2LnMbvdH8SZ2+92Mgtqth3G9NnrGi5TWXbnQSvggAE4ieAHMIuQQACEIBALASQQ/F3AmKp+KgSbVzkNH6nO2+np1dUvG8Z2o6pIQhAoEsJIIfcpg/fBAEIQAACbSKAHGoTaPwcBCAAAQjUIIAcqgGHP0EAAhCAQOsIIIeQQxCAAAQgED8B5FDrPD1vhgAEIACBGgSQQ/F3AmpUD3+CAAQgkBICyKGUVDTFhAAEIJA0Asgh5BAEIAABCMRPADmUtP4B+YEABCCQEgLIofg7ASlpahQTAhCAQA0CyKEacPgTBCAAAQi0jgByCDkEAQhAAALxE0AOtc7T82YIQAACEKhBADkUfyegRvXwJwhAAAIpIYAcSklFU0wIQAACSSOAHEIOQQACEIBA/ASQQ0nrH5AfCEAAAikhgByKvxOQkqZGMSEAAQjUIIAcqgGHP0EAAhCAQOsIIIeQQxCAAAQgED8B5FDrPD1vhgAEIACBGgSQQ/F3AmpUD3+CAAQgkBICyKGUVDTFhAAEIJA0AloOvfX2e/yDAAQgAAEIQAACEIAABCCQNgL/8dbb7+3avadb/3V36bq11igXBCCQNgLY6rTVOOWFAAQgkBACenYoIblpRTZwsa2gyjshAAEIREsAWx0tT94GAQhAAAINEkAOde20WIMtgNsgAAEIJIEAcigJtUAeIAABCKSQAHIIOQQBCEAAAvETQA6lsAtCkSEAAQgkgQByKP5OQBLaAXmAAAQgEC8B5FC8/EkdAhCAQGoJIIeQQxCAAAQgED8B5FBqOyIUHAIQgEC8BJBD8XcC4m0BpA4BCEAgCQSQQ0moBfIAAQhAIIUEkEPIIQhAAAIQiJ8AciiFXRCKDAEIQCAJBJBD8XcCktAOyAMEIACBeAkgh+LlT+oQgAAEUksAOYQcggAEIACB+Akgh1LbEaHgEIAABOIlgByKvxMQbwsgdQhAAAJJIIAcSkItkAcIQAACKSSAHEIOQQACEIBA/ASQQynsglBkCEAAAkkggByKvxOQhHZAHiAAAQjESwA5FC9/UocABCCQWgLIIeQQBCAAAQjETwA5lNqOCAWHAAQgEC8B5FD8nYB4WwCpQwACEEgCAeRQEmqBPEAAAhBIIQHkEHIIAhCAAATiJ4AcSmEXhCJDAAIQSAIB5FD8nYAktAPyAAEIQCBeAsihePmTOgQgAIHUEkAOIYcgAAEIQCB+Asih1HZEKDgEIACBeAkgh+LvBMTbAkgdAhCAQBIIIIeSUAvkAQIQgEAKCSCHkEMQgAAEIBA/AeRQCrsgFBkCEIBAEgi0QA698z/fL5cLP58PKt67n17NPV8rlypV8W/zzfNfb3/6TmvdcPMu9vOf3+gMq2zL/9f+WPz+61N7d7c280EMSRECEIBAFxJo0lZ/m5NuxWGlvXZ7LfM5FhsCEIAABCDgIxCtHDrw0deZp5vCJwXJofPXl6UQ2ioXlhYf514XtpQoWvx2qIWuvUkXu2v3Hi2Htspr6+afyrksJooIzQYBCECgeQJN2uqxX419loZaaSHbaK+X15ZmP/W5wOazzRsgAAEIQKDTCUQlhw786avbDwpm2idYDn33uFJ9/u9vPtpvxM/+L6/nxSNrv33TOlHRpIu15JBb4L37tyu5ghiGLP/yX6Y4OFoIQAACENgpgeZttcMfn/9prVqqLH6708w4XoWFhwAEIACBLicQkRyaXNTLEtZyP/0qlpa5xYOC+M23V32ryz6ZfV6pltYfX2iZ02rexarZIX+Jzv5baDn/dfwoBCAAAQhsl0DzttqRInKoy/sujrqmpBCAAASaJRCZHBJ7af5x+oBZWtawSBBTRi0dw2vexYbJoV1KBOa+wy5DAAIQgECTBJq31Y4MIIea7Rw4YPIqCEAAAl1OICI55JjbCRUPjnscdlbKoa3caPBfI6DfvIsNK9Heqy/FSr8Hf1fF+bP8teTZrbv/77+sV0uVNz99dcBR6gjKxdsgAAEIdBOB5m21g4ZPDu1XV6qPJ//quG3Pn28KM17K3/5zy3yQMzl+hgAEIACBBBKIWQ7t/UdOuaI/tcwVNe9iQ+TQX1Ugowf/sHTOh9eXRHCIpzc/tGr68xm9dLB1m6OstPgBAhCAQOcSaN5WO8ruk0O79+wdebym1mZb+1f/8t3jzWpp6+VkK8P5OHLFQBgEIAABCCSRQKxySA/XlR98bSmK6Bk172ID5ND+U6P/fi2EXGH2b04hp7ZCbeZGlbsd+vFppSrmiyzv67yZnyEAAQhAwBBo3lY7hEeAHNq1+8Dob2LD5/N/nZZ3HrjwQPz69Ko9gOV4Q/TOiJdDAAIQgEAyCcQnh/af/17G3S78fL6lMyfNu1glh0qOQNsqbsRa7sdPfTrnb/8SMklunVLTRyyTo1cBAQhAoD6B5m21w8sGyqE9u/Z/80BMBy1++5c9u/4zI6KDskzOyFEHvfqVxc0QgAAEuolAPHJo7/97+7GIgiribrd6xXbzLlbLIdfpfuXHk6dDVNz5n/6oliqvv78qFma0Wux1U1ukLBCAQJoJNG+rHfRC5NDuPX+6srgmTne4LdY2s0wOLQQBCEAAArv3tF8OHfhoQp7Ys/XmwYQv7nYLqqR5F+teLPfu3/6ReS6Omi0/ngxeYrH3KznoyDK5FtSmo7vD+CUEINBVBJq31Q77ECqHdu3+8NucWCPHMjkHrq5qSJQLAhCAwHYJtFkOfWi23DwebdfW1eZdrFsOCbdhBM/L64GlGLr9dEv42tIfmc+RBBCAAAQg0ACB5m21w//VkEMHzIR/+fEVV5Q5x+PIAwhAAAIQSBGBdsoh7YQKv/2z1QvknF6teRfrl0O7dhuHuvSjrywqvtzrB7/JmHIz552Z4WcIQAACEAgk0Lytdrw2VA6p+HJruZwYtNqUm4gakGqON6eof0CpIQABCKSEQBvlkIq6FqAfWutdmnexQXJozy59oJA3KpEVSmGvdeLQf7a2gClpqRQTAhDobgLN22oHnxA5pEMpiMja6sShtd+/a90xD4784AUgAAEIQCC5BNonh5SoeHq1hTG1A31P8y42WA7t3rP365w4xcI5vqhCFa0/viAjzukbWDLH4CsEIACBegSat9UOFxAoh/767e8ysrY+Gu709wW5C5Qlc/WqxgE2ub0ZMgkBCEBgxwTaJ4fUoaWlzfLaetC/X/+54zLUfrB5Fxsmh3bt/nAyL/YI6fHF/SqmnPMYJX1DgSVzuFsIQAACNQk0b6sdviBADv15UsSUcx4Wp3eBOoe0aubQ8X5UAQQgAAEIdA+BtsshV7hqGW9AXcl91yJP07yLDZdDe3apg1Yr5Qdf/1/qNu/SC33Dm59YMkc/AwIQgEA4geZttcOJ+OTQ0HePRURQjynWJ7F67XZ4Jh1JdE8/gEJBAAIQSDmB6OVQ0oBG6mLxfxCAAAQg0BIC2OqkeU/yAwEIQCAlBJBDLfHrKWk9FBMCEIBAVASQQ1GR5D0QgAAEILAtAsgh5BAEIAABCMRPADm0LefNzRCAAAQgEBUB5FD8nYCo6pL3QAACEOhcAsihzq07cg4BCECgowkgh5BDEIAABCAQPwHkUEd3Jsg8BCAAgc4lgByKvxPQua2HnEMAAhCIigByKCqSvAcCEIAABLZFADmEHIIABCAAgfgJIIe25by5GQIQgAAEoiKAHIq/ExBVXfIeCEAAAp1LADnUuXVHziEAAQh0NAHkEHIIAhCAAATiJ4Ac6ujOBJmHAAQg0LkEkEPxdwI6t/WQcwhAAAJREUAORUWS90AAAhCAwLYIIIeQQxCAAAQgED8B5NC2nDc3QwACEIBAVASQQ/F3AqKqS94DAQhAoHMJIIc6t+7IOQQgAIGOJoAcQg5BAAIQgED8BJBDHd2ZIPMQgAAEOpcAcij+TkDnth5yDgEIQCAqAsihqEjyHghAAAIQ2BYB5BByCAIQgAAE4ieAHNqW8+ZmCEAAAhCIigByKP5OQFR1yXsgAAEIdC4B5FDn1h05hwAEINDRBJBDyCEIQAACEIifAHKoozsTZB4CEIBA5xLQcuitt9/jHwQgAAEIQAACEIAABCAAgbQR+I+33n6vp7evW/91d+m6tdYoFwQgkDYC2Oq01TjlhQAEIJAQAnp2KCG5aUU2cLGtoMo7IQABCERLAFsdLU/eBgEIQAACDRJADnXttFiDLYDbIAABCCSBAHIoCbVAHiAAAQikkAByCDkEAQhAAALxE0AOpbALQpEhAAEIJIEAcij+TkAS2gF5gAAEIBAvAeRQvPxJHQIQgEBqCSCHkEMQgAAEIBA/AeRQajsiFBwCEIBAvASQQ/F3AuJtAaQOAQhAIAkEkENJqAXyAAEIQCCFBJBDyCEIQAACEIifAHIohV0QigwBCEAgCQSQQ/F3ApLQDsgDBCAAgXgJIIfi5U/qEIAABFJLADmEHIIABCAAgfgJIIdS2xGh4BCAAATiJYAcir8TEG8LIHUIQAACSSCAHEpCLZAHCEAAAikkgBxCDkEAAhCAQPwEkEMp7IJQZAhAAAJJIIAcir8TkIR2QB4gAAEIxEsAORQvf1KHAAQgkFoCyCHkEAQgAAEIxE8AOZTajggFhwAEIBAvAeRQ/J2AeFsAqUMAAhBIAgHkUBJqgTxAAAIQSCEB5BByCAIQgAAE4ieAHEphF4QiQwACEEgCAeRQ/J2AJLQD8gABCEAgXgLIoXj5kzoEIACB1BJADiGHIAABCEAgfgLIodR2RCg4BCAAgXgJIIfi7wTE2wJIHQIQgEASCCCHklAL5AECEIBACgkgh5BDEIAABCAQPwHkUAq7IBQZAhCAQBIItEAOHbxw60W5cO+sv3j7hqemFzaKW9VSRfwrFlczk6f39bbWDTflYj+bK8isqgwH/p+93Nr8+zFyBQIQgED3EWjKVms/MpX1W+zNjaWHN04exFBDAAIQgAAEgglEK4cGhy7N5TaF1AmSQ9pRFVeWs/P53EpZi6KFqSOtVERNudjhmdx6uWj9k0UrbTmurJcz48Fku6+zQokgAAEItI5AU7baLYdso72uHU1pMz9+DFsNAQhAAAIQCCAQlRwaPHzmRuaVcTwhcmj22R3nEF3/BzeyUmBkLgXkLCqnG4WLNdm7nA9ReuaGVuq6qIDwHghAAAIJJBCFrVaDbvlxhynuf3f01gvpm57dOOy4nkACZAkCEIAABGIhEJEckjpBzPYUn0w/3GhcMwzf28bNOwMUhYs1agc5RGcCAhCAQGsIRGGrA+SQcBxHbuTEIrrlKwPGmLemCDtzUjwFAQhAAALxEohMDhVX8rfGTu3r7duWwlE3L/1wonUUonCxxoMih+hDQAACEGgNgShsdYgc6j07XayWKhvTnxlj3poitM6R8WYIQAACEGgdgYjkkMO1bEcOvX9tsVqqrN76uIUuKgoXa7Lnk0NHJpflnNjcsINAz8Do7Lp0vWcGW1dzvBkCEIBANxGIwlbXlkPL144IY95/RsbI2cqPy18NQ+WPqrnJ980VY/md5p2fIQABCECg6wjEJIcGjh77cmp2sVyqlJd+ONvfSqxRuFjjFH1yqKfXeNDrtgcdvqtXALa0XDhsCEAAAt1EIApbHSKHVIzQVzPHta8ZPJcRu4mKmVHLSh+eyBcr1dKzGy0N7dNN9UVZIAABCHQNgTbLIbViwQTafvHoyvChVqOMwsXWkEN9PR/PLFWqpc0nI2pV+rE7YpF6cW6YReqtVLmtbja8HwIQaDOBKGx1gBzaN3xHxjstZy45pusHxjIikI9Zm6Cm9LeWrxB9DrsNAQhAIH0E2iyHTozfz2fn89mF1YIOWr2RnTxtjc+1wvtG4WJryqHevuM/rJroEUfHF1gmZ3Cl73NqRQPmnRBICYEobLWSQ1U70LZ2NKuzo/YEvuLZf+mJmA5amDpstryyTC4lLY1iQgACEPAQaLMccnWU9308lRHbW6u5q15H5cllM79G4WJNtgMWy6k/nZ1ekQONk4+KMsh4SwVeMzR4FgIQgEAyCURhq7Ucch2Z/Wrui3eNDXeN0RwdnxcLtjOTckqfZXIuOIHEuAgBCECgOwnEKYeES1YrzbaejLTMEEfhYk3dh8ohszeXZXItq8dkduDIFQQgEBWBKGy1a7Fc/7tnr8yLnZyllZDVy8em1Nl3JZbJYbohAAEIpJhA3HLIin86bCRH1JURhYs1eQuXQz3HbuS25J6oFXeUuaiLE1XPg/dAAAIQSBSBKGy1Sw7J0r0/vuCNmmCXesBsZ930RJkzNh8DDgEIQAACKSCQEDm0eut4q9xPFC7W5C1UDumI4ZmsjCl396ztblPQhigsBCAAgeYJRGGr/XKoz4xVlWfPO0IpCMus4suVs1lxXkJxXmwiar4UvAECEIAABDqOQNxySC2WW3/0Rcv8UBQu1vjIEDlkhVLot04c4rC/llVox31jZBgCEGiEQBS2OkgO9fYduW4OiHME/NShFMSWITWeVc5OHG0kn9wDAQhAAAJdRqB9cujk9UfTY6f2OXrJ/R+MzYoIBNWc49CeyPlG4WJryiF1osX6o3PS0WoXy5I5R0VHXqe8EAIQ6D4CUdjqYDnU03vq1ivhawrW1P0RtWto+ZqKrK3PS2DJnHF2GHAIQAACaSLQPjk0fE9uad0qFxZFrO2loljPXapUl+6PtfTYuyhcrPEQ/tmhARVTznmixftXnrn9bpraU/d10SgRBCDQHgJR2OowOWRFu9mYFlP3ekPR0g+nTNEGlYdiyZwBYrwe/gsCEIBACgi0Tw71fzB67aE5bqhSLQld9OjKmaOtjkkdhYs1jsErh0I8qDqJtaL8rnk2BY0JPwoBCEBgxwSisNWhcsjsFKqWXs38f5fz4sQhzxy+XurMkjl8FgQgAIHUEYheDu3YF7bowShcbOqaRYvqgtdCAAIQCCOArQ4jw3UIQAACEGgpAeQQUgcCEIAABOIngBxqqbPn5RCAAAQgEEYAORR/JyCsbrgOAQhAID0EkEPpqWtKCgEIQCBRBJBDyCEIQAACEIifAHIoUZ0DMgMBCEAgPQSQQ/F3AtLT2igpBCAAgTACyKEwMlyHAAQgAIGWEkAOIYcgAAEIQCB+Asihljp7Xg4BCEAAAmEEkEPxdwLC6obrEIAABNJDADmUnrqmpBCAAAQSRQA5hByCAAQgAIH4CSCHEtU5IDMQgAAE0kMAORR/JyA9rY2SQgACEAgjgBwKI8N1CEAAAhBoKQHkEHIIAhCAAATiJ4Acaqmz5+UQgAAEIBBGADkUfycgrG64DgEIQCA9BJBD6alrSgoBCEAgUQSQQ8ghCEAAAhCInwByKFGdAzIDAQhAID0EkEPxdwLS09ooKQQgAIEwAsihMDJchwAEIACBlhJADiGHIAABCEAgfgLIoZY6e14OAQhAAAJhBJBD8XcCwuqG6xCAAATSQwA5lJ66pqQQgAAEEkUAOYQcggAEIACB+AkghxLVOSAzEIAABNJDADkUfycgPa2NkkIAAhAII4AcCiPDdQhAAAIQaCkBLYfeevs9/kEAAhCAAAQgAAEIQAACEEgbgf946+33du3e063/urt03VprlAsCEEgbAWx12mqc8kIAAhBICAE9O5SQ3LQiG7jYVlDlnRCAAASiJYCtjpYnb4MABCAAgQYJIIe6dlqswRbAbRCAAASSQAA5lIRaIA8QgAAEUkgAOYQcggAEIACB+Akgh1LYBaHIEIAABJJAADkUfycgCe2APEAAAhCIlwByKF7+pA4BCEAgtQSQQ8ghCEAAAhCInwByKLUdEQoOAQhAIF4CyKH4OwHxtgBShwAEIJAEAsihJNQCeYAABCCQQgLIIeQQBCAAAQjETwA5lMIuCEWGAAQgkAQCyKH4OwFJaAfkAQIQgEC8BJBD8fIndQhAAAKpJYAcQg5BAAIQgED8BJBDqe2IUHAIQAAC8RJADsXfCYi3BZA6BCAAgSQQQA4loRbIAwQgAIEUEkAOIYcgAAEIQCB+AsihFHZBKDIEIACBJBBADsXfCUhCOyAPEIAABOIlgByKlz+pQwACEEgtAeQQcggCEIAABOIngBxKbUeEgkMAAhCIlwByKP5OQLwtgNQhAAEIJIEAcigJtUAeIAABCKSQAHIIOQQBCEAAAvETQA6lsAtCkSEAAQgkgQByKP5OQBLaAXmAAAQgEC8B5FC8/EkdAhCAQGoJIIeQQxCAAAQgED8B5FBqOyIUHAIQgEC8BJBD8XcC4m0BpA4BCEAgCQSQQ0moBfIAAQhAIIUEkEPIoe8eV6qlyuK3u0EBAQhAIDYCyKF6XZDzP61VS5U3P/1nbHVUL4dkDAIQgEBHEmiBHHrnf75fLhd+Pl/Xbu79R67U+o548y7221y1VKk+ngyp4P/MFCrV0lrm806VE8ihkJrt1AqlOBDoSALN2+pd9axxHWOe9E8eOdSRDbtuX4gbIACB2AlEK4cOfPR15ummEA8NyCFl2Vs+L9G8i63jQes54NjruF4GkEO4WAhAIH4Czdtq5FA9ax9/LZNDCEAAAgkkEJUcOvCnr24/KJTlbE9DcujPN1+am1u7TKt5F4scSmDDJUsQgECXEWjeViOHuqxJUBwIQAAC7SEQkRyaXNTaZi33069v6s8ODd1+ulUt5V8+Z7Fc/MszmB1ixBQCEIifAHKontdnsVz8rbReHZFDCECgIwlEJofW/lj8/h+nD+ze8/nPdeXQh9/myqXK6+8/aUdHvHkXy+wQDgACEIBAqwk0b6uZHWp1HfF+CEAAAl1JICI55JjiqCuH/jy5uFapFmbO79rdpXJI7SbKfbdr/6nRu4sFuZmqtFUu5GZHh5yiOWyoL+j6O19O/vpav6pSLW2+efy/nmAV7356NfdcxB2S/9ZeP7j65QFHvajme+Dz2w+W36xtyXu23jz/9fan+9tRC1358VAoCEAgQgKxyCE52iVitSnb6LSfex32M8yvBV1XptgsHReW/7Y70M6Bj76effyHuWHzzeO733y03+kaxM97T3zzfc6y1cp9BLkGRyYjrAteBQEIQCBVBNouh4Z+fFqplv5Qcdja0RFv3sVue3ZIy6EfxSTYVvl5bvFx7rVWIGuPL9huL8y3+a4PffdYaao/Xj7+ffGx0jO57+yWuv/898vSuW69cSa39vt3f3I4SyVEhb9fe63eI35uy5JFO6uO/HARAhCAgEWgeVu9g9khLYeuygCh0sA+/UMPKj393w+tvAXJHiFafNfV2odqaevN09+F5ZdjWM79sR+O/SYWUIgBsqXFx7+/LKjBqcKsUzLt/SrzXF3flO9Zkrpo7eVTAm3jQSAAAQi0gEB75dD+8z8JT/P6+0/USFhXyyGp+s6+Y8b83vnmwbrwsk9v/tW4WJ/s0RXsvX7hgZA6z2e+tEcr958avWTNDh0Y/U3csJa7bQ8xvvM/EnX5wdcHdHKfzMqdWm9+uWT7+L0n/vlATyg5HbbJcwsanCk7SUAAAhBwEYhPDlVLlfLjq6eMgT3w0Q8y0s/64wvGBvpkj8659/rI47VKtVTIfGoPex346OtvLKnzt3+9Flroj4ztGvafmhSrx6vP/3Vam8f93zwQ41/lpzcdNl+eYCGe5dwhUyl4EwhAAAJREWinHFLDZuXHk1Z3vLvl0MvrrqVxe/6kgun9bs3qeGWPqVTvdTU99eBrV9fB3Lxn1/8jdc66c95J3KmPdfrtG3Xn6G9CjD2/azyu8Sh7lf/mGFYDxAbLFQhAoI0EYpRDaw/+brSQMrN//0WMXr356fMQ2WOweOWQiipkrK7PmHzzQMz5eF3DLjVWVZj9SL72IyWZfvunO0t7dqm1FcghA9+HN8RFcj8EIACBegTaJocOWG7DYeK7Wg4Z32ab7K/kegz7ulf2mDu91/WA4tri5Fd/ddDTpl+prICDnv4i1yXq82HVO19e/4vfYbSjFkzR/KlzBQIQgIAgEKMc8g02HZjMi/Ej67rlvzymzHvdTMI/vnr+T/YEkalfNfaU+85nxpX6UlP0KunyLyPmKduLe12DJzP8CgEIQAACOyPQJjmkd63oLUOWlW9HR7x5F7vTvUPWLJApr/fA1jDf5ru+/8vrebk1qFItrb9+8MPf7UVxZvG6XEShl7y7ftZySKJ2rP1wNJd21IIjOUPD9vFcgQAEIBCjHBKhFDw2ymP2vbLHmC/f9QOf3nwp1svJ3UHPf/3xwgmzXHn3nl3WiRTqBu//Sg7VGLryuQaTDU/m+RUCEIAABLZFoD1ySBnxoM667Q8CHNK2ShJ2cwRy6HeR86dXHV7N6YSUyMnftgf8rMhyztt27/Ft8w3zbcHXD3z+3U85uQdXRJZ7/f1XOj/KH68tL4roCP5///5OLsCQmkdLI4/jRw55gPArBCAQA4HmbfWuz+UMfLChEyXSgRO+skunr0Qmh+Sb3/ny258XdYyESvn5v85r76DkkIqI47fVv/94VrgMZf9fTvonl/SfWuUrw3wo1yEAAQh0PYH2yKEvv18qr60H/FPzGPJPL783q7Qbr7MDAAAgAElEQVSjhd68i1Urudce/D0wY2qtmuuvrZFDOvV3To89kKJoMzcq5ZbKXmHmy8DsmYtK8wS52P23Raw/9g55tCu/QgAC7SXQvK3etdtszglYFbxn1261Js21Zrglckhze/dv/3hcENa1/OCSlElf54TLs7eP2qrMGOo9u3Z/KaPgvPnJodnMX4NHysxfA9/GRQhAAAIQqE+gPXIoLB/tmJeIwMX+lwwWtPVy0h0aQTih/co/2UvMxcVG5ZBenv540j3vZFaf+9dvGLfndooqe4XZv9Xqu/z1+pKc47ppxbHQlfJnFeABOVSLXlgD5joEIBAZgQhs9e6/qj0/hZ/NhIzju/7zVRkvzt69KXLeoBzaq571bvs5/X1B2NWArZsmXddqur/Isaet3FjAzI+NUYUS9UV32GPC3jA7ZLMyPpErEIAABJoigBxqBN+HSkuU1hYnP3/Xsr97/895vaXHI0UalUN7dAShtcd20FUdINsZTfXU6NV//s0K2C00mIrZ/XJSj4Aal/zAfZbfO19O/r74vVkE8ie1TmPz9ff/ZRfhwH9lzIoOAm030hK4BwIQaBWBKOSQpRnKz3922kPHRI119oBULA3KIR3As/LmF9t+vnv2Z7162ZJDH319e+wT28Du2n1g9Fex7fPp/6rzFcyhCPkfP3WZ9FOjP7/85YoBqzxI5c2DCSv29569J27r0+eILGekpuWL+QECEIBAkwSQQ8YD1bawQ9b5PNXSpl71pyMWrOXGPLNGDcshIWzU+aqO01rXlh7Ls4CsIUA9AbWmVpyr8/jkeKS9W8k6p1Uf7bf4VB95bgeK3bX7w29/1/EY1KvUPc9nMiyWa/Ir4nEIQKB5ApHIoV27D3z+r9c6mEGlqhdpqyNNndt4jMFvVA7t1kpGnPAmN2o+X6+WNl/+Is9UteSQmgsqqbNTf38pz2CVx45b00H68D05p6Q2fKpjtSvVx5Yc2n3g8xl5PJH7yOy13zNu19CY8zIlbb6CeAMEIACBbiWAHGrYo+w/NXp38fmaifBWqa6teYO86VbSuBzavWfX0Dff5+SJ4yIS0Zvn//7nR3oBniWH/vr5zZyd7la5sLz4/df2qKFO9J0vJ39VJ6ALR1vaLBdymW8dc1nytnc/vZp7rs9dra79od7TjiWL3fr9UC4IQCAqAhHJIWHSD3x++xczchRuD8WdDcuhPbt2fzh6d1ErnEq1sPx47IR9gISC8Kevfnxg5I0QTmuvH991TlJJdyNdifWekjDpuesjHpN+4KOvZx/rUa1qae31g6tfHiCUAtIOAhCAQGsIRC+HonKNUb0nQhcbVZZ4DwQgAAEIeAhgqz1A+BUCEIAABNpDADnU8OxQa/Roe6qZVCAAAQgknAByKOEVRPYgAAEIdCsB5BByCAIQgAAE4ieAHOrWfgblggAEIJBwAsih+DsBCW8iZA8CEIBAGwggh9oAmSQgAAEIQMBPADmEHIIABCAAgfgJIIf8HporEIAABCDQBgLIofg7AW2oZpKAAAQgkHACyKGEVxDZgwAEINCtBJBDyCEIQAACEIifAHKoW/sZlAsCEIBAwgkgh+LvBCS8iZA9CEAAAm0ggBxqA2SSgAAEIAABPwHkEHIIAhCAAATiJ4Ac8ntorkAAAhCAQBsIIIfi7wS0oZpJAgIQgEDCCSCHEl5BZA8CEIBAtxJADiGHIAABCEAgfgLIoW7tZ1AuCEAAAgkngByKvxOQ8CZC9iAAAQi0gQByqA2QSQICEIAABPwEkEPIIQhAAAIQiJ8AcsjvobkCAQhAAAJtIIAcir8T0IZqJgkIQAACCSeAHEp4BZE9CEAAAt1KADmEHIIABCAAgfgJIIe6tZ9BuSAAAQgknAByKP5OQMKbCNmDAAQg0AYCyKE2QCYJCEAAAhDwE0AOIYcgAAEIQCB+Asghv4fmCgQgAAEItIGAlkNvvf0e/yAAAQhAAAIQgAAEIAABCKSNwH+89fZ7Pb193fqvu0vXrbVGuSAAgbQRwFanrcYpLwQgAIGEENCzQwnJTSuygYttBVXeCQEIQCBaAtjqaHnyNghAAAIQaJAAcqhrp8UabAHcBgEIQCAJBJBDSagF8gABCEAghQSQQ8ghCEAAAhCInwByKIVdEIoMAQhAIAkEkEPxdwKS0A7IAwQgAIF4CSCH4uVP6hCAAARSSwA5hByCAAQgAIH4CSCHUtsRoeAQgAAE4iWAHIq/ExBvCyB1CEAAAkkggBxKQi2QBwhAAAIpJIAcQg5BAAIQgED8BJBDKeyCUGQIQAACSSCAHIq/E5CEdkAeIAABCMRLADkUL39ShwAEIJBaAsgh5BAEIAABCMRPADmU2o4IBYcABCAQLwHkUPydgHhbAKlDAAIQSAIB5FASaoE8QAACEEghAeQQcggCEIAABOIngBxKYReEIkMAAhBIAgHkUPydgCS0A/IAAQhAIF4CyKF4+ZM6BCAAgdQSQA4hhyAAAQhAIH4CyKHUdkQoOAQgAIF4CSCH4u8ExNsCSB0CEIBAEgggh5JQC+QBAhCAQAoJIIeQQxCAAAQgED8B5FAKuyAUGQIQgEASCCCH4u8EJKEdkAcIQAAC8RJADsXLn9QhAAEIpJYAcgg5BAEIQAAC8RNADqW2I0LBIQABCMRLADkUfycg3hZA6hCAAASSQAA5lIRaIA8QgAAEUkgAOYQcSiSBgdNXHq4Wt6qlSrU0P5HCL5MiQyBtBJIohz6bK1SqpYUpqy6G722UKtXs5USazV5yBQEIQAACOyHQAjl08MKtF+XCvbOW/7B/UK6lIvu4jv+Db47IskfoYvvfPTt+L19YL4s+uvxXLK5m702dPLgT9DaWiEraghcODl2aya6Y8m5uZG9eOGLl9sidnICweut4ePGP3JD3LF87EnLPZzNLW9XSZn7cdcP74wsy0fXV7PxyIWv3RVpQxpCMWcVM3Q9Hx+cF/KXpoE84dTRoHu0jEIWtnsoa4+y00pmbo0MDOypIh8khaTk38+PHZGEHTpy7+WSpaAz4VrmwMDPywWAdK1r3qW1Z/v/77PSK38LvqC6aNT5nb72qlirl7MTROgSaTSiW0pEoBCDQFIFo5dDg0KW53KaQCsEKZyIvXNRWubju+pf74XTrzFMULravp3dw+IflouVoN2X+ZUlliVZnR9/fcREOn5maXthYutuO3ufx/57JvCg3NrQ5OHx3VXUpCov57OKGmqspLkwZRXT0yjNR10vTp8LKfvj6snjDsxuHwxxMoBw6/0igfjV3cmc9mLC0uO4lcOrc9JOl9fy46zpyqCmTGvYtcL0ugShstZZDtouxrPTK3PAO7ElHyaHhuxvO7r6ayCptbiwt5LMLqwWNYmP6TC1F1MBT27T8H88sVarF+alQL+CyP637+rYvh47IAdBXc8NtymHrys6bIQCBOgSikkODh8/cyLwyo1BhcuiykEPBSqll5iYKFzuoPUSlnLs3cdwxFyTmix4qzVDOXt6hIlIvbw+W8QUhYBqSQ6ofsJm/Yo0mHpvKSoeavaxH1w5flWrn1czx4Oo7IUfjqtnLtbyvv5N0Ujj1drcTfzZScEX1HT1yqI7JSAEWCMRDIApbHdCk9308Mbsi7F4xO9YfbKnCy9tBcuiYnK5/dsMMV/UNT+dnL51wFPnQF3KlX+nVzFA4h0ae2q7llz6uPHt+e44gflOjar+IHAr/QMIbUvzVR94gsB0CEckhqXPEPEDxyfTD0L5s/6ToPeeut3WqunkX268mKyob0+cOBX7hRy7nxWyGd8VXoxYkkXJIj/9lxlwOrH/siahly5sOqM7H6q2PgworBwVLW08ubnNQtp1AAis0NRcD+o6pKXtQi92O6QRU5ASat9U9vSFN+tidJTG3v33l3zFyaPBcplyqlGfP1WzYA2r18jY5+J/aruVXq6YX71hSLfLG05IXIocwiRBIDYHI5FBxJX9r7NS+3r4afVn1p4amJqKrgKZd7Ck1xZG7XmPyZ/Bits6ysRrGugaxGk/t7E+Nzg4pb7f1ZMRbEWMZEd7A2gukCx44tXV8Ws6bZce2m9V2Atlu3rrr/pC+o7fSa3awuBkCERFo2lb3hcqh3tNiB0tlY/qzbTbmTpFDymJbA1WhNSI/+QDDXhuL/6ltW/4R4SJDBs5Cc1s7V63/K3IosVVDxiAQNYGI5JAjWzX6sh0ph46Ldc+l9UfnHGUM6BOfk9td7Fn1s9PFQO/ruq6AqP051v9GWkgPJF7ojmdQXM1Mnt7nykxYp9Z1XQkhKxX1Q6g0VRNiz244Floo33P02qLYjTp7XrsiPV9kF9xyUUpG2ncGQBOlsIopHgwCUq8Hc/C0iG9h7RDY3Fh6OOVavOe5Qewnnhsf9kz0Wdl4f2TavG1rI6tRDw6NP1oSFSr+FV48umgtIFQVYfWZZEC8ggqIt748rVeqHPripvXOcmHhzheO9ZYSy6GTk54dzzdqr1b3RvXY2lh6eCMopMfg0Pk7mRd635dYL7SSv3X+qOk16hKZVqHHjJ3fqTUf6EIqS63kbvH+Batm+z8Yu7Vg0mpw37arJVuNhx/SSKCVcmhQbnQ0xkQtZ3DEi9Nt2H/d+rRNQ3V+HVbLD/3B/0L1Ht91+7UHRVBNbUMa/oj65QvrrrzQKx2yEz7DXqu9BT61bct/SawsMN4tNDnpp0Q17Ts3k1uXBsqOLOp2hZsb2ekxb4QMRc/hDrJX7U251svt+gq7X9W7tVtY/eBycz7TWlz1R+ywqrX/g4mMXLFZejVz0rQlOxtcgQAE4ibQVjk0Ph+oEEItYyTGokkXqxb4lepPcYzOCtttTZu4ZI+jIK7rQxOPsvP5nLKSK8vZ+Xx2Pj87cULerzvoV2Q8g6L66wuxEFF0au14BkZRBKwDccmhL26Kly9JB1N8IX7OzuevhaysUKUOdF1ykM+5+0jNF/kWaSh3sv7oizpN3NIhohkEAXk0Hh65rv/MzJLyfFtmu7CQIvZSEO8N83mjajx7vVQ2nkwvlEtbG7n5fPaF3gi39MOpYTnNJaEt626KZ2GkKuyzOTECLaLhmTqtlDOX3leB2kQ4igUTOnzFuRjdhNFT6eodz3YRHI3H+lJUK6qWNmVW502uXK/t6+l9/2LWNBjZfnIySKCs1gvXRANYldFBykuyMWTn76jKsly4TFo1bNOPtGvzgmzw9nDvkbEnIiSxUFyiJetWvbV6a7vj8XYSVnn5IRUEmrTVttl0WADz+bjts0+N6Nv819ssh27K/ZnKms0vm1GeOsEPenr7pFnemB4ObSf7jp0+dzMvzFfxyUUVd66BD63mU9u0/Gr+avFO7YAKWrGMyVFIJUK0ajXWbKssbKll9F7N2CNHZndrybhLEf7HIXq9cqjG/cenZufz2WfSfirLPJ/P3p8ye65MZoy5s0INlV65InZoWzo5lrEUmktThdaXabfcAAEItIlAe+WQ3MdvhqKrxfWNNkSpbtLFKnO29IOSKDVqxbMYwyV7HKYt4LpKwqc9ZAd9q1zcXL3l2LPU/8kdFbvPsavHJXscaQVcl/7AKWaCSxSSJXGzH4hcs151zhL09PZ9cV/ICV+h/MkpHeKUB7XWWzpK19dzRIV2KC9NX7CnywZOjNyfuag8/YByQu4begeHxlXH3e7K27MljvBTekvYVrlYcWinARk3tlJ1NQkzlOiQqSb8xma5WHH0ZowDzlwyKALC6A0OXRqzfXxAr+XsrYX8FecE18AJOWtXtV/b2yfDTMnej2Mua9/wnenrViDHgBZiVbE1cxhclWo61IoZqPaJufbXDQ5Nyj11oZE2DIGAAvKnNBJo0lZL4xDcpI/Ibat2iEu/7FGN0H+9vXKouFkuZCccMx7vj2Rkj7zORyS9T+ASOFUipSvEdEpjAccbe2qblj88kw4LoBTL0qtyYd413X38B7n0emXOnlofOHFFnsew9IMObarys3T3tD33NXBiZDR0dqju/T2q9n0CRmem+MS1TEAeMeKJ2KHd5avV4ou5+iHOHRxcno7rEIBA6wm0VQ5dfFjWsxwLq/bpPZvL1z5x7deP1hA06WKVObO6hjXy5h55CpA98tmA6yHaQ/n1qhXGzUpaR/WxeqJhu4eDrkclh1w6R/WMXRNB3qkDK/O+H3Yuh1Q3vZgZtZ2f+4MZUh40aGWIftZe6KVoe+a4VGWJ8UXniKaeMJx3nIak5dDyFefpSXq3sVcT6uq+azSJ6nnUn36s0z9WMc3terFOfKo1Ehzcd/S2eSV1XPXbp3oSliZXc4a+/XVqwWTNk6ncVeZrHnVKzf3dRKBJWy1ReJv0vmMXxu+rMxIcoxJ+2aPaof96e+VQydfz7ulVttRjmjzfhZyoCXi2r+fcHbUQILdS1iclLM6N1LIJ8s0NPrVNyy+9j7WAwlME/avyUCWv/DN7Vj05V6bJ7JhSzzqHhDxfh7zBnuiue3+IHFKZcY6mmbIYq2s5AmVLS5tPRrYZT8iTc36FAARaTaCtcshTmP53R2+pJUle22eMSxRdpSZdrDJnrqmA4Fy1ZnYoYNVHX4+K82NvZ/L2AAzngOvKAdRVd7rLHnSWrvqTe5G6kg0Oh61nPGqFc3Vl0u3Ia6Runurr6VWJBvkkXUHebU6OZ/u0n1uZM8u4JSsbqcs35ybdcv2M96B6/TbvOhAjfc+42rN3IaKZV8lOnj28HZfZ/+7Zi5N3ph/msy82iuZoYEsOqb0EpSAp6OAQ0EL8s0M9vWYbmLW0cmBCRNSwR6PVSqT8uC//SjXVbW+OLLlYcT1VBJq01ZKVatKeTXHV0pb7aDi/7EmGHCpYoyQOLxNkcj2fiSy1Y1VYcLMZOHpuWq6PLT465/tUgx/p7eup9dT2LL8siK1GAlNUHsrtX/p6lENZmPKNfBnLI3GZSZv8lTNHfXcKYh45VPf+YDmkMuO19qpGBrWHndAVpOqumBkNLCwXIQCB5BCIUw4JCqpfVam16LlJWE26WDXo3oA5c9ll01n3m37TRXZsqAjp/UsP59YJBoWnF+v51fKUAdcblENqXsXqW5t0xZsDO7h6V70x+uoer0tzOHjHCwOKGQLEKpf6QT7oEzCONyvUYYORnscDsmHcp29toW/AWHtNb3ckoK5F9mRXzMF28OR1c8LvVnnp4Z1zjrVtjuI4i//+RRnOXm8kW5eL6eXIgvVaxbBeFchS+yS3etapYfRXYCbT1C5qx/JI9R5fH1Qt0WnwnKvg5uEsNT93OYEmbbX8WHRTtI5hLSzmZ2+OOg+Ls75B564S/aH5ZZLvY/d9HQGN3/oM1cfeSEK+19p1rf5kvzPgS5F58Nof+w0OM2KCoNZf/u18PPSpbVl+WRC/T3QmZBSLewhJYzT2xFpvb34wOy0HTl97Zg4/XA8IbOCRQz317g+WQ7KRhHUJVGVZhlf/6hlQC6hBFwRHfXEdAhBoE4G45ZAesPH1OKOzF826WOUO3SuFAqyVus3M2ne6HOqZEAfmlpzrwXSNuAM0WdVk1lPJ+Ht6YYO1YCAAl/WgO7KcurMB928CSATLRfXxaDl0JXgcVHYg7Mc9v+rPL1g9+npIzckhmZYKf6dC0lXKSz+cDRzd1HzkMbXFF4/GnYOgbpXVmBtWPTnTmTCVop51yqEetQhEi081Auqcl5PvsTYc68AMOlxHjYgdNRtGmywgeUgOgWZttWjAwU3aW0a/7FGN33/d97H7vg4VlcRu7Y5wOHrsIxo5FDRxZMolS92QHDJZCrDtNb84Rcb/1HYsv0TXmBxyDBeKMqrUVYAEn3mxYsAoGvuGp6YXdAiZ0ubqrTP23L5XDslKr3F/DTkUpk49htfXWmpCNhbYVCs3QwAC7SMQuxxS3WvXFvBobUHTLtacOzTZwLlDZk9nZHIocPZDeWjPQi/fGH9gzyC4f++3wiq8uK0WrBYppY69Ssq6fkKdzpS51KcDsAYsbLBudv4gHbk7IeVCwvyNaR5mNblzu46rICpLIZG+vfI1IBvtmh1y0jh0fOyRjM9Wzow6rzt/VssyvRtyPBN66tewIUzDMLjvGOTC9fCwWJevpJG9da2vp1fVhVdWmVScmednCIQSaNpWxyKHQosj2r9fXykb5buuu9EBZ5R7118FfVbyQ7Y9QgNZ2u5mRZXhgKe2Yfml9/EaLk9xAhVLjwzSHTQ8F17Sg6cuqigUm/bpecEvVzUSdH+wHFKZqblYztq/FGRLw/Ps8l/cBgEItJVA3HLoyFRWHuvZ2EzCTtA072IPT8gAWc74YC6zZSJorTsXZGuZl71sD00Ju282ijhPAwzp/auuann2vPsNver0cWckt+BFWVqWuGVSo3LI2i7iTl2/M2hHilpPVcpOqBNprU32Hm/n+zVAh4QA8dS+7iUsTeuwQr4395lzYAMO2VBJOJ4NyEYcckiUsV7xVcPwaI/3VWQ5W0Mqvbf15GLw5JiCGfgqnQHX7FCvUbnZMVXR7oZ9VB7qUm240j1Vya8QEASat9WBY0B+y9Cjtv+5R2F6erXmd03m1J8dqll3DSekvvrS4p0jLufS13PsTk4sEnOHafHcozZSBo6dee/UZcxdPRqAxXuzVbRaTzVs+ZVw8hguKwn9Q7BiUUMwdayZ91X+Qcngl9ul9nlSVfuedqJX+Dunx03Sqj/jyKeqVo8t3Q5582Y7k1yBAARaQqCdcmhi2h060wqlUMyO1Vga1KTtiMLFmqDJlQ3Pfvf+d89emVfz8o6wRdJy6bBmxUd2YNCDF+TJ6L7Dl9TAm2u43Rrm9ARKNtKrsnzNEWNHxfUqPbthRWjt/+BGVh904HI/yjo7dn2EtqrDKlcrj+wwRDpIdJAb6DWTBsXVJdcm+9D3m2oN0CH19IB5p/JVlY3M+Am7/QycGMnMjSvnERiJ2wq07To7KCAb7ZFDQ5duXPzYeSbs4MhDsfw9vL+iZoeqOXu68tAX9/TiEFsO9R5V5x0VX8zYLbC3b9/wndmbVuRZ5f4dMTAktxAXLiNcbT3JPBNBFDwqq//SE3GE0ebyNWf4b3GC8Fwu4wjBh1OHQDiBKGx1sMI31saYDj2fWc1NWqbDMq2uk2r862BDvg7rzZ4f1MRp/YTUa0sV96kAxmXUiJ+piibP9PNMvAiHO/yuczTt0Mmbcpuic+ROGUk7uEJjTzkrUWmV+pZfVo29ntwDSv8aolgGR7LCKhaf3XEdNj1wYuTe8qyOW3BiZHLCtUlsYCwjDwO0BlvdL69/v1HXXi0aeIZBjwm0XbhrGdjgoSVfawxGwW0QgEA7CbRTDilHZZ3SqLc8Fl/MDNcawG7WUkThYsWJliP35bkHcjen3qdrHay2uew8GkjXnz70plraKi8t6CM4i4uPMkWfHFLupFIVh8ctrOamlTFVHXR5MGilWpAHp4YcIWpNOlX1EaKLonNcuP9IDiu65FCPCo1aqYpDRRc3MiYATlCb0+eHltSxd/KdJecJPE6PKH7WUwTCaZmYCkGv9VSoKuaOzh3q7dNHA4mOuD6GVQaTtYvcf2ZOyLOKICNqwTrZcGt12rGmXLs9zyhg2MY234Cxv88kC+4ba1TEpM60dIvuBlkHqqpG5Tj+yM/QKrUMW6/OatyYvrfsPehp4Oz0Kx3ewHk0qpW0dTyUaqK5lSdKRoZ1+FR0clG/JqaCI2/WkEG1VBQH0Wb1ebKBO9A8bYBfISAIRGGrlZexLYCjibog66hiyurqU4M3ZjPiI4pydqi3r8GE1EeXuyejViprsLihQmN7TvYMLJGaorF28Mt7jMNV36P1Ns/JFmrYq1LNjis+jT3lMv6NWX4ZkM1pfAIL4lYsjiozB74JK6eOEX+h+WS1F1P2VncwrHNRC/fsfZjul9e/33ZqcmPk0qJ15KtxjtYxrNYJ6fNTzvm9MFsaWHYuQgACMRJopxw6dfFe3hyzLURCcSU/PXHaPkDTZWEddrC561G4WJ2ZfR+PXnu46i7C8uzN8IPtjo3dWjAubWtj6f7E0EBwF/nI6FxOjGMJLLnr6shXoxPkAJg4TVz+tfDiiev8TQOn/5MbGWORS5sb2ZsX9gXvKh48OSnPJpcKYTZ0g4oq8qGTk0+MBqsWV9xHf5qkreargztXvLMN1g1BP5hiOt6mXEhdx6nepjbC6n6DcE7eRtX/gbvWNjdy910H/Mn3BGSjPbNDh8/cyRi/LpRGcTU7PWbN8gUR6+vpHXTWi2gSnwyqXQpeaAMnzt18slQ00ZY2N7yR6wZOm+nNaqn4aETWQqgL10s9Q6YHxVzQTHbFpCXLkqnxdThqPKSYkRkB3t8RBKKw1ao3X18OeT6i4kr+2rlDAVt9fGMfoV9HaHt2fa1hCVmv3Td8w/6IxMGpda2B/EwCdvQdOjkxlzXHDRnb4p4/6e3rUXP+9sE4jT3lLmwjll+GG63vGtyKxW0BBk6MTLu6EIUXT66dt+b3jg5fd9i6rXLhRf7WJeuv4lXul9e/X3w1x8amF83Q7bM7Q3bBNSjhl7Vr9iZnrXxmsVxH2B8ymXIC0cuhpAGNwsW6jbJtEFt6PbiDnjS85AcCEIBAJAQ61lZH4AgsObRTkmp7T9hQRQQ53GnGZNJqv00rDxhsKntt8ulx1wLFhAAEwgkghxJroZBDia0aMgYBCERPADnU1DSCmrwNinMTu1SQYq+cueTcyBR9+4m9mGQAAhDoXALIocQaZeRQYquGjEEAAtETQA41JYd61f49fzDS6Gtqez0eqdOKC65NNdt7Q/iALu+BAAQgEAkB5FDcriLU0COHEls1ZAwCEIieAHKoOTnU16PiDWzmxx1xRyPpKOz8JQnMUqjPjb5J75wbmYQABNpLADmUWAuIHEps1ZAxCEAgegLIoWblUHt7D/T1IQABCHQNAeRQ9E49osaBHEps1ZAxCEAgegLIIeRQRN4z+sZJxiAAge4mgBzCbkIAAhCAQPwE0iyHurufQekgAAEIJCvPl8AAABNbSURBVJwAcij+TkDCmwjZgwAEINAGAsihNkAmCQhAAAIQ8BNADiGHIAABCEAgfgLIIb+H5goEIAABCLSBAHIo/k5AG6qZJCAAAQgknAByKOEVRPYgAAEIdCsB5BByCAIQgAAE4ieAHOrWfgblggAEIJBwAsih+DsBCW8iZA8CEIBAGwggh9oAmSQgAAEIQMBPADmEHIIABCAAgfgJIIf8HporEIAABCDQBgLIofg7AW2oZpKAAAQgkHACyKGEVxDZgwAEINCtBJBDyCEIQAACEIifAHKoW/sZlAsCEIBAwgkgh+LvBCS8iZA9CEAAAm0ggBxqA2SSgAAEIAABPwHkEHIIAhCAAATiJ4Ac8ntorkAAAhCAQBsIIIfi7wS0oZpJAgIQgEDCCSCHEl5BZA8CEIBAtxJADiGH0k5g+N5GqVLNXq7P4cjoTHalWqpUS5XVW8P17+9Wq0G5INAKAsghi2rjRsl6hB8gAAEIQGDHBJBDdGrTTsDX8zh761W1VClnJ446v6v+M3MFIYSqhcV89sXyrc/6Dk/ki5Vq6dXMcG/aGTpB8TMEdkYgWjnU/8HolXv5pWJZjl+IL7e4vpG7f+fcB4M7y147n/IZJSwMBCAAAQi0kAByqAG4R86O38sXXs1F2+s9fGZqemFj6e7ZdnpZ0vIT8PU8AuXQ0WuLokeVHT9kvQE5ZKHgBwg0TyA6OfT+yL1lMVQh/xXXy+Lfpv61cK8DTK7PKDXgpxiUgQAEIACBnRJADjXgZj6T0wLFiOWQcngd4Zub7+gk+Q2N9TymsqJrlR/f6ZeWZALkDQJJIBCRHHp/fEHOCG2uZibPHh5wWPiDp87dzGenkUMOJhg0CEAAAhDo7UMONeAYkENd/akgh5LQFSYPEIhCDg2qz7m08mjkWAO2PamWrTGj1MEFpLVDAAIQSBQB5FADHgU5lNROQyTfUmM9D2aHGvhSurqdRNLYeEkNAhHIoY9nlirV0tbylU7WQj29fY0ZJT5JCEAAAhCIhgByqCZHJYTMGnS9Jde1am5w6PydzIuN4pZZp15czdwcHXKu0PD1EfX4pfu1ZtVcWLfbd13lbWGqZ+DExYciNpoV7mx8oVqqbEx/1rdv+EbmhfpTtVRczUye7vdlJqh3cujkxFx2xbEFeSU/PXF6n/vZ5lI5dPy/3dxW8rcunXBlzy7g6SsPVwuK8PrytL7t0Bc38wW1H2CrXFi488VBV1Xa/YmDjsfFnTMj7r3U9p2mgFbRJBxFXtevbgMLU+JPVg7Ng/L+waFLMza9zY3s9Ji7PcgXilZ06IvpZdVysuOuzAdVCjdAoMsJNC+HvrgvrNbS9KmGv6CGDLhlIvo/GLu1YKy9/LSPuL79vp7eQycnn9jxG4TBueHedNqQdbVSdBdEvdzYImnSPWbZfb9oMJY1c2V+a2Pp4Y2TITaz/4OJjAqh+WrmpCmg+/EAQ9pA2bdhGyVGs93rxZMrnwQFwDh4WmzrNbvCSpsbSw+njpsM9/T2NZDnLv+m/O2BKxCAQCAB5FBNa3h8anY+n30mFcXWRm4+n53PZ+9PDWmD+/7FrBYbxZVl8adF4ylfzQ2HK6KhiUfZ+XxO+Rv14Hx+duKErCGf7NFp+a7rvviNkaylW4QEsv3fpNzyJN+v06pUc1ffD2wH9sWBs7de6BcWXsjyGkFVnJ9y+n7tZXeWyuW80hUmCZWiO5ibKuCzuemVaml91SZWKWcuvT8+Lx4RQd4WVrUWXXFt7tL9iZtT2c1qaWtjaSGfnV82jnNj+oztXP09D6sDIbFcuCbqfVXuzC4vqTZw84L4U4AcMk1iqyzyNr+sVZwr+pyWQxd/WNXiqrEw33YdOfw9FyHQNQSalkOnha2QI0GNMTFfa6Va24C7jIm0RVnLSN4fdQzimG1LylksrEqD49hw2LB19RulHutZZc2M3SvOTx2uaRAsQ720VS1tSi+2YEaXNvPjjmk0nejkWMYSGGbs78jYExVXU4HSDmVr9Zb0OJJ2vbL3GtoN2MYr8vADlwn1zfj1n5lZ0sNh0rzrQtm0G8hzTe9fk2pjDYz3QwACHUMAOdRAValer3EMlh08rrqzxScXnbMNBy8oOVHMjjncZEAqyveYSSHrBp/sqS2HXq0uba6aCRP9Eun/ZKjoSWu+ZXDo5rLofK8/OlfLyg8qcVV8MeOcbBGDhUUxULf0gz3s2kQqfT0Tj3L3XHMm+0afqKDVRmoasVGpFhcsGWY2BmyWixWHpDkmNU+lmrlkYdSrTYqb5UJ2wjE58/5IRirYVzPWIKK/5+GWQ+qdQfXik0O6SazM2fQGTlyRG7sd6JQcWl3a3MhOeufcrNbFDxBIG4Gm5VDQRxpu7ho34MpEiPGXexes2RhtsirL144Ys3P+kTRicyftsbDBoUtjZnZoG9bVZ5TMsws3bGt28IKUf+XMJXtwx99mlKEubpaXpu3M9wycvvZMDkJlJyw/pRJderVafDHnmkJXSxArG9PnrLiag0OT+pgBbUjrlL1vG7axUi1t5q9YXnXghIrqWcyM2qU7omy+p1AnRu7PXFQ13kiew9uGnRD3QAAC6SCAHDKerEZ9B8uhsYxYvrV662PfG47cyImla8tXLDcZ9HLle5qVQ2KqxOsLtf/LOIct+3p6R2fX5dBpjfNDj6uV908u2u7clO6c9PTrj74wZdl5KuYNbpejsmeP7em5Fw/GAdXjqXq4aZh3T1vvVFdKPhHb03tBcijPntNFU3c6j2HdqRxSTWL5mmPAVeRHOeZXM0bp6SI4BJKBHEyGv0IgFQSikUMBn3wgvW0YcG1MFu84p8d7ek3w/QnzfjXpnR2zrJDrh+1YV69RUs+uPzrntsz9Y0/EIFdYitKeKENdWvBNIvn8lC7m5pMRdyojWTEWlrvuWVlwSp7PtnrruCx+7bL3bss2lmfPu52a0lorc9bKPbUqsuj1caYievsayjP2FgIQgIAhgByyDajLdRlA4mKgHFIGevFO0EKFQeWBspabdL7N/Kx8j6db39MbNsDpu65yFTTbo1J3TpXIog1eeSa8mu+6TeDwdTGD5BqEM7nt6T07LSaINqaNmtpxKobzoeP/PXVl+pFYUbZeNpuvfHLIS9hk44ydbbFGfFLk3AlT43UIJJOunjjKXdenrHp7Ho7V9tYjwfXimR1STWJhyhptNY97lJ6qSsegsg3ZVSjzOBchkAoC0cihIJMY8Cltx4ArE7H0g1rPbNeF97qZkch6AnzLD3xb1tVjlNSzTvumS3Tkjhh6q6kAw52R8gjl2fO6RCpRn/035sutkXp6+85lxPySHkiqWfaebdnGrScjHpM4IEcY7evKCwSNReoHG8uzJxV+hQAEUkwAOWT7tgCXqVpGoBySg2E+z+HyK1aHO/DNyvf4PJxP9ujW6buucvXshq/zbe+d9aSr/eLl0CKrLIVlWz5u+075q96t5EyobipCvZyZyVnL07fKxeKq2Wbjk0MqaIH9iRo5ZK9Zl8WR1eGE6elPOHPoIe+/M6hoPv6WTrZyqMZH3REyrN1BjjOL5Ktq9mCcueVnCKSEQNNySHWCGxto2I4B95sIVSMeS9LTO3jyujn+dau89PDOOWvFlwkW16B19aSofnUYEx1jQF+paUyCrJl2AR5brVLJTbpnZvQInTtFh5Uz8+q1yt7TrG30mF/5ay3dq+6vm+dQV5iSL45iQgACFgHkUAMGMVwOOfvfFlMrTKrPr7jS8rlS9VeP3bce8V33TE3YgqFpOeR1hzoP2q2aaZkwL+txsU4s+me97Hsje3P0uB3aSOmcNsohM3Hk6XnYsShcisvHP0wOmdgYIrSG698ds85QvqpmDyYAmqN++SsEupJA03LoqJoAz13VE7+1KPkGUJw3e4SB30Som4NtuAp3pmONlpd+OKtGrDzvdCZn2xxjXT0pql+LKraNy6p4ovtY/sL+IcxQm0Sr1ioGT6Imh9JeWZGEfKlfM6uOxf0hZddyaOe20WN+65rQ7eQZ0woBCECAY1iNxbedR8CVQDl0SS7a9i7lUu/Ri+VqLEuzJJNPUHnsvpUx3/UWyKEhGRwiZMrLrE9QK8WDV5SJ3NaXQxMyrJx3vbtaXB6xHAoai/UuZfR3AoI6ED7+fjmkmsS8jMFdy7jIVyGHaiGymj0/pIhA03Ko7/BVGTCmWCuwp7bw2zHgfhOhXqKu+2y4qrJDx8ceyWhs5cyouLIt6+pJUT1bMCM4AU4q/GuS1sye1Xc8a2bazfpnT6LmTp9lDk/LPOIte0+zttFjfs1OpNDduTvIc4o+NFNNFBkCELAJMDtkswi1EYFyaGAiPJTCVHarWtoKCkjgcCQhrtS4KNfURJ/eMlupqxZEcYJ689Z1s9TbkRO74Gr9d2DOFQRHQLYdpxJY8H61uLx+AYP5qNFHZ79EpVLy7n7u6zkmV9s7IjT4OwFBRfP4Y9lsPIpUbU0OpOeijRxq4KNzEeP+VBBoXg6JLY7yAANHOMoQdNsx4H4ToWxmoCmzzalZIKft0nasqzdFFcnGYX6dqdT+WVozsSPUs6xam1xHdBxvovob1HNumTHPIroQsObLdcFp1jZ6zK8e0go/YGqHea5Nkr9CAAJdTAA5VMemy7pXttgbKW74rgzZHBJou3D3bJ12o5ZTP7vhCcagQuKUntkBVfs/uCEOzxHLtVssh3qPqvN8QgJtu84FCtIMAqbyvmZBeRBeNTvkGMHdTgG3KYcq7kisOjStq3Pg7wQEFc3jj2W5PHKo1wTDfXbHdb7hwImRe8uzdlwN5FBQqzC9qDpfDbd1L4Eo5FBf/5k5ccCOCDCQv3LmqFMD9L976tzNfHZaW+bGDbjfRKhW6urx9/YNXbpx8WMrFHVfT+/gyEMRbMAs3tuGdfWlqMK4VQsZ1/kEPQdPX5nPOw7/CfiylEEuVTYy49a5C32WyXXGi/Mlqt/Wf0megrC5fG3YVbqhS3O5jJ4Mr1f2Jm2jz/wq2+suVM/AiZHM3Lj8QBrJM6YGAhCAgEUAORTgPyw65gc91FSS66eXFmfMORL6MFARjU2tig45sdS8x52WjnNaLa0sZxdWc8ZJ67jMFXF4qDj4dVGIrsL9RzJ4d6vlUF/PwNnpV3oHqjojNbcij6eoVJfu6kXwqjhBmkEUsL4cGtAjuPp0VAmtuDAnjzaqW8DtyaHcPXkWrTp8MOSQXH8nIKhoPn/sXyzXK+mp03UrVXPCrD6Z11qgr4PUsViue7v1wd875a1HIBI5JCK1fHIjK89JE6Joq1xcl/9M7BbHHHKjBtxvIlQVq+vWC9Wv+qhT69DnFcfKvYata0CK5nS1kj7GNG8ssx3tM7DhKWuWuSePCRJBa/LZED8VkKiuMnPgmxCZ8g36hNlqyawNbqjsO7eNAeb3yGVZInFIkT6GVYYntTxI/TwH4uIiBCCQTgLIIbdECXPYx8amF7UqKD67Yw6Q6evpPXRyYi5rBINwVC/yty7Zg3C1W9WR0bmcOAtI+OzcdTuKa/8nNzLGY5U2N7I3L+zzB+D2Tk3YBQnqzTcmVFTxB06cu/lkqajLK73voyuucUHrbTuMLNdzbOzWgtYJooDTY0d0IG/LmZn45lbcNl0125ND2ct9+4Zv2BUk07LPMZTv9HcCggAG+GMdgd2Tw4ETI9N5eRq9rtnCiyfXzjubhHwVcijsW+N6WglEJYeE1R04Ojwxl31hjIy0sYUX+emJs4ddAaMbMuB+E6EMu7puyaHDZ+5kHCmKgJnT7skckbGGrGtwigdPX3m4atuWzXJhYW7cZ5k9TsdYs0ExmWNUYrG4mvGdAR2cqG6Ng0OXZmxDWqmKN9wctWxpg2XfqW0MMr+9ffuGp6YtPyIGJfPTE86Drevk2QOKXyEAgTQTQA7ZKiLN7aD7yl7TtVPpEIBA4ghEKYfSKin9ltzIocRVtz+rXIEABCAQFwHkEE6iOwkgh+KyKaQLgZ0RQA7tjFvtp5BDtfnwVwhAAAI9BNqmEXQrAeRQt9Ys5epWAsihVtQscqgVVHknBCDQZQSYHerOuZEua6Y7KA5yaAfQeAQCMRJADrUCPnKoFVR5JwQg0GUEkEPIoe4kgBzqMlNFcbqeAHKoFVWMHGoFVd4JAQh0GQHkUHeKgS5rpjsoDnJoB9B4BAIxEkAOtQI+cqgVVHknBCDQZQSQQ8ghCEAAAhCInwByqMu6FxQHAhCAQKcQQA7F3wnolLZCPiEAAQi0jgByqHVseTMEIAABCNQggBxCDkEAAhCAQPwEkEM1XDV/ggAEIACB1hFADsXfCWhd7fJmCEAAAp1CADnUKTVFPiEAAQh0GQHkEHIIAhCAAATiJ4Ac6rLuBcWBAAQg0CkEkEPxdwI6pa2QTwhAAAKtI4Acah1b3gwBCEAAAjUIIIeQQxCAAAQgED8B5FANV82fIAABCECgdQSQQ/F3AlpXu7wZAhCAQKcQQA51Sk2RTwhAAAJdRgA5hByCAAQgAIH4CSCHuqx7QXEgAAEIdAoB5FD8nYBOaSvkEwIQgEDrCCCHWseWN0MAAhCAQA0CyCHkEAQgAAEIxE8AOVTDVfMnCEAAAhBoHQEth956+z3+QQACEIAABCAAAQhAAAIQSBuB/x9te90ysIBYcwAAAABJRU5ErkJggg==;shadow=1;" parent="1" vertex="1">
          <mxGeometry x="567" y="32" width="556.42" height="476" as="geometry" />
        </mxCell>
      </root>
    </mxGraphModel>
  </diagram>
</mxfile>
